<svg width="140" height="61" viewBox="0 0 140 61" fill="none" xmlns="http://www.w3.org/2000/svg">
<path fill-rule="evenodd" clip-rule="evenodd" d="M133.076 30.5766C133.897 31.0093 134.748 33.0614 134.748 34.6061C134.748 36.5406 134.195 37.1118 132.322 37.1118C130.865 37.1118 130.844 37.0978 128.442 34.5507C125.204 31.1167 125.242 30.3323 128.654 30.1652C130.843 30.0583 132.361 30.1993 133.076 30.5766Z" fill="#FFFCF6"/>
<path fill-rule="evenodd" clip-rule="evenodd" d="M42.0514 35.7253C39.662 36.263 37.739 37.3642 35.8639 39.2688C30.9886 44.2204 30.9886 52.1234 35.8639 57.1304C39.7402 61.112 45.128 62.1006 50.0036 59.7251C54.6913 57.4409 57.697 51.6841 56.9121 46.4921C56.0725 40.9377 52.0708 36.6633 46.7345 35.6211C44.8222 35.2474 44.1041 35.2636 42.0514 35.7253ZM50.2108 45.9971C49.7823 44.8366 48.1663 43.1123 47.0613 42.6368C45.4222 41.9314 42.9887 42.0775 41.5467 42.9677C38.7652 44.6845 37.8773 48.4999 39.594 51.3593C40.5234 52.9078 42.0404 53.9971 43.7181 54.3214C46.0066 54.7636 49.155 52.959 50.089 50.6697C50.5423 49.5592 50.6071 47.0705 50.2108 45.9971Z" fill="#FFFCF6"/>
<path fill-rule="evenodd" clip-rule="evenodd" d="M112.377 35.6268C110.424 36.0444 108.18 37.2882 106.464 38.9035C101.21 43.8498 101.167 52.3443 106.372 57.4137C112.539 63.4216 122.297 61.5976 126.048 53.7354C127.008 51.7225 127.045 51.5192 127.045 48.1963C127.045 45.0714 126.97 44.5839 126.257 43.0156C124.764 39.7344 122.427 37.508 119.117 36.2124C117.396 35.5387 114.119 35.254 112.377 35.6268ZM113.564 54.1552C120.363 55.6088 123.704 46.0301 117.535 42.7716C116.053 41.9883 113.734 42.0225 112.108 42.8512C110.63 43.6049 109.311 45.5178 109.012 47.3433C108.518 50.3551 110.639 53.53 113.564 54.1552Z" fill="#FFFCF6"/>
<path fill-rule="evenodd" clip-rule="evenodd" d="M134.748 34.6061C134.748 33.0614 133.897 31.0093 133.076 30.5766C132.361 30.1993 130.843 30.0583 128.654 30.1652C125.242 30.3323 125.204 31.1167 128.442 34.5507C130.844 37.0978 130.865 37.1118 132.322 37.1118C134.195 37.1118 134.748 36.5406 134.748 34.6061Z" fill="#FFFCF6"/>
<path fill-rule="evenodd" clip-rule="evenodd" d="M11.1169 2.83144C10.9192 2.01974 11.5486 0.444854 12.1745 0.185265C12.9188 -0.123127 64.0932 -0.0189346 66.9509 0.295147C76.0849 1.29877 84.2827 4.13268 90.56 8.45676C93.6581 10.591 97.1284 13.6794 98.9907 15.9597C99.8701 17.0367 100.786 17.9864 101.026 18.0705C101.266 18.1544 104.536 18.7074 108.294 19.299C117.282 20.7146 122.075 21.6925 125.446 22.7991C130.401 24.4258 133.638 26.4289 135.414 28.9676C137.127 31.4156 137.449 32.6324 137.592 37.1867L137.722 41.3036H138.502C138.932 41.3036 139.441 41.4653 139.632 41.6629C140.123 42.1677 140.123 52.1165 139.632 52.6213C139.388 52.8731 137.771 52.9806 134.223 52.9806C129.52 52.9806 129.177 52.9435 129.365 52.4566C129.875 51.1362 130.08 48.0798 129.796 46.022C129.015 40.3479 125.02 35.4354 119.598 33.483C117.094 32.5809 112.694 32.5563 110.269 33.4306C103.594 35.8369 99.5149 42.0275 99.9585 49.0769C100.047 50.4829 100.201 51.9701 100.302 52.3818L100.484 53.1303L72.373 53.0524L59.1285 52.9746L59.3142 51.8548C59.7974 48.9415 59.8157 47.3334 59.3892 45.2615C57.7095 37.1043 50.3885 31.6835 42.625 32.8491C34.6656 34.0438 29.0275 41.2362 29.6601 49.3877C29.756 50.6227 29.9118 51.9779 30.0066 52.3994C30.1714 53.1327 30.1313 53.1602 29.0653 53.0425C28.4527 52.9752 25.4662 51.6895 22.4283 50.1856L16.9047 47.4514L5.95126 47.1421L5.25034 46.3019C4.3125 45.1779 4.36018 44.1474 5.39919 43.077L6.24894 42.2018H12.9412C19.5273 42.2018 19.6406 42.1913 20.086 41.5362C20.7349 40.5823 20.6474 39.938 19.7726 39.2296C19.0354 38.6322 18.6708 38.6089 10.0788 38.6089C2.70573 38.6089 1.00362 38.6316 0.418951 37.8425C0.226552 37.5828 0.155161 37.2352 0.0425133 36.7699C-0.177266 35.863 0.491082 34.292 1.21932 34.0042C1.47805 33.9021 8.12578 33.8183 15.9916 33.8183C28.4655 33.8183 30.3761 33.7587 30.9395 33.3521C31.7119 32.7949 31.7913 31.5545 31.1046 30.773C30.6572 30.2637 29.9572 30.2254 21.1009 30.2254H11.5783L10.8256 29.3041C9.99711 28.29 9.93373 27.9466 10.3619 26.7873C10.8361 25.5022 12.1891 25.1354 16.4527 25.1354C20.1439 25.1354 20.2456 25.1178 20.7006 24.4028C21.1018 23.7722 21.1125 23.5533 20.7767 22.8309L20.3866 21.9916L14.5755 21.8257C11.3797 21.7347 8.73715 21.6335 8.70343 21.6012C6.98299 19.952 7.03067 18.0807 8.81826 17.1001C9.27905 16.8474 13.8607 16.7519 25.5116 16.7519C40.0458 16.7519 41.62 16.7049 42.1011 16.2564C42.7372 15.6636 42.7866 14.6878 42.2203 13.8899C41.8258 13.3336 41.2987 13.3048 29.9377 13.2192C17.0998 13.1222 16.9765 13.1066 16.5858 11.5027C16.3628 10.5886 16.9399 9.049 17.6522 8.65647C17.9699 8.48131 24.9383 8.36844 35.4266 8.36844C50.8029 8.36844 53.4373 8.39821 53.8825 7.43535C53.9878 7.2076 53.9706 6.92432 53.9706 6.57198C53.9706 6.2272 53.9961 5.94851 53.8973 5.72327C53.4634 4.734 50.6329 4.77552 32.723 4.77552C13.2609 4.77552 12.7496 4.76084 12.0344 4.18148C11.6312 3.85483 11.2184 3.24732 11.1169 2.83144ZM63.6139 24.4333C64.593 25.3459 64.0118 27.2202 62.744 27.2382C54.8183 27.3514 40.6987 27.1478 40.2754 26.9145C39.5902 26.5367 39.5533 25.2291 40.2068 24.4854C40.6571 23.9728 41.4066 23.9378 51.8851 23.9378C61.8963 23.9378 63.1385 23.9902 63.6139 24.4333ZM133.076 30.5766C133.897 31.0093 134.748 33.0614 134.748 34.6061C134.748 36.5406 134.195 37.1118 132.322 37.1118C130.865 37.1118 130.844 37.0978 128.442 34.5507C125.204 31.1167 125.242 30.3323 128.654 30.1652C130.843 30.0583 132.361 30.1993 133.076 30.5766ZM68.9019 5.22313C77.7974 6.5594 83.8434 9.30261 90.485 15.016C92.9195 17.1103 93.555 18.1669 92.8825 19.0014C92.5732 19.3852 90.3914 19.4466 77.0646 19.4466C67.1686 19.153 63.4175 19.1096 61.8785 19.094L61.7351 19.0926L61.5489 19.0907L61.4248 19.0894C61.3631 19.0887 61.3071 19.088 61.2562 19.0873C59.0481 19.0762 57.245 19.1217 55.9067 19.1556C54.2714 19.1969 53.3299 19.2207 53.1909 19.102C52.6653 18.6529 52.7086 17.196 53.2645 16.6235C53.5523 16.3273 54.3462 16.2863 57.2125 16.2853C57.6175 16.2855 58.065 16.2863 58.56 16.2872C59.2449 16.2884 60.0207 16.2898 60.9 16.2898C60.828 6.58523 61.1962 4.80958 61.2562 5.13482C61.6 4.15909 65.3189 4.68509 68.9019 5.22313Z" fill="#FFFCF6"/>
</svg>
