<svg width="131" height="89" viewBox="0 0 131 89" fill="none" xmlns="http://www.w3.org/2000/svg">
<path fill-rule="evenodd" clip-rule="evenodd" d="M133.212 17.7482C133.863 19.3375 133.711 19.5117 125.787 26.3127C121.777 29.7547 118.5 32.6441 118.506 32.7332C118.513 32.8223 120.129 34.8816 122.098 37.3091C124.068 39.7367 125.91 42.1017 126.193 42.5645C127.095 44.0392 126.021 45.9282 124.236 46.0061C123.766 46.0268 120.178 45.7072 116.262 45.2959C110.328 44.6729 109.015 44.4386 108.379 43.8895C107.073 42.7613 107.458 40.6957 109.092 40.0646C109.384 39.9518 111.692 40.081 114.22 40.352C116.748 40.6227 118.813 40.8032 118.809 40.7531C118.804 40.7027 117.59 39.1633 116.109 37.3319C114.629 35.5004 113.317 33.6678 113.193 33.2591C113.07 32.8507 113.107 32.0973 113.276 31.585C113.548 30.7587 114.216 30.1104 119.187 25.8496C122.27 23.2073 124.788 20.9832 124.783 20.9069C124.777 20.8305 121.405 20.6346 117.288 20.4717C113.172 20.3085 109.543 20.044 109.224 19.8839C107.877 19.2074 107.58 17.9565 107.658 13.2999L107.733 8.78505L104.784 11.6778C101.024 15.3663 100.613 15.6911 99.6799 15.7144C98.0981 15.7541 96.8668 13.8359 97.5741 12.4345C97.7335 12.1189 100.351 9.43534 103.39 6.47075C108.533 1.45402 108.981 1.07353 109.855 0.980631C111.403 0.815552 112.314 1.84344 112.408 3.85936C112.467 5.12769 112.412 10.5975 112.293 15.3064C112.289 15.4534 116.568 15.7348 121.801 15.9318C130.263 16.2503 132.255 16.4241 132.771 16.8903C132.85 16.9613 133.048 17.3473 133.212 17.7482ZM80.9378 14.9419C81.3671 15.896 81.9499 17.5417 82.2329 18.599C82.5157 19.6561 83.2649 21.8436 83.8979 23.4604C84.5307 25.077 85.197 27.0244 85.3787 27.7873C85.7255 29.2448 85.4173 32.5571 84.7246 34.816C84.3253 36.1191 84.2682 36.1879 82.3549 37.6821C80.4445 39.1742 80.3366 39.2166 78.1065 39.3563C76.8477 39.435 75.7221 39.6105 75.605 39.746C75.4879 39.8815 75.474 40.6629 75.5741 41.4821C75.6742 42.3016 75.6635 43.1876 75.55 43.451C75.4364 43.7148 74.6153 44.2648 73.725 44.6737C72.4542 45.2574 71.9763 45.6272 71.5005 46.3954C70.9503 47.2837 70.7204 47.4097 69.0019 47.7636C67.9608 47.9779 66.8517 48.0961 66.5368 48.0257C65.6937 47.8377 65.4666 48.2818 65.3747 50.2995C65.2819 52.3384 64.8343 53.0526 63.4828 53.3177C62.0368 53.6015 61.6169 52.97 61.7454 50.707C61.8558 48.7642 61.8413 48.72 61.1585 48.8938C60.7736 48.9917 58.7089 50.0356 56.5706 51.2136C50.4985 54.5585 45.7954 56.4436 41.465 57.2678C36.3887 58.234 36.4542 58.2141 30.3166 60.6326C27.3234 61.8121 23.1196 63.2525 20.9749 63.8333C12.7938 66.0492 10.9853 65.207 6.05029 56.8824C1.99591 50.0427 2.02657 50.1176 1.21943 45.092C0.316039 39.4672 0.0215316 34.8665 0.453321 33.1283C0.902543 31.3209 2.64407 29.3449 4.8385 28.1521C7.56468 26.6704 12.9555 24.5989 17.8502 23.152C23.1813 21.5763 24.0951 21.2253 26.6485 19.7755C29.1803 18.3379 33.0356 16.7239 35.6063 16.0254C36.7643 15.7106 40.2598 14.9806 43.3739 14.403C46.4879 13.8254 49.1443 13.2271 49.2769 13.0736C49.4095 12.9202 49.3061 12.605 49.0468 12.3732C48.4411 11.8321 47.1219 10.3556 46.8762 9.94434C46.7716 9.76898 46.982 9.28477 47.3461 8.86326C48.1114 7.97736 49.7257 7.70712 50.2531 8.37665C50.4353 8.60786 51.0679 9.33356 51.6588 9.98935C52.7286 11.1762 52.7359 11.1792 53.3888 10.6818C55.2655 9.25182 61.5422 6.56596 64.0923 6.10194C65.9683 5.76036 69.2131 6.31915 72.1095 7.48287C74.0091 8.2462 74.718 8.70313 77.2354 10.7876C80.0532 13.1208 80.1846 13.2682 80.9378 14.9419ZM73.1889 9.2412C71.5007 8.55501 71.0253 8.52303 70.5578 9.06426C70.0484 9.65394 70.2738 12.0911 70.8861 12.6159C71.5978 13.2255 74.4905 13.7219 75.6578 13.4345C76.7634 13.1623 77.468 12.5091 77.2222 11.9845C76.9483 11.4001 74.6431 9.83219 73.1889 9.2412ZM104.56 49.4126C105.89 51.1979 107.515 54.1578 108.087 55.8365C108.459 56.9302 108.878 59.1808 109.016 60.8377C109.216 63.2269 109.141 64.1823 108.656 65.4539C107.85 67.5659 105.519 71.6884 103.86 73.9363C102.924 75.2051 102.611 75.8157 102.797 76.0095C102.942 76.1608 103.136 76.3912 103.228 76.5214C103.32 76.6517 103.756 77.0917 104.198 77.4992C105.225 78.4456 105.41 79.542 104.729 80.6417C103.926 81.9386 103.25 81.8923 101.999 80.456C100.327 78.536 100.283 78.5115 99.901 79.2691C99.7148 79.6381 98.8641 82.2153 98.0108 84.9967C95.523 93.1034 94.2883 95.7643 90.5651 101.043C89.3071 102.827 88.3587 104.661 86.6356 108.643C83.7615 115.285 80.6604 120.839 78.705 122.846C75.9325 125.693 73.3681 125.753 63.821 123.196L58.7087 121.826L55.4799 119.548C51.3908 116.663 46.9263 112.865 45.9069 111.405C44.8795 109.933 44.5695 107.554 45.1054 105.254C45.6783 102.795 48.3856 96.4852 50.5095 92.6592C53.2143 87.7856 53.7265 86.6513 54.9884 82.7392C56.9394 76.6903 58.1678 74.3426 62.9805 67.4686C65.6675 63.6302 66.4232 62.4301 66.2479 62.2786C66.1837 62.2231 65.2928 62.1243 64.2678 62.0588C61.9377 61.9097 61.4939 61.555 61.8834 60.1537C62.2998 58.6545 62.9349 58.3374 65.1214 58.5383C66.1635 58.6339 67.0697 58.6501 67.1354 58.5742C67.201 58.4982 67.4306 57.6776 67.6455 56.7508C67.8606 55.8238 68.4178 54.0851 68.884 52.8868L69.7314 50.7082L71.7745 50.5389C73.2749 50.4147 74.5198 50.0367 76.4627 49.1145C77.9176 48.4241 79.9577 47.5415 80.996 47.1534L82.8841 46.4477L83.8083 44.6418C84.6764 42.9458 84.7833 42.8212 85.567 42.596C86.0259 42.4639 86.9465 42.0059 87.6128 41.5782C88.8211 40.8022 88.8291 40.8024 90.6251 41.6018C91.6155 42.0426 93.399 42.9206 94.5882 43.5529C95.7774 44.1851 98.002 45.2691 99.5317 45.9618C102.074 47.1128 103.654 48.1975 104.56 49.4126ZM82.3097 31.2769C81.7734 31.4311 80.9192 32.0885 79.9297 33.109C78.4588 34.6257 78.3914 34.7479 78.4968 35.7114C78.6212 36.8478 79.0943 37.5613 80.0444 38.0445C80.6158 38.3349 80.7806 38.2626 81.4915 37.411C83.1136 35.4678 84.2294 31.9722 83.4444 31.2941C83.2803 31.1523 82.7696 31.1446 82.3097 31.2769ZM103.811 51.1326C103.108 51.3552 102.668 52.8497 102.72 54.843C102.768 56.7087 102.867 57.0162 103.62 57.6668C104.702 58.6021 106.742 58.5859 106.956 57.6404C107.382 55.759 104.969 50.766 103.811 51.1326ZM55.5525 16.1354C53.1419 15.9134 44.36 17.9061 43.5338 18.8624C43.0831 19.3843 43.4757 20.991 45.2897 26.0507C46.1554 28.4648 47.2203 31.437 47.6564 32.6561C48.0924 33.875 49.1066 36.9149 49.9103 39.4114C50.714 41.908 51.7799 44.886 52.2789 46.0292C53.1301 47.9791 53.2292 48.1068 53.8815 48.0904C54.8516 48.0661 59.5354 46.043 61.8178 44.6625C64.7189 42.9077 65.5107 42.1759 65.5171 41.243C65.5218 40.5629 63.2643 33.823 58.5907 20.5648C57.8821 18.5547 57.1234 16.7556 56.9048 16.5668C56.6861 16.3778 56.0775 16.1838 55.5525 16.1354ZM91.2074 67.4475C88.735 66.2919 84.7855 64.3861 82.4309 63.2123C76.0921 60.053 74.0722 59.2369 73.3145 59.5296C72.4662 59.8571 68.6323 64.7576 67.4414 67.0364C65.7152 70.3401 65.7075 70.3834 66.7054 71.2444C67.6349 72.0462 72.5733 74.5427 77.6009 76.753C79.2286 77.4685 82.1619 78.8992 84.1196 79.9326C88.2825 82.1301 92.2792 83.9026 93.2445 83.9793C93.9167 84.0326 93.9408 84.0001 95.0601 81.5252C96.3536 78.6658 97.8404 73.3906 97.7894 71.8425C97.7469 70.5527 97.5054 70.3915 91.2074 67.4475ZM13.1521 31.3465C7.7869 33.2277 6.36031 34.0872 6.52722 35.3387C6.57772 35.7181 7.71909 39.2021 9.06354 43.0815C14.867 59.8257 14.2802 58.3953 15.4538 58.657C15.7673 58.7269 18.4699 57.9311 21.4602 56.8888C26.6126 55.0924 26.8889 54.9599 26.751 54.3534C26.6709 54.0013 25.7751 51.3872 24.7603 48.5443C23.7456 45.7011 22.1451 41.0762 21.2039 38.2663C19.1981 32.2791 18.342 29.8476 18.1926 29.7137C18.1332 29.6604 15.8651 30.3953 13.1521 31.3465ZM75.7958 105.699C73.993 104.832 71.2064 103.513 69.6032 102.769C68.0001 102.026 64.4101 100.29 61.6255 98.9133C58.841 97.5362 56.4102 96.421 56.2245 96.4349C56.0383 96.4489 54.8103 98.6915 53.4907 101.428C51.7435 105.051 51.1118 106.643 51.157 107.311L51.2189 108.226L53.3994 109.318C55.6473 110.443 64.8932 114.93 68.1535 116.479C73.8424 119.181 73.8062 119.174 74.9872 117.807C75.636 117.056 78.3965 111.778 79.6177 108.953C80.1025 107.832 79.9349 107.689 75.7958 105.699Z" fill="#FFFCF6"/>
</svg>
