<svg width="1920" height="1080" viewBox="0 0 1920 1080" fill="none" xmlns="http://www.w3.org/2000/svg">
<circle cx="276.797" cy="645.618" r="15" transform="rotate(-27.2989 276.797 645.618)" fill="black" fill-opacity="0.15"/>
<circle cx="1208.21" cy="164.9" r="16" transform="rotate(-27.2989 1208.21 164.9)" stroke="black" stroke-opacity="0.15" stroke-width="2"/>
<path d="M432.245 598.852L419.65 605.353L428.026 621.582L404.651 633.645L396.276 617.417L351.465 640.544L343.402 624.921L354.115 552.369L378.942 539.555L369.991 606.903L387.189 598.028L379.75 583.616L402.398 571.927L409.836 586.339L422.432 579.838L432.245 598.852ZM483.787 594.95C476.52 598.7 469.165 600.298 461.722 599.743C454.278 599.188 447.233 596.434 440.586 591.48C433.979 586.404 428.321 579.304 423.612 570.18C418.903 561.057 416.414 552.372 416.146 544.126C415.917 535.758 417.733 528.38 421.592 521.991C425.452 515.602 431.016 510.532 438.282 506.782C445.468 503.073 452.783 501.496 460.226 502.051C467.67 502.606 474.696 505.422 481.303 510.498C487.95 515.452 493.627 522.49 498.336 531.614C503.045 540.737 505.514 549.483 505.743 557.852C506.011 566.097 504.215 573.415 500.355 579.803C496.495 586.192 490.973 591.241 483.787 594.95ZM473.661 575.33C477.698 573.246 479.887 569.663 480.228 564.579C480.608 559.372 478.611 552.53 474.235 544.053C469.86 535.575 465.461 530.024 461.039 527.398C456.655 524.65 452.445 524.318 448.408 526.402C444.29 528.527 442.041 532.193 441.661 537.399C441.32 542.483 443.337 549.264 447.712 557.742C452.088 566.219 456.467 571.832 460.851 574.58C465.273 577.205 469.543 577.455 473.661 575.33ZM599.953 512.296L587.358 518.796L595.734 535.025L572.359 547.089L563.984 530.86L519.173 553.988L511.11 538.364L521.823 465.813L546.65 452.999L537.699 520.347L554.897 511.471L547.459 497.059L570.106 485.37L577.544 499.782L590.14 493.282L599.953 512.296ZM684.974 490.347C677.949 493.973 670.861 495.79 663.709 495.801C656.557 495.811 650.033 494.066 644.137 490.566C638.321 487.023 633.725 481.982 630.35 475.442C627.016 468.983 625.59 462.357 626.072 455.565C626.635 448.731 628.973 442.463 633.085 436.762C637.237 430.938 642.865 426.193 649.97 422.526C657.075 418.859 664.204 417.02 671.356 417.01C678.466 416.919 684.929 418.644 690.745 422.187C696.519 425.648 701.094 430.649 704.469 437.189C707.844 443.728 709.291 450.395 708.809 457.187C708.327 463.98 706.01 470.288 701.859 476.111C697.707 481.935 692.079 486.68 684.974 490.347ZM675.535 472.06C679.572 469.976 682.174 466.895 683.341 462.816C684.466 458.657 683.758 454.115 681.216 449.19C678.716 444.345 675.465 441.217 671.465 439.806C667.464 438.394 663.446 438.73 659.409 440.814C655.372 442.897 652.77 445.978 651.603 450.057C650.436 454.135 651.103 458.597 653.603 463.441C656.145 468.366 659.437 471.575 663.479 473.068C667.48 474.479 671.498 474.143 675.535 472.06ZM802.417 345.226L836.296 410.867L732.263 464.56L698.384 398.919L721.274 387.105L745.651 434.338L763.454 425.15L739.077 377.917L761.967 366.103L786.344 413.336L804.026 404.21L779.649 356.977L802.417 345.226ZM885.535 302.328L919.413 367.969L897.493 379.283L893.93 372.379C892.841 376.213 890.955 379.692 888.273 382.814C885.671 385.895 882.472 388.415 878.678 390.374C870.119 394.791 862.005 395.809 854.335 393.428C846.745 391.006 840.367 384.789 835.2 374.778L816.26 338.081L839.271 326.205L856.273 359.147C861.148 368.593 867.26 371.421 874.607 367.629C878.24 365.753 880.542 362.981 881.51 359.311C882.438 355.561 881.547 351.062 878.838 345.814L862.524 314.204L885.535 302.328ZM944.554 279.229C950.932 275.937 957.109 274.334 963.084 274.42C969.017 274.425 974.382 276.104 979.179 279.456C984.016 282.686 987.997 287.328 991.122 293.384C994.331 299.6 995.55 305.924 994.779 312.355C994.047 318.663 991.542 324.607 987.266 330.189C983.028 335.648 977.397 340.19 970.373 343.815C958.827 349.774 947.769 350.932 937.197 347.288C926.625 343.644 917.631 334.636 910.213 320.265C896.295 293.298 900.119 271.386 921.684 254.53L950.411 232.036L963.498 249.667L938.573 269.126C932.215 274.043 928.131 278.809 926.321 283.425C924.55 287.917 924.738 293.035 926.884 298.778C929.944 290.246 935.834 283.729 944.554 279.229ZM961.493 326.313C965.611 324.188 968.153 321.189 969.119 317.316C970.166 313.401 969.669 309.466 967.627 305.51C965.46 301.311 962.561 298.666 958.931 297.575C955.258 296.403 951.404 296.859 947.367 298.942C943.249 301.068 940.564 303.987 939.311 307.701C938.139 311.373 938.636 315.309 940.803 319.507C942.887 323.544 945.847 326.209 949.683 327.501C953.519 328.792 957.456 328.397 961.493 326.313ZM1035.76 278.322L1028.01 282.322L1040.07 305.697L1017.06 317.573L983.18 251.932L1006.19 240.055L1018.69 264.277L1026.93 260.027L1030.53 227.492L1054.88 214.928L1049.09 257.792L1090.21 279.819L1063.08 293.82L1035.76 278.322ZM1131.1 175.588L1164.98 241.23L1143.06 252.543L1139.68 246.003C1138.03 253.299 1132.88 259.175 1124.24 263.634C1118.27 266.718 1112.11 268.158 1105.77 267.955C1099.46 267.629 1093.53 265.633 1087.95 261.966C1082.46 258.257 1077.96 253.011 1074.46 246.229C1070.96 239.447 1069.31 232.784 1069.51 226.238C1069.75 219.571 1071.59 213.615 1075.01 208.369C1078.52 203.082 1083.26 198.897 1089.24 195.813C1096.99 191.813 1104.25 190.927 1111.03 193.157L1108.09 187.465L1131.1 175.588ZM1119.65 242.846C1123.68 240.763 1126.29 237.682 1127.45 233.603C1128.58 229.444 1127.87 224.902 1125.33 219.977C1122.83 215.132 1119.58 212.004 1115.58 210.592C1111.58 209.181 1107.56 209.517 1103.52 211.6C1099.48 213.684 1096.88 216.765 1095.72 220.844C1094.55 224.922 1095.22 229.384 1097.72 234.228C1100.26 239.153 1103.55 242.362 1107.59 243.854C1111.59 245.266 1115.61 244.93 1119.65 242.846Z" fill="black" fill-opacity="0.15"/>
<path d="M1363.66 118.135L1364.58 119.912L1366.36 118.995L1365.44 117.217L1363.66 118.135ZM1351.07 124.635L1350.15 122.858L1348.37 123.775L1349.29 125.553L1351.07 124.635ZM1359.44 140.864L1360.36 142.641L1362.14 141.724L1361.22 139.947L1359.44 140.864ZM1336.07 152.928L1334.29 153.845L1335.21 155.622L1336.98 154.705L1336.07 152.928ZM1327.69 136.699L1329.47 135.782L1328.55 134.005L1326.77 134.922L1327.69 136.699ZM1282.88 159.826L1281.1 160.744L1282.02 162.521L1283.8 161.604L1282.88 159.826ZM1274.82 144.203L1272.84 143.911L1272.75 144.548L1273.04 145.121L1274.82 144.203ZM1285.53 71.6515L1284.61 69.8742L1283.7 70.3447L1283.55 71.3593L1285.53 71.6515ZM1310.36 58.8377L1312.34 59.1012L1312.85 55.3033L1309.44 57.0604L1310.36 58.8377ZM1301.41 126.186L1299.42 125.922L1298.92 129.72L1302.32 127.963L1301.41 126.186ZM1318.6 117.31L1319.52 119.087L1321.3 118.17L1320.38 116.393L1318.6 117.31ZM1311.17 102.898L1310.25 101.121L1308.47 102.038L1309.39 103.815L1311.17 102.898ZM1333.81 91.2091L1335.59 90.2918L1334.67 88.5146L1332.9 89.4319L1333.81 91.2091ZM1341.25 105.621L1339.47 106.538L1340.39 108.316L1342.17 107.398L1341.25 105.621ZM1353.85 99.1205L1355.62 98.2032L1354.71 96.426L1352.93 97.3432L1353.85 99.1205ZM1362.74 116.357L1350.15 122.858L1351.98 126.413L1364.58 119.912L1362.74 116.357ZM1349.29 125.553L1357.66 141.781L1361.22 139.947L1352.84 123.718L1349.29 125.553ZM1358.52 139.087L1335.15 151.15L1336.98 154.705L1360.36 142.641L1358.52 139.087ZM1337.84 152.01L1329.47 135.782L1325.91 137.616L1334.29 153.845L1337.84 152.01ZM1326.77 134.922L1281.96 158.049L1283.8 161.604L1328.61 138.476L1326.77 134.922ZM1284.66 158.909L1276.6 143.286L1273.04 145.121L1281.1 160.744L1284.66 158.909ZM1276.8 144.495L1287.51 71.9436L1283.55 71.3593L1272.84 143.911L1276.8 144.495ZM1286.45 73.4287L1311.28 60.6149L1309.44 57.0604L1284.61 69.8742L1286.45 73.4287ZM1308.38 58.5742L1299.42 125.922L1303.39 126.449L1312.34 59.1012L1308.38 58.5742ZM1302.32 127.963L1319.52 119.087L1317.69 115.533L1300.49 124.408L1302.32 127.963ZM1320.38 116.393L1312.94 101.981L1309.39 103.815L1316.83 118.227L1320.38 116.393ZM1312.08 104.675L1334.73 92.9864L1332.9 89.4319L1310.25 101.121L1312.08 104.675ZM1332.04 92.1264L1339.47 106.538L1343.03 104.704L1335.59 90.2918L1332.04 92.1264ZM1342.17 107.398L1354.76 100.898L1352.93 97.3432L1340.33 103.844L1342.17 107.398ZM1352.07 100.038L1361.88 119.052L1365.44 117.217L1355.62 98.2032L1352.07 100.038ZM1393.14 119.025L1392.99 121.02L1393.14 119.025ZM1372 110.762L1370.78 112.348L1370.8 112.357L1370.81 112.366L1372 110.762ZM1347.56 63.4085L1345.56 63.4632L1345.56 63.4735L1347.56 63.4085ZM1353.01 41.273L1354.72 42.3073L1353.01 41.273ZM1391.64 21.3335L1391.49 23.328L1391.64 21.3335ZM1412.72 29.7801L1411.5 31.3661L1411.51 31.375L1411.52 31.3837L1412.72 29.7801ZM1437.16 77.1338L1435.16 77.1886L1435.16 77.1988L1437.16 77.1338ZM1431.77 99.0857L1433.48 100.12L1431.77 99.0857ZM1411.64 83.8609L1409.65 83.7152L1409.65 83.727L1411.64 83.8609ZM1392.45 46.6804L1391.39 48.3749L1391.41 48.3878L1391.43 48.4001L1392.45 46.6804ZM1373.08 56.6814L1371.08 56.5357L1371.08 56.5474L1373.08 56.6814ZM1392.27 93.862L1391.2 95.5565L1391.22 95.5694L1391.25 95.5817L1392.27 93.862ZM1414.29 112.455C1407.31 116.052 1400.33 117.556 1393.29 117.031L1392.99 121.02C1400.84 121.605 1408.56 119.912 1416.12 116.009L1414.29 112.455ZM1393.29 117.031C1386.26 116.507 1379.57 113.911 1373.2 109.159L1370.81 112.366C1377.72 117.521 1385.13 120.434 1392.99 121.02L1393.29 117.031ZM1373.22 109.176C1366.89 104.316 1361.41 97.4669 1356.8 88.5453L1353.25 90.3798C1358.06 99.7054 1363.9 107.056 1370.78 112.348L1373.22 109.176ZM1356.8 88.5453C1352.2 79.6229 1349.82 71.2288 1349.56 63.3435L1345.56 63.4735C1345.84 72.0798 1348.44 81.0551 1353.25 90.3798L1356.8 88.5453ZM1349.56 63.3538C1349.34 55.3205 1351.08 48.3292 1354.72 42.3073L1351.3 40.2388C1347.22 46.9943 1345.32 54.76 1345.56 63.4632L1349.56 63.3538ZM1354.72 42.3073C1358.37 36.2647 1363.64 31.4392 1370.62 27.8415L1368.78 24.287C1361.22 28.1902 1355.37 33.5038 1351.3 40.2388L1354.72 42.3073ZM1370.62 27.8415C1377.5 24.2877 1384.45 22.8029 1391.49 23.328L1391.79 19.339C1383.95 18.7544 1376.27 20.4235 1368.78 24.287L1370.62 27.8415ZM1391.49 23.328C1398.5 23.8505 1405.17 26.4988 1411.5 31.3661L1413.94 28.1941C1407.06 22.9089 1399.67 19.9261 1391.79 19.339L1391.49 23.328ZM1411.52 31.3837C1417.88 36.1178 1423.37 42.8969 1427.97 51.8134L1431.53 49.9789C1426.71 40.6483 1420.86 33.35 1413.91 28.1765L1411.52 31.3837ZM1427.97 51.8134C1432.58 60.7291 1434.94 69.1812 1435.16 77.1886L1439.16 77.0791C1438.92 68.3501 1436.35 59.3103 1431.53 49.9789L1427.97 51.8134ZM1435.16 77.1988C1435.42 85.1004 1433.7 92.028 1430.06 98.0515L1433.48 100.12C1437.56 93.3658 1439.44 85.6589 1439.16 77.0688L1435.16 77.1988ZM1430.06 98.0515C1426.41 104.098 1421.17 108.901 1414.29 112.455L1416.12 116.009C1423.61 112.146 1429.42 106.851 1433.48 100.12L1430.06 98.0515ZM1405.99 96.3894C1410.74 93.9406 1413.26 89.676 1413.64 83.9949L1409.65 83.727C1409.35 88.2137 1407.49 91.1167 1404.16 92.8349L1405.99 96.3894ZM1413.64 84.0066C1414.06 78.2387 1411.85 70.9909 1407.43 62.4176L1403.87 64.2522C1408.2 72.6342 1409.99 79.0704 1409.65 83.7152L1413.64 84.0066ZM1407.43 62.4176C1403.01 53.8494 1398.39 47.8804 1393.48 44.9606L1391.43 48.4001C1395.36 50.7311 1399.55 55.8651 1403.87 64.2522L1407.43 62.4176ZM1393.52 44.9858C1388.63 41.9248 1383.67 41.4487 1378.91 43.9068L1380.74 47.4613C1384.05 45.7522 1387.51 45.9403 1391.39 48.3749L1393.52 44.9858ZM1378.91 43.9068C1374.08 46.3966 1371.51 50.7396 1371.08 56.5357L1375.07 56.8271C1375.41 52.2104 1377.33 49.2219 1380.74 47.4613L1378.91 43.9068ZM1371.08 56.5474C1370.7 62.1927 1372.93 69.3783 1377.35 77.9411L1380.91 76.1065C1376.57 67.714 1374.77 61.3379 1375.07 56.8153L1371.08 56.5474ZM1377.35 77.9411C1381.77 86.5088 1386.36 92.5171 1391.2 95.5565L1393.33 92.1674C1389.41 89.7113 1385.23 84.4941 1380.91 76.1065L1377.35 77.9411ZM1391.25 95.5817C1396.18 98.513 1401.19 98.8702 1405.99 96.3894L1404.16 92.8349C1400.73 94.6046 1397.19 94.4616 1393.29 92.1422L1391.25 95.5817ZM1531.37 31.578L1532.29 33.3552L1534.06 32.438L1533.15 30.6607L1531.37 31.578ZM1518.77 38.0787L1517.86 36.3014L1516.08 37.2187L1517 38.9959L1518.77 38.0787ZM1527.15 54.3073L1528.07 56.0846L1529.84 55.1673L1528.93 53.39L1527.15 54.3073ZM1503.78 66.371L1502 67.2883L1502.92 69.0656L1504.69 68.1483L1503.78 66.371ZM1495.4 50.1424L1497.18 49.2251L1496.26 47.4479L1494.48 48.3651L1495.4 50.1424ZM1450.59 73.2697L1448.81 74.187L1449.73 75.9643L1451.51 75.047L1450.59 73.2697ZM1442.53 57.6466L1440.55 57.3545L1440.45 57.9916L1440.75 58.5639L1442.53 57.6466ZM1453.24 -14.9052L1452.32 -16.6824L1451.41 -16.212L1451.26 -15.1973L1453.24 -14.9052ZM1478.07 -27.719L1480.05 -27.4555L1480.55 -31.2534L1477.15 -29.4962L1478.07 -27.719ZM1469.12 39.6291L1467.13 39.3656L1466.63 43.1635L1470.03 41.4063L1469.12 39.6291ZM1486.31 30.7532L1487.23 32.5304L1489.01 31.6132L1488.09 29.8359L1486.31 30.7532ZM1478.87 16.3412L1477.96 14.5639L1476.18 15.4812L1477.1 17.2584L1478.87 16.3412ZM1501.52 4.65248L1503.3 3.73521L1502.38 1.95796L1500.6 2.87522L1501.52 4.65248ZM1508.96 19.0645L1507.18 19.9818L1508.1 21.759L1509.88 20.8417L1508.96 19.0645ZM1521.56 12.5638L1523.33 11.6466L1522.42 9.86931L1520.64 10.7866L1521.56 12.5638ZM1530.45 29.8007L1517.86 36.3014L1519.69 39.8559L1532.29 33.3552L1530.45 29.8007ZM1517 38.9959L1525.37 55.2246L1528.93 53.39L1520.55 37.1614L1517 38.9959ZM1526.23 52.5301L1502.86 64.5938L1504.69 68.1483L1528.07 56.0846L1526.23 52.5301ZM1505.55 65.4538L1497.18 49.2251L1493.62 51.0596L1502 67.2883L1505.55 65.4538ZM1494.48 48.3651L1449.67 71.4925L1451.51 75.047L1496.32 51.9196L1494.48 48.3651ZM1452.37 72.3525L1444.3 56.7294L1440.75 58.5639L1448.81 74.187L1452.37 72.3525ZM1444.5 57.9388L1455.22 -14.613L1451.26 -15.1973L1440.55 57.3545L1444.5 57.9388ZM1454.16 -13.1279L1478.98 -25.9417L1477.15 -29.4962L1452.32 -16.6824L1454.16 -13.1279ZM1476.08 -27.9825L1467.13 39.3656L1471.1 39.8926L1480.05 -27.4555L1476.08 -27.9825ZM1470.03 41.4063L1487.23 32.5304L1485.4 28.9759L1468.2 37.8518L1470.03 41.4063ZM1488.09 29.8359L1480.65 15.4239L1477.1 17.2584L1484.54 31.6704L1488.09 29.8359ZM1479.79 18.1184L1502.44 6.42973L1500.6 2.87522L1477.96 14.5639L1479.79 18.1184ZM1499.74 5.56974L1507.18 19.9818L1510.74 18.1472L1503.3 3.73521L1499.74 5.56974ZM1509.88 20.8417L1522.47 14.3411L1520.64 10.7866L1508.04 17.2872L1509.88 20.8417ZM1519.78 13.4811L1529.59 32.4953L1533.15 30.6607L1523.33 11.6466L1519.78 13.4811ZM1595.13 15.083L1595.12 13.083L1595.13 15.083ZM1575.55 9.84779L1574.51 11.5559L1574.52 11.5618L1574.53 11.5676L1575.55 9.84779ZM1557.49 -25.1528L1555.5 -25.3169L1555.49 -25.3056L1555.49 -25.2944L1557.49 -25.1528ZM1564.5 -43.9558L1566.12 -42.7858L1566.13 -42.7949L1564.5 -43.9558ZM1602.77 -63.7079L1602.77 -61.7078L1602.79 -61.7079L1602.8 -61.708L1602.77 -63.7079ZM1622.16 -58.5312L1621.12 -56.823L1621.13 -56.8158L1622.16 -58.5312ZM1640.23 -23.5306L1642.22 -23.3891L1642.22 -23.3891L1640.23 -23.5306ZM1633.27 -4.60648L1631.65 -5.76746L1633.27 -4.60648ZM1614.76 -17.9013L1616.68 -17.3512L1616.68 -17.3651L1616.69 -17.379L1614.76 -17.9013ZM1602.88 -40.9121L1603.55 -42.7981L1602.88 -40.9121ZM1583.02 -30.661L1581.1 -31.2111L1583.02 -30.661ZM1594.9 -7.65025L1594.2 -5.77405L1594.22 -5.76905L1594.23 -5.76423L1594.9 -7.65025ZM1615.47 7.85221C1608.7 11.3473 1601.92 13.0732 1595.12 13.083L1595.13 17.083C1602.63 17.0722 1610.03 15.1624 1617.31 11.4067L1615.47 7.85221ZM1595.12 13.083C1588.31 13.0929 1582.15 11.4365 1576.57 8.128L1574.53 11.5676C1580.75 15.2601 1587.63 17.0939 1595.13 17.083L1595.12 13.083ZM1576.59 8.13967C1571.12 4.80387 1566.76 0.0483939 1563.54 -6.19258L1559.99 -4.35805C1563.52 2.48078 1568.36 7.80736 1574.51 11.5559L1576.59 8.13967ZM1563.54 -6.19258C1560.37 -12.3484 1559.03 -18.6099 1559.48 -25.0113L1555.49 -25.2944C1554.98 -18.1108 1556.5 -11.1206 1559.99 -4.35805L1563.54 -6.19258ZM1559.48 -24.9887C1560.01 -31.4506 1562.22 -37.3721 1566.12 -42.7858L1562.88 -45.1259C1558.56 -39.1372 1556.09 -32.5234 1555.5 -25.3169L1559.48 -24.9887ZM1566.13 -42.7949C1570.08 -48.3301 1575.45 -52.876 1582.3 -56.4145L1580.47 -59.969C1573.11 -56.1735 1567.23 -51.2288 1562.87 -45.1168L1566.13 -42.7949ZM1582.3 -56.4145C1589.16 -59.9531 1595.98 -61.698 1602.77 -61.7078L1602.77 -65.7078C1595.26 -65.697 1587.82 -63.7645 1580.47 -59.969L1582.3 -56.4145ZM1602.8 -61.708C1609.55 -61.7945 1615.64 -60.1609 1621.12 -56.8231L1623.2 -60.2393C1617.05 -63.9858 1610.21 -65.8033 1602.75 -65.7077L1602.8 -61.708ZM1621.13 -56.8158C1626.56 -53.5633 1630.89 -48.8532 1634.11 -42.6119L1637.66 -44.4465C1634.13 -51.285 1629.31 -56.5763 1623.19 -60.2466L1621.13 -56.8158ZM1634.11 -42.6119C1637.33 -36.371 1638.68 -30.0689 1638.23 -23.6722L1642.22 -23.3891C1642.73 -30.5773 1641.19 -37.6076 1637.66 -44.4465L1634.11 -42.6119ZM1638.23 -23.6722C1637.78 -17.2655 1635.6 -11.3072 1631.65 -5.76746L1634.9 -3.4455C1639.26 -9.55296 1641.71 -16.2107 1642.22 -23.3891L1638.23 -23.6722ZM1631.65 -5.76746C1627.7 -0.232225 1622.33 4.31366 1615.47 7.85221L1617.31 11.4067C1624.66 7.61119 1630.55 2.66644 1634.9 -3.4455L1631.65 -5.76746ZM1607.87 -6.8808C1612.36 -9.19723 1615.35 -12.7018 1616.68 -17.3512L1612.83 -18.4514C1611.83 -14.9436 1609.62 -12.286 1606.03 -10.4353L1607.87 -6.8808ZM1616.69 -17.379C1617.98 -22.1462 1617.11 -27.2074 1614.41 -32.4453L1610.85 -30.6107C1613.24 -25.9983 1613.79 -21.9751 1612.83 -18.4236L1616.69 -17.379ZM1614.41 -32.4453C1611.74 -37.6085 1608.15 -41.1726 1603.55 -42.7981L1602.22 -39.026C1605.61 -37.8281 1608.52 -35.1362 1610.85 -30.6107L1614.41 -32.4453ZM1603.55 -42.7981C1598.99 -44.4073 1594.4 -43.9979 1589.91 -41.6815L1591.74 -38.127C1595.33 -39.9777 1598.77 -40.2402 1602.22 -39.026L1603.55 -42.7981ZM1589.91 -41.6815C1585.42 -39.3651 1582.43 -35.8605 1581.1 -31.2111L1584.94 -30.1109C1585.95 -33.6187 1588.16 -36.2763 1591.74 -38.127L1589.91 -41.6815ZM1581.1 -31.2111C1579.75 -26.5149 1580.58 -21.5226 1583.24 -16.3593L1586.8 -18.1938C1584.46 -22.7193 1583.95 -26.6499 1584.94 -30.1109L1581.1 -31.2111ZM1583.24 -16.3593C1585.95 -11.1215 1589.57 -7.48456 1594.2 -5.77405L1595.59 -9.52645C1592.14 -10.8008 1589.18 -13.5814 1586.8 -18.1938L1583.24 -16.3593ZM1594.23 -5.76423C1598.79 -4.15499 1603.38 -4.56438 1607.87 -6.8808L1606.03 -10.4353C1602.45 -8.58464 1599 -8.32215 1595.56 -9.53627L1594.23 -5.76423ZM1733.83 -135.492L1735.61 -136.409L1734.69 -138.186L1732.92 -137.269L1733.83 -135.492ZM1767.71 -69.8503L1768.63 -68.0731L1770.41 -68.9903L1769.49 -70.7676L1767.71 -69.8503ZM1663.68 -16.1574L1661.9 -15.2401L1662.82 -13.4628L1664.6 -14.3801L1663.68 -16.1574ZM1629.8 -81.7986L1628.88 -83.5759L1627.11 -82.6586L1628.02 -80.8814L1629.8 -81.7986ZM1652.69 -93.6123L1654.47 -94.5296L1653.55 -96.3069L1651.77 -95.3896L1652.69 -93.6123ZM1677.07 -46.3797L1675.29 -45.4624L1676.21 -43.6852L1677.98 -44.6024L1677.07 -46.3797ZM1694.87 -55.5681L1695.79 -53.7909L1697.56 -54.7081L1696.65 -56.4854L1694.87 -55.5681ZM1670.49 -102.801L1669.58 -104.578L1667.8 -103.661L1668.72 -101.884L1670.49 -102.801ZM1693.38 -114.614L1695.16 -115.532L1694.24 -117.309L1692.47 -116.392L1693.38 -114.614ZM1717.76 -67.3818L1715.98 -66.4646L1716.9 -64.6873L1718.68 -65.6046L1717.76 -67.3818ZM1735.44 -76.5078L1736.36 -74.7305L1738.14 -75.6478L1737.22 -77.425L1735.44 -76.5078ZM1711.06 -123.74L1710.15 -125.518L1708.37 -124.6L1709.29 -122.823L1711.06 -123.74ZM1732.06 -134.574L1765.93 -68.9331L1769.49 -70.7676L1735.61 -136.409L1732.06 -134.574ZM1766.79 -71.6276L1662.76 -17.9346L1664.6 -14.3801L1768.63 -68.0731L1766.79 -71.6276ZM1665.46 -17.0746L1631.58 -82.7159L1628.02 -80.8814L1661.9 -15.2401L1665.46 -17.0746ZM1630.72 -80.0214L1653.61 -91.8351L1651.77 -95.3896L1628.88 -83.5759L1630.72 -80.0214ZM1650.91 -92.6951L1675.29 -45.4624L1678.84 -47.297L1654.47 -94.5296L1650.91 -92.6951ZM1677.98 -44.6024L1695.79 -53.7909L1693.95 -57.3454L1676.15 -48.1569L1677.98 -44.6024ZM1696.65 -56.4854L1672.27 -103.718L1668.72 -101.884L1693.09 -54.6509L1696.65 -56.4854ZM1671.41 -101.024L1694.3 -112.837L1692.47 -116.392L1669.58 -104.578L1671.41 -101.024ZM1691.61 -113.697L1715.98 -66.4646L1719.54 -68.2991L1695.16 -115.532L1691.61 -113.697ZM1718.68 -65.6046L1736.36 -74.7305L1734.52 -78.285L1716.84 -69.1591L1718.68 -65.6046ZM1737.22 -77.425L1712.84 -124.658L1709.29 -122.823L1733.66 -75.5905L1737.22 -77.425ZM1711.98 -121.963L1734.75 -133.714L1732.92 -137.269L1710.15 -125.518L1711.98 -121.963ZM1816.95 -178.39L1818.73 -179.307L1817.81 -181.085L1816.03 -180.167L1816.95 -178.39ZM1850.83 -112.749L1851.75 -110.971L1853.52 -111.889L1852.61 -113.666L1850.83 -112.749ZM1828.91 -101.435L1827.13 -100.518L1828.05 -98.7405L1829.83 -99.6578L1828.91 -101.435ZM1825.35 -108.338L1827.12 -109.256L1824.8 -113.75L1823.42 -108.885L1825.35 -108.338ZM1819.69 -97.9035L1818.17 -99.2068L1818.17 -99.2003L1818.16 -99.1939L1819.69 -97.9035ZM1785.75 -87.2893L1785.14 -85.384L1785.15 -85.3815L1785.16 -85.3792L1785.75 -87.2893ZM1747.68 -142.636L1746.76 -144.414L1744.98 -143.496L1745.9 -141.719L1747.68 -142.636ZM1770.69 -154.513L1772.46 -155.43L1771.55 -157.207L1769.77 -156.29L1770.69 -154.513ZM1812.93 -121.406L1814.86 -120.896L1814.86 -120.911L1814.87 -120.926L1812.93 -121.406ZM1793.94 -166.514L1793.02 -168.291L1791.25 -167.374L1792.16 -165.597L1793.94 -166.514ZM1815.17 -177.473L1849.05 -111.831L1852.61 -113.666L1818.73 -179.307L1815.17 -177.473ZM1849.91 -114.526L1827.99 -103.212L1829.83 -99.6578L1851.75 -110.971L1849.91 -114.526ZM1830.69 -102.352L1827.12 -109.256L1823.57 -107.421L1827.13 -100.518L1830.69 -102.352ZM1823.42 -108.885C1822.41 -105.339 1820.67 -102.117 1818.17 -99.2068L1821.21 -96.6002C1824.07 -99.9354 1826.1 -103.67 1827.27 -107.792L1823.42 -108.885ZM1818.16 -99.1939C1815.74 -96.3253 1812.75 -93.9665 1809.18 -92.1213L1811.01 -88.5668C1815.03 -90.6387 1818.44 -93.3195 1821.22 -96.6131L1818.16 -99.1939ZM1809.18 -92.1213C1800.99 -87.8937 1793.42 -87.0046 1786.34 -89.1994L1785.16 -85.3792C1793.43 -82.8127 1802.09 -83.9602 1811.01 -88.5668L1809.18 -92.1213ZM1786.36 -89.1946C1779.45 -91.3987 1773.42 -97.1197 1768.39 -106.857L1764.84 -105.023C1770.15 -94.7373 1776.87 -88.0244 1785.14 -85.384L1786.36 -89.1946ZM1768.39 -106.857L1749.45 -143.554L1745.9 -141.719L1764.84 -105.023L1768.39 -106.857ZM1748.59 -140.859L1771.6 -152.735L1769.77 -156.29L1746.76 -144.414L1748.59 -140.859ZM1768.91 -153.595L1785.91 -120.654L1789.47 -122.488L1772.46 -155.43L1768.91 -153.595ZM1785.91 -120.654C1788.44 -115.749 1791.46 -112.231 1795.09 -110.55C1798.83 -108.818 1802.86 -109.204 1806.94 -111.312L1805.11 -114.866C1801.84 -113.182 1799.14 -113.085 1796.77 -114.181C1794.29 -115.327 1791.81 -117.946 1789.47 -122.488L1785.91 -120.654ZM1806.94 -111.312C1811.03 -113.424 1813.73 -116.633 1814.86 -120.896L1810.99 -121.917C1810.18 -118.84 1808.28 -116.505 1805.11 -114.866L1806.94 -111.312ZM1814.87 -120.926C1815.96 -125.341 1814.85 -130.362 1812.03 -135.822L1808.48 -133.987C1811.08 -128.95 1811.75 -124.973 1810.98 -121.886L1814.87 -120.926ZM1812.03 -135.822L1795.72 -167.431L1792.16 -165.597L1808.48 -133.987L1812.03 -135.822ZM1794.86 -164.737L1817.87 -176.613L1816.03 -180.167L1793.02 -168.291L1794.86 -164.737ZM1894.5 -206.298L1894.47 -204.298L1894.48 -204.298L1894.5 -204.298L1894.5 -206.298ZM1910.6 -201.262L1909.45 -199.622L1909.47 -199.61L1909.48 -199.599L1910.6 -201.262ZM1926.19 -168.363L1924.21 -168.601L1924.21 -168.594L1926.19 -168.363ZM1918.68 -150.529L1920.26 -149.303L1920.27 -149.313L1918.68 -150.529ZM1868.61 -133.43L1869.26 -135.321L1868.61 -133.43ZM1853.1 -226.187L1854.33 -224.612L1854.33 -224.613L1853.1 -226.187ZM1881.83 -248.682L1883.43 -249.874L1882.21 -251.522L1880.59 -250.257L1881.83 -248.682ZM1894.91 -231.051L1896.14 -229.474L1897.68 -230.676L1896.52 -232.243L1894.91 -231.051ZM1869.99 -211.592L1871.21 -210.01L1871.22 -210.015L1869.99 -211.592ZM1857.74 -197.293L1859.6 -196.56L1859.6 -196.563L1857.74 -197.293ZM1858.3 -181.94L1856.43 -181.24L1858.34 -176.123L1860.18 -181.265L1858.3 -181.94ZM1900.54 -163.402L1898.6 -163.919L1898.6 -163.902L1898.59 -163.886L1900.54 -163.402ZM1890.35 -183.143L1889.74 -181.237L1889.75 -181.232L1889.77 -181.227L1890.35 -183.143ZM1870.73 -173.017L1868.83 -173.656L1868.83 -173.64L1868.82 -173.625L1870.73 -173.017ZM1881.1 -153.217L1880.46 -151.322L1881.1 -153.217ZM1876.89 -199.712C1883.03 -202.883 1888.89 -204.378 1894.47 -204.298L1894.53 -208.298C1888.16 -208.389 1881.67 -206.679 1875.05 -203.266L1876.89 -199.712ZM1894.5 -204.298C1900.03 -204.293 1904.99 -202.737 1909.45 -199.622L1911.74 -202.901C1906.6 -206.491 1900.84 -208.292 1894.5 -208.298L1894.5 -204.298ZM1909.48 -199.599C1913.99 -196.587 1917.76 -192.223 1920.76 -186.417L1924.32 -188.252C1921.06 -194.556 1916.87 -199.477 1911.71 -202.925L1909.48 -199.599ZM1920.76 -186.417C1923.8 -180.526 1924.93 -174.602 1924.21 -168.601L1928.18 -168.125C1929 -174.985 1927.69 -181.709 1924.32 -188.252L1920.76 -186.417ZM1924.21 -168.594C1923.52 -162.682 1921.18 -157.072 1917.09 -151.745L1920.27 -149.313C1924.74 -155.149 1927.4 -161.428 1928.18 -168.133L1924.21 -168.594ZM1917.1 -151.755C1913.07 -146.557 1907.67 -142.191 1900.87 -138.68L1902.71 -135.125C1909.95 -138.865 1915.82 -143.583 1920.26 -149.303L1917.1 -151.755ZM1900.87 -138.68C1889.73 -132.927 1879.24 -131.884 1869.26 -135.321L1867.96 -131.539C1879.13 -127.688 1890.76 -128.96 1902.71 -135.125L1900.87 -138.68ZM1869.26 -135.321C1859.36 -138.735 1850.69 -147.253 1843.41 -161.37L1839.85 -159.536C1847.4 -144.91 1856.72 -135.412 1867.96 -131.539L1869.26 -135.321ZM1843.41 -161.37C1836.58 -174.605 1834.22 -186.375 1836.03 -196.768C1837.84 -207.13 1843.85 -216.415 1854.33 -224.612L1851.87 -227.763C1840.79 -219.104 1834.1 -209.005 1832.09 -197.456C1830.08 -185.937 1832.76 -173.268 1839.85 -159.536L1843.41 -161.37ZM1854.33 -224.613L1883.06 -247.107L1880.59 -250.257L1851.87 -227.762L1854.33 -224.613ZM1880.22 -247.49L1893.31 -229.859L1896.52 -232.243L1883.43 -249.874L1880.22 -247.49ZM1893.68 -232.627L1868.76 -213.168L1871.22 -210.015L1896.14 -229.474L1893.68 -232.627ZM1868.77 -213.174C1862.28 -208.159 1857.88 -203.123 1855.88 -198.024L1859.6 -196.563C1861.22 -200.693 1864.98 -205.19 1871.21 -210.01L1868.77 -213.174ZM1855.88 -198.027C1853.88 -192.96 1854.16 -187.317 1856.43 -181.24L1860.17 -182.64C1858.15 -188.049 1858.05 -192.641 1859.6 -196.56L1855.88 -198.027ZM1860.18 -181.265C1863.06 -189.279 1868.58 -195.422 1876.89 -199.712L1875.05 -203.266C1865.92 -198.555 1859.66 -191.665 1856.42 -182.615L1860.18 -181.265ZM1893.83 -152.628C1898.36 -154.97 1901.35 -158.395 1902.48 -162.918L1898.59 -163.886C1897.79 -160.663 1895.69 -158.09 1891.99 -156.182L1893.83 -152.628ZM1902.47 -162.885C1903.66 -167.329 1903.07 -171.774 1900.82 -176.125L1897.27 -174.291C1899.1 -170.729 1899.51 -167.304 1898.6 -163.919L1902.47 -162.885ZM1900.82 -176.125C1898.47 -180.679 1895.19 -183.774 1890.92 -185.058L1889.77 -181.227C1892.76 -180.329 1895.28 -178.134 1897.27 -174.291L1900.82 -176.125ZM1890.95 -185.048C1886.69 -186.41 1882.28 -185.833 1877.87 -183.553L1879.7 -179.998C1883.36 -181.885 1886.66 -182.22 1889.74 -181.237L1890.95 -185.048ZM1877.87 -183.553C1873.38 -181.236 1870.28 -177.95 1868.83 -173.656L1872.62 -172.377C1873.68 -175.511 1875.95 -178.065 1879.7 -179.998L1877.87 -183.553ZM1868.82 -173.625C1867.45 -169.338 1868.09 -164.85 1870.44 -160.293L1874 -162.128C1872.01 -165.968 1871.66 -169.351 1872.63 -172.409L1868.82 -173.625ZM1870.44 -160.293C1872.73 -155.856 1876.07 -152.8 1880.46 -151.322L1881.74 -155.113C1878.45 -156.218 1875.87 -158.491 1874 -162.128L1870.44 -160.293ZM1880.46 -151.322C1884.88 -149.835 1889.37 -150.329 1893.83 -152.628L1891.99 -156.182C1888.37 -154.313 1885 -154.015 1881.74 -155.113L1880.46 -151.322ZM1967.17 -202.396L1968.16 -204.135L1967.22 -204.67L1966.26 -204.173L1967.17 -202.396ZM1959.42 -198.395L1958.5 -200.173L1956.73 -199.255L1957.64 -197.478L1959.42 -198.395ZM1971.49 -175.021L1972.4 -173.244L1974.18 -174.161L1973.26 -175.938L1971.49 -175.021ZM1948.47 -163.145L1946.7 -162.228L1947.61 -160.45L1949.39 -161.368L1948.47 -163.145ZM1914.6 -228.786L1913.68 -230.563L1911.9 -229.646L1912.82 -227.869L1914.6 -228.786ZM1937.61 -240.662L1939.38 -241.58L1938.47 -243.357L1936.69 -242.44L1937.61 -240.662ZM1950.11 -216.441L1948.33 -215.523L1949.25 -213.746L1951.03 -214.663L1950.11 -216.441ZM1958.34 -220.691L1959.26 -218.914L1960.21 -219.405L1960.33 -220.471L1958.34 -220.691ZM1961.95 -253.226L1961.03 -255.003L1960.08 -254.512L1959.96 -253.447L1961.95 -253.226ZM1986.29 -265.79L1988.28 -265.522L1988.79 -269.329L1985.38 -267.567L1986.29 -265.79ZM1980.5 -222.925L1978.52 -223.193L1978.34 -221.818L1979.56 -221.162L1980.5 -222.925ZM2021.62 -200.899L2022.54 -199.122L2025.92 -200.866L2022.57 -202.662L2021.62 -200.899ZM1994.5 -186.897L1993.51 -185.158L1994.45 -184.624L1995.41 -185.12L1994.5 -186.897ZM1966.26 -204.173L1958.5 -200.173L1960.34 -196.618L1968.09 -200.618L1966.26 -204.173ZM1957.64 -197.478L1969.71 -174.104L1973.26 -175.938L1961.2 -199.313L1957.64 -197.478ZM1970.57 -176.798L1947.56 -164.922L1949.39 -161.368L1972.4 -173.244L1970.57 -176.798ZM1950.25 -164.062L1916.37 -229.704L1912.82 -227.869L1946.7 -162.228L1950.25 -164.062ZM1915.51 -227.009L1938.52 -238.885L1936.69 -242.44L1913.68 -230.563L1915.51 -227.009ZM1935.83 -239.745L1948.33 -215.523L1951.89 -217.358L1939.38 -241.58L1935.83 -239.745ZM1951.03 -214.663L1959.26 -218.914L1957.43 -222.468L1949.19 -218.218L1951.03 -214.663ZM1960.33 -220.471L1963.94 -253.006L1959.96 -253.447L1956.36 -220.911L1960.33 -220.471ZM1962.87 -251.449L1987.21 -264.013L1985.38 -267.567L1961.03 -255.003L1962.87 -251.449ZM1984.31 -266.058L1978.52 -223.193L1982.48 -222.658L1988.28 -265.522L1984.31 -266.058ZM1979.56 -221.162L2020.68 -199.136L2022.57 -202.662L1981.45 -224.688L1979.56 -221.162ZM2020.71 -202.676L1993.58 -188.675L1995.41 -185.12L2022.54 -199.122L2020.71 -202.676ZM1995.48 -188.637L1968.16 -204.135L1966.19 -200.656L1993.51 -185.158L1995.48 -188.637ZM2062.52 -305.129L2064.29 -306.047L2063.38 -307.824L2061.6 -306.907L2062.52 -305.129ZM2096.39 -239.488L2097.31 -237.711L2099.09 -238.628L2098.17 -240.405L2096.39 -239.488ZM2074.47 -228.175L2072.7 -227.257L2073.61 -225.48L2075.39 -226.397L2074.47 -228.175ZM2071.1 -234.714L2072.87 -235.632L2070.36 -240.505L2069.15 -235.157L2071.1 -234.714ZM2037.18 -212.763L2037.08 -210.766L2037.1 -210.765L2037.12 -210.764L2037.18 -212.763ZM2019.37 -218.752L2018.25 -217.095L2018.26 -217.088L2018.27 -217.081L2019.37 -218.752ZM2000.93 -254.479L1998.93 -254.551L1998.93 -254.541L2000.93 -254.479ZM2006.43 -272.349L2004.76 -273.455L2004.76 -273.443L2006.43 -272.349ZM2042.44 -287.561L2041.82 -285.661L2046.46 -284.132L2044.22 -288.478L2042.44 -287.561ZM2039.5 -293.253L2038.59 -295.03L2036.81 -294.113L2037.73 -292.336L2039.5 -293.253ZM2058.87 -247.115L2060.79 -246.564L2060.8 -246.578L2060.8 -246.592L2058.87 -247.115ZM2046.99 -270.125L2047.66 -272.011L2046.99 -270.125ZM2027.13 -259.874L2025.21 -260.424L2027.13 -259.874ZM2039.01 -236.863L2038.32 -234.987L2038.33 -234.982L2038.34 -234.977L2039.01 -236.863ZM2060.74 -304.212L2094.62 -238.571L2098.17 -240.405L2064.29 -306.047L2060.74 -304.212ZM2095.48 -241.265L2073.56 -229.952L2075.39 -226.397L2097.31 -237.711L2095.48 -241.265ZM2076.25 -229.092L2072.87 -235.632L2069.32 -233.797L2072.7 -227.257L2076.25 -229.092ZM2069.15 -235.157C2067.66 -228.6 2063.02 -223.136 2054.74 -218.861L2056.58 -215.306C2065.57 -219.949 2071.23 -226.239 2073.05 -234.272L2069.15 -235.157ZM2054.74 -218.861C2049.05 -215.924 2043.23 -214.57 2037.25 -214.762L2037.12 -210.764C2043.82 -210.549 2050.32 -212.076 2056.58 -215.306L2054.74 -218.861ZM2037.29 -214.76C2031.36 -215.066 2025.76 -216.94 2020.47 -220.423L2018.27 -217.081C2024.12 -213.23 2030.4 -211.111 2037.08 -210.766L2037.29 -214.76ZM2020.49 -220.41C2015.31 -223.904 2011.03 -228.876 2007.66 -235.406L2004.1 -233.571C2007.73 -226.537 2012.44 -221.018 2018.25 -217.095L2020.49 -220.41ZM2007.66 -235.406C2004.29 -241.936 2002.74 -248.265 2002.93 -254.418L1998.93 -254.541C1998.72 -247.603 2000.47 -240.605 2004.1 -233.571L2007.66 -235.406ZM2002.93 -254.408C2003.16 -260.736 2004.89 -266.334 2008.1 -271.255L2004.76 -273.443C2001.12 -267.873 1999.18 -261.558 1998.93 -254.551L2002.93 -254.408ZM2008.1 -271.243C2011.41 -276.229 2015.88 -280.191 2021.57 -283.127L2019.74 -286.682C2013.48 -283.452 2008.47 -279.043 2004.76 -273.454L2008.1 -271.243ZM2021.57 -283.127C2028.96 -286.94 2035.66 -287.687 2041.82 -285.661L2043.07 -289.461C2035.67 -291.894 2027.85 -290.87 2019.74 -286.682L2021.57 -283.127ZM2044.22 -288.478L2041.28 -294.17L2037.73 -292.336L2040.67 -286.644L2044.22 -288.478ZM2040.42 -291.476L2063.43 -303.352L2061.6 -306.907L2038.59 -295.03L2040.42 -291.476ZM2051.98 -236.094C2056.47 -238.41 2059.46 -241.915 2060.79 -246.564L2056.95 -247.665C2055.94 -244.157 2053.73 -241.499 2050.15 -239.649L2051.98 -236.094ZM2060.8 -246.592C2062.09 -251.359 2061.23 -256.421 2058.52 -261.658L2054.97 -259.824C2057.35 -255.212 2057.9 -251.188 2056.94 -247.637L2060.8 -246.592ZM2058.52 -261.658C2055.86 -266.822 2052.27 -270.386 2047.66 -272.011L2046.33 -268.239C2049.72 -267.041 2052.63 -264.349 2054.97 -259.824L2058.52 -261.658ZM2047.66 -272.011C2043.1 -273.621 2038.51 -273.211 2034.02 -270.895L2035.85 -267.34C2039.44 -269.191 2042.89 -269.453 2046.33 -268.239L2047.66 -272.011ZM2034.02 -270.895C2029.53 -268.578 2026.54 -265.074 2025.21 -260.424L2029.05 -259.324C2030.06 -262.832 2032.27 -265.49 2035.85 -267.34L2034.02 -270.895ZM2025.21 -260.424C2023.87 -255.728 2024.69 -250.736 2027.35 -245.573L2030.91 -247.407C2028.57 -251.932 2028.06 -255.863 2029.05 -259.324L2025.21 -260.424ZM2027.35 -245.573C2030.06 -240.335 2033.68 -236.698 2038.32 -234.987L2039.7 -238.74C2036.25 -240.014 2033.29 -242.795 2030.91 -247.407L2027.35 -245.573ZM2038.34 -234.977C2042.9 -233.368 2047.49 -233.778 2051.98 -236.094L2050.15 -239.649C2046.56 -237.798 2043.11 -237.535 2039.67 -238.749L2038.34 -234.977Z" fill="black" fill-opacity="0.15"/>
<path d="M-499.171 1079.57L-498.254 1081.35L-496.476 1080.43L-497.394 1078.65L-499.171 1079.57ZM-511.766 1086.07L-512.684 1084.29L-514.461 1085.21L-513.544 1086.99L-511.766 1086.07ZM-503.39 1102.3L-502.473 1104.08L-500.696 1103.16L-501.613 1101.38L-503.39 1102.3ZM-526.765 1114.36L-528.542 1115.28L-527.625 1117.06L-525.847 1116.14L-526.765 1114.36ZM-535.14 1098.13L-533.363 1097.22L-534.28 1095.44L-536.058 1096.36L-535.14 1098.13ZM-579.951 1121.26L-581.728 1122.18L-580.811 1123.96L-579.034 1123.04L-579.951 1121.26ZM-588.014 1105.64L-589.993 1105.35L-590.087 1105.98L-589.791 1106.56L-588.014 1105.64ZM-577.301 1033.09L-578.218 1031.31L-579.13 1031.78L-579.28 1032.79L-577.301 1033.09ZM-552.474 1020.27L-550.491 1020.54L-549.986 1016.74L-553.391 1018.5L-552.474 1020.27ZM-561.425 1087.62L-563.407 1087.36L-563.912 1091.16L-560.508 1089.4L-561.425 1087.62ZM-544.227 1078.75L-543.31 1080.52L-541.533 1079.61L-542.45 1077.83L-544.227 1078.75ZM-551.666 1064.33L-552.583 1062.56L-554.36 1063.47L-553.443 1065.25L-551.666 1064.33ZM-529.018 1052.64L-527.241 1051.73L-528.158 1049.95L-529.935 1050.87L-529.018 1052.64ZM-521.58 1067.06L-523.357 1067.97L-522.44 1069.75L-520.663 1068.83L-521.58 1067.06ZM-508.984 1060.56L-507.207 1059.64L-508.124 1057.86L-509.902 1058.78L-508.984 1060.56ZM-500.088 1077.79L-512.684 1084.29L-510.849 1087.85L-498.254 1081.35L-500.088 1077.79ZM-513.544 1086.99L-505.168 1103.22L-501.613 1101.38L-509.989 1085.15L-513.544 1086.99ZM-504.308 1100.52L-527.682 1112.59L-525.847 1116.14L-502.473 1104.08L-504.308 1100.52ZM-524.987 1113.45L-533.363 1097.22L-536.918 1099.05L-528.542 1115.28L-524.987 1113.45ZM-536.058 1096.36L-580.868 1119.48L-579.034 1123.04L-534.223 1099.91L-536.058 1096.36ZM-578.174 1120.34L-586.237 1104.72L-589.791 1106.56L-581.728 1122.18L-578.174 1120.34ZM-586.036 1105.93L-575.323 1033.38L-579.28 1032.79L-589.993 1105.35L-586.036 1105.93ZM-576.384 1034.86L-551.556 1022.05L-553.391 1018.5L-578.218 1031.31L-576.384 1034.86ZM-554.456 1020.01L-563.407 1087.36L-559.442 1087.88L-550.491 1020.54L-554.456 1020.01ZM-560.508 1089.4L-543.31 1080.52L-545.145 1076.97L-562.342 1085.84L-560.508 1089.4ZM-542.45 1077.83L-549.888 1063.42L-553.443 1065.25L-546.005 1079.66L-542.45 1077.83ZM-550.748 1066.11L-528.101 1054.42L-529.935 1050.87L-552.583 1062.56L-550.748 1066.11ZM-530.795 1053.56L-523.357 1067.97L-519.803 1066.14L-527.241 1051.73L-530.795 1053.56ZM-520.663 1068.83L-508.067 1062.33L-509.902 1058.78L-522.497 1065.28L-520.663 1068.83ZM-510.762 1061.47L-500.948 1080.49L-497.394 1078.65L-507.207 1059.64L-510.762 1061.47ZM-469.694 1080.46L-469.843 1082.46L-469.694 1080.46ZM-490.83 1072.2L-492.048 1073.78L-492.037 1073.79L-492.025 1073.8L-490.83 1072.2ZM-515.27 1024.84L-517.269 1024.9L-517.269 1024.91L-515.27 1024.84ZM-509.824 1002.71L-508.112 1003.74L-509.824 1002.71ZM-471.19 982.769L-471.338 984.764L-471.19 982.769ZM-450.113 991.216L-451.331 992.802L-451.32 992.811L-451.308 992.819L-450.113 991.216ZM-425.673 1038.57L-427.672 1038.62L-427.672 1038.63L-425.673 1038.57ZM-431.061 1060.52L-429.349 1061.56L-431.061 1060.52ZM-451.188 1045.3L-453.183 1045.15L-453.183 1045.16L-451.188 1045.3ZM-470.377 1008.12L-471.44 1009.81L-471.419 1009.82L-471.398 1009.84L-470.377 1008.12ZM-489.755 1018.12L-491.75 1017.97L-491.75 1017.98L-489.755 1018.12ZM-470.565 1055.3L-471.628 1056.99L-471.607 1057L-471.586 1057.02L-470.565 1055.3ZM-448.546 1073.89C-455.517 1077.49 -462.506 1078.99 -469.546 1078.47L-469.843 1082.46C-461.996 1083.04 -454.274 1081.35 -446.712 1077.44L-448.546 1073.89ZM-469.546 1078.47C-476.569 1077.94 -483.258 1075.35 -489.635 1070.59L-492.025 1073.8C-485.109 1078.96 -477.707 1081.87 -469.843 1082.46L-469.546 1078.47ZM-489.611 1070.61C-495.938 1065.75 -501.422 1058.9 -506.027 1049.98L-509.582 1051.82C-504.769 1061.14 -498.937 1068.49 -492.048 1073.78L-489.611 1070.61ZM-506.027 1049.98C-510.632 1041.06 -513.014 1032.66 -513.271 1024.78L-517.269 1024.91C-516.989 1033.52 -514.394 1042.49 -509.582 1051.82L-506.027 1049.98ZM-513.271 1024.79C-513.49 1016.76 -511.75 1009.76 -508.112 1003.74L-511.535 1001.67C-515.617 1008.43 -517.507 1016.2 -517.269 1024.9L-513.271 1024.79ZM-508.112 1003.74C-504.461 997.7 -499.187 992.875 -492.217 989.277L-494.051 985.723C-501.614 989.626 -507.466 994.939 -511.535 1001.67L-508.112 1003.74ZM-492.217 989.277C-485.331 985.723 -478.383 984.238 -471.338 984.764L-471.041 980.775C-478.884 980.19 -486.565 981.859 -494.051 985.723L-492.217 989.277ZM-471.338 984.764C-464.328 985.286 -457.667 987.934 -451.331 992.802L-448.895 989.63C-455.774 984.344 -463.164 981.362 -471.041 980.775L-471.338 984.764ZM-451.308 992.819C-444.956 997.553 -439.459 1004.33 -434.857 1013.25L-431.303 1011.41C-436.118 1002.08 -441.976 994.786 -448.918 989.612L-451.308 992.819ZM-434.857 1013.25C-430.256 1022.16 -427.891 1030.62 -427.672 1038.62L-423.674 1038.51C-423.913 1029.79 -426.487 1020.75 -431.303 1011.41L-434.857 1013.25ZM-427.672 1038.63C-427.415 1046.54 -429.133 1053.46 -432.772 1059.49L-429.349 1061.56C-425.268 1054.8 -423.395 1047.09 -423.674 1038.5L-427.672 1038.63ZM-432.772 1059.49C-436.425 1065.53 -441.661 1070.34 -448.546 1073.89L-446.712 1077.44C-439.226 1073.58 -433.416 1068.29 -429.349 1061.56L-432.772 1059.49ZM-456.838 1057.82C-452.093 1055.38 -449.574 1051.11 -449.192 1045.43L-453.183 1045.16C-453.485 1049.65 -455.343 1052.55 -458.673 1054.27L-456.838 1057.82ZM-449.193 1045.44C-448.772 1039.67 -450.979 1032.43 -455.403 1023.85L-458.958 1025.69C-454.632 1034.07 -452.843 1040.51 -453.183 1045.15L-449.193 1045.44ZM-455.403 1023.85C-459.826 1015.28 -464.438 1009.32 -469.356 1006.4L-471.398 1009.84C-467.472 1012.17 -463.287 1017.3 -458.958 1025.69L-455.403 1023.85ZM-469.315 1006.42C-474.198 1003.36 -479.162 1002.88 -483.925 1005.34L-482.091 1008.9C-478.779 1007.19 -475.323 1007.38 -471.44 1009.81L-469.315 1006.42ZM-483.925 1005.34C-488.749 1007.83 -491.326 1012.18 -491.75 1017.97L-487.76 1018.26C-487.423 1013.65 -485.502 1010.66 -482.091 1008.9L-483.925 1005.34ZM-491.75 1017.98C-492.129 1023.63 -489.9 1030.81 -485.481 1039.38L-481.926 1037.54C-486.258 1029.15 -488.063 1022.77 -487.759 1018.25L-491.75 1017.98ZM-485.481 1039.38C-481.059 1047.94 -476.476 1053.95 -471.628 1056.99L-469.503 1053.6C-473.421 1051.15 -477.597 1045.93 -481.926 1037.54L-485.481 1039.38ZM-471.586 1057.02C-466.649 1059.95 -461.645 1060.31 -456.838 1057.82L-458.673 1054.27C-462.101 1056.04 -465.637 1055.9 -469.544 1053.58L-471.586 1057.02ZM-331.463 993.014L-330.546 994.791L-328.768 993.874L-329.686 992.096L-331.463 993.014ZM-344.058 999.514L-344.976 997.737L-346.753 998.654L-345.836 1000.43L-344.058 999.514ZM-335.682 1015.74L-334.765 1017.52L-332.988 1016.6L-333.905 1014.83L-335.682 1015.74ZM-359.057 1027.81L-360.834 1028.72L-359.917 1030.5L-358.139 1029.58L-359.057 1027.81ZM-367.432 1011.58L-365.655 1010.66L-366.572 1008.88L-368.35 1009.8L-367.432 1011.58ZM-412.243 1034.71L-414.02 1035.62L-413.103 1037.4L-411.326 1036.48L-412.243 1034.71ZM-420.306 1019.08L-422.285 1018.79L-422.379 1019.43L-422.083 1020L-420.306 1019.08ZM-409.593 946.53L-410.51 944.753L-411.422 945.224L-411.572 946.238L-409.593 946.53ZM-384.766 933.717L-382.783 933.98L-382.278 930.182L-385.683 931.939L-384.766 933.717ZM-393.717 1001.06L-395.699 1000.8L-396.204 1004.6L-392.799 1002.84L-393.717 1001.06ZM-376.519 992.189L-375.602 993.966L-373.825 993.049L-374.742 991.271L-376.519 992.189ZM-383.957 977.777L-384.875 975.999L-386.652 976.917L-385.735 978.694L-383.957 977.777ZM-361.31 966.088L-359.533 965.171L-360.45 963.394L-362.227 964.311L-361.31 966.088ZM-353.872 980.5L-355.649 981.417L-354.732 983.195L-352.955 982.277L-353.872 980.5ZM-341.276 973.999L-339.499 973.082L-340.416 971.305L-342.194 972.222L-341.276 973.999ZM-332.38 991.236L-344.976 997.737L-343.141 1001.29L-330.546 994.791L-332.38 991.236ZM-345.836 1000.43L-337.46 1016.66L-333.905 1014.83L-342.281 998.597L-345.836 1000.43ZM-336.6 1013.97L-359.974 1026.03L-358.139 1029.58L-334.765 1017.52L-336.6 1013.97ZM-357.279 1026.89L-365.655 1010.66L-369.21 1012.5L-360.834 1028.72L-357.279 1026.89ZM-368.35 1009.8L-413.16 1032.93L-411.326 1036.48L-366.515 1013.36L-368.35 1009.8ZM-410.466 1033.79L-418.529 1018.16L-422.083 1020L-414.02 1035.62L-410.466 1033.79ZM-418.328 1019.37L-407.615 946.823L-411.572 946.238L-422.285 1018.79L-418.328 1019.37ZM-408.676 948.308L-383.848 935.494L-385.683 931.939L-410.51 944.753L-408.676 948.308ZM-386.748 933.453L-395.699 1000.8L-391.734 1001.33L-382.783 933.98L-386.748 933.453ZM-392.799 1002.84L-375.602 993.966L-377.436 990.411L-394.634 999.287L-392.799 1002.84ZM-374.742 991.271L-382.18 976.859L-385.735 978.694L-378.296 993.106L-374.742 991.271ZM-383.04 979.554L-360.393 967.865L-362.227 964.311L-384.875 975.999L-383.04 979.554ZM-363.087 967.005L-355.649 981.417L-352.095 979.583L-359.533 965.171L-363.087 967.005ZM-352.955 982.277L-340.359 975.777L-342.194 972.222L-354.789 978.723L-352.955 982.277ZM-343.054 974.917L-333.24 993.931L-329.686 992.096L-339.499 973.082L-343.054 974.917ZM-267.707 976.519L-267.71 974.519L-267.707 976.519ZM-287.279 971.283L-288.32 972.991L-288.31 972.997L-288.3 973.003L-287.279 971.283ZM-305.344 936.283L-307.337 936.119L-307.338 936.13L-307.339 936.141L-305.344 936.283ZM-298.331 917.48L-296.709 918.65L-296.702 918.641L-298.331 917.48ZM-260.06 897.728L-260.057 899.728L-260.046 899.728L-260.035 899.728L-260.06 897.728ZM-240.671 902.904L-241.712 904.613L-241.7 904.62L-240.671 902.904ZM-222.607 937.905L-220.612 938.046L-220.612 938.046L-222.607 937.905ZM-229.557 956.829L-231.186 955.668L-229.557 956.829ZM-248.075 943.534L-246.152 944.084L-246.148 944.07L-246.144 944.057L-248.075 943.534ZM-259.951 920.523L-259.286 918.637L-259.951 920.523ZM-279.813 930.775L-281.736 930.224L-279.813 930.775ZM-267.937 953.785L-268.63 955.662L-268.616 955.666L-268.602 955.671L-267.937 953.785ZM-247.36 969.288C-254.131 972.783 -260.908 974.509 -267.71 974.519L-267.704 978.519C-260.201 978.508 -252.802 976.598 -245.525 972.842L-247.36 969.288ZM-267.71 974.519C-274.517 974.528 -280.685 972.872 -286.258 969.564L-288.3 973.003C-282.08 976.696 -275.2 978.529 -267.704 978.519L-267.71 974.519ZM-286.239 969.575C-291.716 966.239 -296.068 961.484 -299.289 955.243L-302.843 957.077C-299.314 963.916 -294.474 969.243 -288.32 972.991L-286.239 969.575ZM-299.289 955.243C-302.466 949.087 -303.803 942.826 -303.349 936.424L-307.339 936.141C-307.848 943.325 -306.334 950.315 -302.843 957.077L-299.289 955.243ZM-303.35 936.447C-302.818 929.985 -300.614 924.063 -296.709 918.65L-299.953 916.31C-304.273 922.298 -306.744 928.912 -307.337 936.119L-303.35 936.447ZM-296.702 918.641C-292.756 913.105 -287.385 908.56 -280.529 905.021L-282.363 901.467C-289.717 905.262 -295.602 910.207 -299.959 916.319L-296.702 918.641ZM-280.529 905.021C-273.672 901.482 -266.855 899.738 -260.057 899.728L-260.063 895.728C-267.569 895.739 -275.009 897.671 -282.363 901.467L-280.529 905.021ZM-260.035 899.728C-253.283 899.641 -247.192 901.275 -241.712 904.612L-239.631 901.196C-245.782 897.45 -252.617 895.632 -260.086 895.728L-260.035 899.728ZM-241.7 904.62C-236.274 907.872 -231.946 912.582 -228.724 918.824L-225.17 916.989C-228.699 910.151 -233.52 904.859 -239.643 901.189L-241.7 904.62ZM-228.724 918.824C-225.503 925.065 -224.148 931.367 -224.602 937.763L-220.612 938.046C-220.102 930.858 -221.64 923.828 -225.17 916.989L-228.724 918.824ZM-224.602 937.763C-225.056 944.17 -227.237 950.128 -231.186 955.668L-227.929 957.99C-223.575 951.883 -221.121 945.225 -220.612 938.046L-224.602 937.763ZM-231.186 955.668C-235.132 961.203 -240.503 965.749 -247.36 969.288L-245.525 972.842C-238.171 969.047 -232.286 964.102 -227.929 957.99L-231.186 955.668ZM-254.963 954.555C-250.475 952.238 -247.482 948.734 -246.152 944.084L-249.998 942.984C-251.001 946.492 -253.212 949.15 -256.798 951L-254.963 954.555ZM-246.144 944.057C-244.855 939.289 -245.72 934.228 -248.423 928.99L-251.977 930.825C-249.597 935.437 -249.045 939.46 -250.006 943.012L-246.144 944.057ZM-248.423 928.99C-251.088 923.827 -254.679 920.263 -259.286 918.637L-260.617 922.41C-257.222 923.607 -254.313 926.299 -251.977 930.825L-248.423 928.99ZM-259.286 918.637C-263.846 917.028 -268.436 917.438 -272.925 919.754L-271.09 923.309C-267.504 921.458 -264.057 921.195 -260.617 922.41L-259.286 918.637ZM-272.925 919.754C-277.413 922.07 -280.406 925.575 -281.736 930.224L-277.89 931.325C-276.887 927.817 -274.676 925.159 -271.09 923.309L-272.925 919.754ZM-281.736 930.224C-283.08 934.921 -282.255 939.913 -279.59 945.076L-276.036 943.242C-278.371 938.716 -278.88 934.786 -277.89 931.325L-281.736 930.224ZM-279.59 945.076C-276.887 950.314 -273.263 953.951 -268.63 955.662L-267.244 951.909C-270.696 950.635 -273.655 947.854 -276.036 943.242L-279.59 945.076ZM-268.602 955.671C-264.042 957.281 -259.452 956.871 -254.963 954.555L-256.798 951C-260.384 952.851 -263.831 953.113 -267.271 951.899L-268.602 955.671ZM-128.999 825.944L-127.222 825.027L-128.139 823.249L-129.916 824.167L-128.999 825.944ZM-95.1205 891.585L-94.2032 893.362L-92.426 892.445L-93.3432 890.668L-95.1205 891.585ZM-199.153 945.278L-200.931 946.195L-200.013 947.973L-198.236 947.055L-199.153 945.278ZM-233.032 879.637L-233.949 877.86L-235.726 878.777L-234.809 880.554L-233.032 879.637ZM-210.142 867.823L-208.365 866.906L-209.282 865.129L-211.059 866.046L-210.142 867.823ZM-185.765 915.056L-187.542 915.973L-186.625 917.75L-184.847 916.833L-185.765 915.056ZM-167.962 905.867L-167.044 907.645L-165.267 906.727L-166.184 904.95L-167.962 905.867ZM-192.339 858.635L-193.256 856.858L-195.034 857.775L-194.116 859.552L-192.339 858.635ZM-169.449 846.821L-167.672 845.904L-168.589 844.127L-170.367 845.044L-169.449 846.821ZM-145.072 894.054L-146.849 894.971L-145.932 896.748L-144.155 895.831L-145.072 894.054ZM-127.39 884.928L-126.473 886.705L-124.695 885.788L-125.613 884.011L-127.39 884.928ZM-151.767 837.695L-152.685 835.918L-154.462 836.835L-153.545 838.612L-151.767 837.695ZM-130.776 826.861L-96.8977 892.502L-93.3432 890.668L-127.222 825.027L-130.776 826.861ZM-96.0377 889.808L-200.071 943.501L-198.236 947.055L-94.2032 893.362L-96.0377 889.808ZM-197.376 944.361L-231.255 878.72L-234.809 880.554L-200.931 946.195L-197.376 944.361ZM-232.115 881.414L-209.225 869.6L-211.059 866.046L-233.949 877.86L-232.115 881.414ZM-211.919 868.74L-187.542 915.973L-183.987 914.139L-208.365 866.906L-211.919 868.74ZM-184.847 916.833L-167.044 907.645L-168.879 904.09L-186.682 913.279L-184.847 916.833ZM-166.184 904.95L-190.562 857.718L-194.116 859.552L-169.739 906.785L-166.184 904.95ZM-191.422 860.412L-168.532 848.598L-170.367 845.044L-193.256 856.858L-191.422 860.412ZM-171.227 847.738L-146.849 894.971L-143.295 893.136L-167.672 845.904L-171.227 847.738ZM-144.155 895.831L-126.473 886.705L-128.307 883.151L-145.989 892.276L-144.155 895.831ZM-125.613 884.011L-149.99 836.778L-153.545 838.612L-129.167 885.845L-125.613 884.011ZM-150.85 839.472L-128.082 827.721L-129.916 824.167L-152.685 835.918L-150.85 839.472ZM-45.881 783.046L-44.1038 782.128L-45.021 780.351L-46.7983 781.268L-45.881 783.046ZM-12.0026 848.687L-11.0853 850.464L-9.30805 849.547L-10.2253 847.77L-12.0026 848.687ZM-33.9234 860L-35.7006 860.918L-34.7834 862.695L-33.0061 861.778L-33.9234 860ZM-37.4862 853.097L-35.709 852.18L-38.0285 847.686L-39.4101 852.551L-37.4862 853.097ZM-43.1433 863.532L-44.6603 862.229L-44.6659 862.235L-44.6713 862.242L-43.1433 863.532ZM-77.0812 874.146L-77.6893 876.052L-77.6817 876.054L-77.674 876.056L-77.0812 874.146ZM-115.156 818.799L-116.073 817.022L-117.85 817.939L-116.933 819.716L-115.156 818.799ZM-92.1448 806.923L-90.3675 806.006L-91.2848 804.228L-93.062 805.146L-92.1448 806.923ZM-49.9056 840.029L-47.9719 840.54L-47.9678 840.524L-47.964 840.509L-49.9056 840.029ZM-68.8918 794.922L-69.809 793.145L-71.5863 794.062L-70.669 795.839L-68.8918 794.922ZM-47.6583 783.963L-13.7798 849.604L-10.2253 847.77L-44.1038 782.128L-47.6583 783.963ZM-12.9198 846.91L-34.8406 858.223L-33.0061 861.778L-11.0853 850.464L-12.9198 846.91ZM-32.1461 859.083L-35.709 852.18L-39.2635 854.015L-35.7006 860.918L-32.1461 859.083ZM-39.4101 852.551C-40.417 856.097 -42.1601 859.318 -44.6603 862.229L-41.6262 864.835C-38.7611 861.5 -36.7328 857.765 -35.5623 853.644L-39.4101 852.551ZM-44.6713 862.242C-47.0938 865.11 -50.0804 867.469 -53.6555 869.314L-51.821 872.869C-47.8066 870.797 -44.3966 868.116 -41.6152 864.822L-44.6713 862.242ZM-53.6555 869.314C-61.8467 873.542 -69.4169 874.431 -76.4883 872.236L-77.674 876.056C-69.4051 878.623 -60.7466 877.475 -51.821 872.869L-53.6555 869.314ZM-76.4731 872.241C-83.379 870.037 -89.4131 864.316 -94.4389 854.578L-97.9934 856.413C-92.6848 866.698 -85.9623 873.411 -77.6893 876.052L-76.4731 872.241ZM-94.4389 854.578L-113.378 817.882L-116.933 819.716L-97.9934 856.413L-94.4389 854.578ZM-114.238 820.576L-91.2275 808.7L-93.062 805.146L-116.073 817.022L-114.238 820.576ZM-93.922 807.84L-76.9203 840.782L-73.3658 838.947L-90.3675 806.006L-93.922 807.84ZM-76.9203 840.782C-74.3889 845.687 -71.3764 849.204 -67.7426 850.885C-63.999 852.617 -59.9751 852.231 -55.8916 850.124L-57.7261 846.569C-60.9899 848.254 -63.6953 848.35 -66.0631 847.255C-68.5408 846.109 -71.0216 843.489 -73.3658 838.947L-76.9203 840.782ZM-55.8916 850.124C-51.7992 848.012 -49.0973 844.802 -47.9719 840.54L-51.8393 839.519C-52.6517 842.596 -54.5519 844.931 -57.7261 846.569L-55.8916 850.124ZM-47.964 840.509C-46.8725 836.094 -47.9826 831.074 -50.8004 825.614L-54.3549 827.449C-51.7554 832.485 -51.0841 836.463 -51.8471 839.549L-47.964 840.509ZM-50.8004 825.614L-67.1145 794.004L-70.669 795.839L-54.3549 827.449L-50.8004 825.614ZM-67.9745 796.699L-44.9637 784.823L-46.7983 781.268L-69.809 793.145L-67.9745 796.699ZM31.6677 755.138L31.6389 757.138L31.6525 757.138L31.6659 757.138L31.6677 755.138ZM47.7634 760.174L46.6179 761.813L46.6352 761.825L46.6527 761.837L47.7634 760.174ZM63.3626 793.072L61.3768 792.834L61.3759 792.842L63.3626 793.072ZM55.8498 810.907L57.4297 812.133L57.4373 812.123L55.8498 810.907ZM5.78094 828.006L6.43268 826.115L5.78094 828.006ZM-9.73167 735.248L-8.50003 736.824L-8.49861 736.823L-9.73167 735.248ZM18.9947 712.753L20.6007 711.561L19.3775 709.913L17.7617 711.179L18.9947 712.753ZM32.0821 730.385L33.3129 731.961L34.8515 730.76L33.6881 729.193L32.0821 730.385ZM7.15697 749.844L8.38059 751.426L8.38773 751.42L7.15697 749.844ZM-5.09472 764.142L-3.23407 764.876L-3.23278 764.873L-5.09472 764.142ZM-4.53229 779.496L-6.40577 780.196L-4.49383 785.312L-2.64972 780.171L-4.53229 779.496ZM37.7032 798.034L35.7711 797.517L35.7667 797.533L35.7627 797.55L37.7032 798.034ZM27.5146 778.293L26.9065 780.198L26.9227 780.203L26.9389 780.208L27.5146 778.293ZM7.8949 788.419L5.99984 787.78L5.9946 787.795L5.98961 787.811L7.8949 788.419ZM18.2671 808.218L17.6288 810.114L18.2671 808.218ZM14.0553 761.724C20.2 758.553 26.0532 757.057 31.6389 757.138L31.6965 753.138C25.3329 753.046 18.833 754.757 12.2208 758.169L14.0553 761.724ZM31.6659 757.138C37.1958 757.143 42.1608 758.699 46.6179 761.813L48.9089 758.534C43.7712 754.944 38.0057 753.143 31.6695 753.138L31.6659 757.138ZM46.6527 761.837C51.1625 764.848 54.9321 769.212 57.9289 775.019L61.4834 773.184C58.2295 766.879 54.0373 761.958 48.874 758.51L46.6527 761.837ZM57.9289 775.019C60.9694 780.91 62.0963 786.833 61.3768 792.834L65.3484 793.311C66.1709 786.451 64.8601 779.727 61.4834 773.184L57.9289 775.019ZM61.3759 792.842C60.69 798.754 58.3435 804.364 54.2622 809.69L57.4373 812.123C61.9093 806.287 64.5714 800.007 65.3493 793.303L61.3759 792.842ZM54.2699 809.68C50.2345 814.879 44.8429 819.245 38.0397 822.756L39.8742 826.31C47.1197 822.571 52.9899 817.852 57.4296 812.133L54.2699 809.68ZM38.0397 822.756C26.8938 828.508 16.4032 829.552 6.43268 826.115L5.12921 829.897C16.3018 833.748 27.9286 832.476 39.8742 826.31L38.0397 822.756ZM6.43268 826.115C-3.47244 822.701 -12.139 814.183 -19.4253 800.065L-22.9798 801.9C-15.4313 816.526 -6.10885 826.023 5.12921 829.897L6.43268 826.115ZM-19.4253 800.065C-26.2561 786.83 -28.6168 775.061 -26.8032 764.668C-24.995 754.306 -18.9865 745.02 -8.50003 736.824L-10.9633 733.672C-22.0421 742.332 -28.7282 752.43 -30.7436 763.98C-32.7536 775.498 -30.0672 788.168 -22.9798 801.9L-19.4253 800.065ZM-8.49861 736.823L20.2278 714.328L17.7617 711.179L-10.9647 733.673L-8.49861 736.823ZM17.3888 713.945L30.4762 731.577L33.6881 729.193L20.6007 711.561L17.3888 713.945ZM30.8514 728.808L5.92622 748.267L8.38773 751.42L33.3129 731.961L30.8514 728.808ZM5.93337 748.262C-0.550243 753.276 -4.95639 758.312 -6.9566 763.412L-3.23278 764.873C-1.6127 760.742 2.14898 756.246 8.38058 751.426L5.93337 748.262ZM-6.95537 763.409C-8.95263 768.475 -8.67661 774.119 -6.40577 780.196L-2.65882 778.796C-4.6801 773.387 -4.77898 768.795 -3.23407 764.876L-6.95537 763.409ZM-2.64972 780.171C0.22501 772.156 5.7445 766.013 14.0553 761.724L12.2208 758.169C3.09185 762.881 -3.16888 769.771 -6.41487 778.821L-2.64972 780.171ZM30.9944 808.808C35.5324 806.466 38.5151 803.041 39.6437 798.518L35.7627 797.55C34.9586 800.772 32.8572 803.345 29.1599 805.254L30.9944 808.808ZM39.6352 798.55C40.824 794.106 40.2338 789.661 37.9882 785.31L34.4336 787.145C36.2717 790.706 36.6765 794.132 35.7711 797.517L39.6352 798.55ZM37.9882 785.31C35.6377 780.756 32.362 777.662 28.0903 776.378L26.9389 780.208C29.9285 781.107 32.4503 783.302 34.4336 787.145L37.9882 785.31ZM28.1227 776.388C23.8556 775.026 19.4512 775.603 15.0334 777.883L16.868 781.437C20.5242 779.55 23.829 779.216 26.9065 780.198L28.1227 776.388ZM15.0334 777.883C10.5444 780.2 7.4483 783.486 5.99984 787.78L9.79001 789.058C10.8471 785.924 13.1216 783.371 16.868 781.437L15.0334 777.883ZM5.98961 787.811C4.62133 792.098 5.25811 796.586 7.60991 801.142L11.1644 799.308C9.18244 795.468 8.8244 792.084 9.80024 789.027L5.98961 787.811ZM7.60991 801.142C9.90003 805.58 13.2384 808.635 17.6288 810.114L18.9053 806.323C15.6229 805.218 13.0414 802.944 11.1644 799.308L7.60991 801.142ZM17.6288 810.114C22.0433 811.6 26.5408 811.107 30.9944 808.808L29.1599 805.254C25.5395 807.122 22.1636 807.42 18.9053 806.323L17.6288 810.114ZM104.341 759.04L105.328 757.3L104.386 756.766L103.424 757.263L104.341 759.04ZM96.5899 763.04L95.6726 761.263L93.8954 762.18L94.8126 763.958L96.5899 763.04ZM108.654 786.414L109.571 788.192L111.348 787.274L110.431 785.497L108.654 786.414ZM85.6428 798.291L83.8656 799.208L84.7829 800.985L86.5601 800.068L85.6428 798.291ZM51.7644 732.649L50.8471 730.872L49.0699 731.789L49.9871 733.567L51.7644 732.649ZM74.7752 720.773L76.5524 719.856L75.6351 718.079L73.8579 718.996L74.7752 720.773ZM87.2764 744.995L85.4992 745.912L86.4164 747.689L88.1937 746.772L87.2764 744.995ZM95.5118 740.745L96.4291 742.522L97.3816 742.03L97.4997 740.965L95.5118 740.745ZM99.1182 708.209L98.2009 706.432L97.2484 706.924L97.1303 707.989L99.1182 708.209ZM123.461 695.646L125.443 695.913L125.957 692.107L122.544 693.868L123.461 695.646ZM117.671 738.51L115.689 738.242L115.503 739.618L116.727 740.273L117.671 738.51ZM158.793 760.537L159.71 762.314L163.09 760.57L159.737 758.774L158.793 760.537ZM131.664 774.538L130.678 776.278L131.619 776.812L132.582 776.315L131.664 774.538ZM103.424 757.263L95.6726 761.263L97.5071 764.818L105.258 760.817L103.424 757.263ZM94.8126 763.958L106.876 787.332L110.431 785.497L98.3671 762.123L94.8126 763.958ZM107.736 784.637L84.7256 796.513L86.5601 800.068L109.571 788.192L107.736 784.637ZM87.4201 797.373L53.5416 731.732L49.9871 733.567L83.8656 799.208L87.4201 797.373ZM52.6817 734.427L75.6924 722.55L73.8579 718.996L50.8471 730.872L52.6817 734.427ZM72.9979 721.69L85.4992 745.912L89.0537 744.078L76.5524 719.856L72.9979 721.69ZM88.1937 746.772L96.4291 742.522L94.5946 738.967L86.3592 743.218L88.1937 746.772ZM97.4997 740.965L101.106 708.43L97.1303 707.989L93.524 740.524L97.4997 740.965ZM100.035 709.987L124.378 697.423L122.544 693.868L98.2009 706.432L100.035 709.987ZM121.479 695.378L115.689 738.242L119.653 738.778L125.443 695.913L121.479 695.378ZM116.727 740.273L157.849 762.3L159.737 758.774L118.615 736.747L116.727 740.273ZM157.876 758.759L130.747 772.761L132.582 776.315L159.71 762.314L157.876 758.759ZM132.651 772.799L105.328 757.3L103.354 760.78L130.678 776.278L132.651 772.799ZM199.683 656.306L201.461 655.389L200.543 653.612L198.766 654.529L199.683 656.306ZM233.562 721.947L234.479 723.725L236.256 722.807L235.339 721.03L233.562 721.947ZM211.641 733.261L209.864 734.178L210.781 735.956L212.558 735.038L211.641 733.261ZM208.266 726.721L210.043 725.804L207.528 720.931L206.315 726.279L208.266 726.721ZM174.351 748.673L174.248 750.67L174.267 750.671L174.287 750.672L174.351 748.673ZM156.536 742.683L155.417 744.341L155.427 744.348L155.437 744.354L156.536 742.683ZM138.097 706.956L136.098 706.884L136.098 706.895L138.097 706.956ZM143.598 689.087L141.931 687.981L141.924 687.993L143.598 689.087ZM179.61 673.874L178.985 675.774L183.631 677.303L181.388 672.957L179.61 673.874ZM176.673 668.182L175.755 666.405L173.978 667.322L174.895 669.1L176.673 668.182ZM196.038 714.321L197.961 714.871L197.965 714.857L197.968 714.843L196.038 714.321ZM184.162 691.31L184.827 689.424L184.162 691.31ZM164.3 701.561L162.377 701.011L164.3 701.561ZM176.176 724.572L175.483 726.448L175.497 726.453L175.51 726.458L176.176 724.572ZM197.906 657.223L231.785 722.865L235.339 721.03L201.461 655.389L197.906 657.223ZM232.644 720.17L210.724 731.484L212.558 735.038L234.479 723.725L232.644 720.17ZM213.418 732.344L210.043 725.804L206.488 727.638L209.864 734.178L213.418 732.344ZM206.315 726.279C204.829 732.836 200.192 738.3 191.909 742.575L193.743 746.129C202.738 741.487 208.395 735.197 210.216 727.163L206.315 726.279ZM191.909 742.575C186.218 745.512 180.396 746.865 174.415 746.674L174.287 750.672C180.99 750.886 187.484 749.36 193.743 746.129L191.909 742.575ZM174.454 746.675C168.527 746.369 162.93 744.496 157.636 741.013L155.437 744.354C161.29 748.205 167.569 750.325 174.248 750.67L174.454 746.675ZM157.656 741.026C152.48 737.531 148.194 732.559 144.824 726.03L141.269 727.864C144.9 734.899 149.607 740.418 155.417 744.341L157.656 741.026ZM144.824 726.03C141.454 719.499 139.908 713.17 140.096 707.017L136.098 706.895C135.885 713.832 137.639 720.83 141.269 727.864L144.824 726.03ZM140.096 707.028C140.323 700.7 142.057 695.102 145.272 690.181L141.924 687.993C138.284 693.563 136.35 699.877 136.098 706.884L140.096 707.028ZM145.264 690.193C148.573 685.207 153.049 681.245 158.74 678.308L156.905 674.754C150.646 677.984 145.64 682.393 141.931 687.981L145.264 690.193ZM158.74 678.308C166.127 674.495 172.83 673.749 178.985 675.774L180.236 671.975C172.842 669.541 165.02 670.566 156.905 674.754L158.74 678.308ZM181.388 672.957L178.45 667.265L174.895 669.1L177.833 674.792L181.388 672.957ZM177.59 669.96L200.601 658.083L198.766 654.529L175.755 666.405L177.59 669.96ZM189.149 725.342C193.637 723.025 196.63 719.521 197.961 714.871L194.115 713.771C193.111 717.279 190.9 719.936 187.315 721.787L189.149 725.342ZM197.968 714.843C199.258 710.076 198.393 705.015 195.69 699.777L192.135 701.612C194.516 706.224 195.068 710.247 194.107 713.799L197.968 714.843ZM195.69 699.777C193.025 694.614 189.433 691.05 184.827 689.424L183.496 693.196C186.891 694.394 189.8 697.086 192.135 701.612L195.69 699.777ZM184.827 689.424C180.267 687.815 175.676 688.224 171.188 690.541L173.023 694.095C176.608 692.245 180.055 691.982 183.496 693.196L184.827 689.424ZM171.188 690.541C166.7 692.857 163.707 696.362 162.377 701.011L166.222 702.111C167.226 698.604 169.437 695.946 173.023 694.095L171.188 690.541ZM162.377 701.011C161.033 705.707 161.858 710.7 164.522 715.863L168.077 714.029C165.741 709.503 165.232 705.572 166.222 702.111L162.377 701.011ZM164.522 715.863C167.226 721.101 170.85 724.738 175.483 726.448L176.869 722.696C173.417 721.422 170.457 718.641 168.077 714.029L164.522 715.863ZM175.51 726.458C180.071 728.067 184.661 727.658 189.149 725.342L187.315 721.787C183.729 723.638 180.282 723.9 176.841 722.686L175.51 726.458Z" fill="black" fill-opacity="0.15"/>
</svg>
