<svg width="856" height="513" viewBox="0 0 856 513" fill="none" xmlns="http://www.w3.org/2000/svg">
<path d="M122.245 452.852L109.65 459.353L118.026 475.582L94.6514 487.645L86.2756 471.417L41.4651 494.544L33.4018 478.921L44.1149 406.369L68.9423 393.555L59.9912 460.903L77.1887 452.028L69.7505 437.616L92.3979 425.927L99.8362 440.339L112.432 433.838L122.245 452.852ZM173.787 448.95C166.52 452.7 159.165 454.298 151.722 453.743C144.278 453.188 137.233 450.434 130.586 445.48C123.979 440.404 118.321 433.304 113.612 424.18C108.903 415.057 106.414 406.372 106.146 398.126C105.917 389.758 107.733 382.38 111.592 375.991C115.452 369.602 121.016 364.532 128.282 360.782C135.468 357.073 142.783 355.496 150.226 356.051C157.67 356.606 164.696 359.422 171.303 364.498C177.95 369.452 183.627 376.49 188.336 385.614C193.045 394.737 195.514 403.483 195.743 411.852C196.011 420.097 194.215 427.415 190.355 433.803C186.495 440.192 180.973 445.241 173.787 448.95ZM163.661 429.33C167.698 427.246 169.887 423.663 170.228 418.579C170.608 413.372 168.611 406.53 164.235 398.053C159.86 389.575 155.461 384.024 151.039 381.398C146.655 378.65 142.445 378.318 138.408 380.402C134.29 382.527 132.041 386.193 131.661 391.399C131.32 396.483 133.337 403.264 137.712 411.742C142.088 420.219 146.467 425.832 150.851 428.58C155.273 431.205 159.543 431.455 163.661 429.33ZM289.953 366.296L277.358 372.796L285.734 389.025L262.359 401.089L253.984 384.86L209.173 407.988L201.11 392.364L211.823 319.813L236.65 306.999L227.699 374.347L244.897 365.471L237.459 351.059L260.106 339.37L267.544 353.782L280.14 347.282L289.953 366.296ZM374.974 344.347C367.949 347.973 360.861 349.79 353.709 349.801C346.557 349.811 340.033 348.066 334.137 344.566C328.321 341.023 323.725 335.982 320.35 329.442C317.016 322.983 315.59 316.357 316.072 309.565C316.635 302.731 318.973 296.463 323.085 290.762C327.237 284.938 332.865 280.193 339.97 276.526C347.075 272.859 354.204 271.02 361.356 271.01C368.466 270.919 374.929 272.644 380.745 276.187C386.519 279.648 391.094 284.649 394.469 291.189C397.844 297.728 399.291 304.395 398.809 311.187C398.327 317.98 396.01 324.288 391.859 330.111C387.707 335.935 382.079 340.68 374.974 344.347ZM365.535 326.06C369.572 323.976 372.174 320.895 373.341 316.816C374.466 312.657 373.758 308.115 371.216 303.19C368.716 298.345 365.465 295.217 361.465 293.806C357.464 292.394 353.446 292.73 349.409 294.814C345.372 296.897 342.77 299.978 341.603 304.057C340.436 308.135 341.103 312.597 343.603 317.441C346.145 322.366 349.437 325.575 353.479 327.068C357.48 328.479 361.498 328.143 365.535 326.06ZM492.417 199.226L526.296 264.867L422.263 318.56L388.384 252.919L411.274 241.105L435.651 288.338L453.454 279.15L429.077 231.917L451.967 220.103L476.344 267.336L494.026 258.21L469.649 210.977L492.417 199.226ZM575.535 156.328L609.413 221.969L587.493 233.283L583.93 226.379C582.841 230.213 580.955 233.692 578.273 236.814C575.671 239.895 572.472 242.415 568.678 244.374C560.119 248.791 552.005 249.809 544.335 247.428C536.745 245.006 530.367 238.789 525.2 228.778L506.26 192.081L529.271 180.205L546.273 213.147C551.148 222.593 557.26 225.421 564.607 221.629C568.24 219.753 570.542 216.981 571.51 213.311C572.438 209.561 571.547 205.062 568.838 199.814L552.524 168.204L575.535 156.328ZM634.554 133.229C640.932 129.937 647.109 128.334 653.084 128.42C659.017 128.425 664.382 130.104 669.179 133.456C674.016 136.686 677.997 141.328 681.122 147.384C684.331 153.6 685.55 159.924 684.779 166.355C684.047 172.663 681.542 178.607 677.266 184.189C673.028 189.648 667.397 194.19 660.373 197.815C648.827 203.774 637.769 204.932 627.197 201.288C616.625 197.644 607.631 188.636 600.213 174.265C586.295 147.298 590.119 125.386 611.684 108.53L640.411 86.0357L653.498 103.667L628.573 123.126C622.215 128.043 618.131 132.809 616.321 137.425C614.55 141.917 614.738 147.035 616.884 152.778C619.944 144.246 625.834 137.729 634.554 133.229ZM651.493 180.313C655.611 178.188 658.153 175.189 659.119 171.316C660.166 167.401 659.669 163.466 657.627 159.51C655.46 155.311 652.561 152.666 648.931 151.575C645.258 150.403 641.404 150.859 637.367 152.942C633.249 155.068 630.564 157.987 629.311 161.701C628.139 165.373 628.636 169.309 630.803 173.507C632.887 177.544 635.847 180.209 639.683 181.501C643.519 182.792 647.456 182.397 651.493 180.313ZM725.757 132.322L718.006 136.322L730.07 159.697L707.059 171.573L673.18 105.932L696.191 94.0553L708.692 118.277L716.928 114.027L720.534 81.4916L744.877 68.9278L739.087 111.792L780.209 133.819L753.08 147.82L725.757 132.322ZM821.099 29.5883L854.978 95.2296L833.057 106.543L829.682 100.003C828.028 107.299 822.881 113.175 814.242 117.634C808.267 120.718 802.109 122.158 795.767 121.955C789.464 121.629 783.526 119.633 777.952 115.966C772.46 112.257 767.963 107.011 764.463 100.229C760.962 93.4471 759.312 86.7835 759.513 80.2384C759.753 73.5709 761.586 67.6145 765.014 62.3691C768.522 57.082 773.264 52.8967 779.239 49.813C786.99 45.8126 794.252 44.9272 801.026 47.1567L798.089 41.4645L821.099 29.5883ZM809.648 96.8465C813.685 94.763 816.287 91.6819 817.454 87.6033C818.579 83.4439 817.871 78.9017 815.329 73.9766C812.828 69.1322 809.578 66.0042 805.578 64.5925C801.577 63.1808 797.558 63.5167 793.521 65.6003C789.484 67.6838 786.882 70.7649 785.716 74.8435C784.549 78.9221 785.215 83.3836 787.716 88.228C790.258 93.1531 793.55 96.3619 797.592 97.8543C801.592 99.266 805.611 98.93 809.648 96.8465Z" fill="black" fill-opacity="0.15"/>
</svg>
