<svg width="30" height="30" viewBox="0 0 30 30" fill="none" xmlns="http://www.w3.org/2000/svg">
<path d="M9.29289 19.2929C8.90237 19.6834 8.90237 20.3166 9.29289 20.7071C9.68342 21.0976 10.3166 21.0976 10.7071 20.7071L9.29289 19.2929ZM20 10H21C21 9.44772 20.5523 9 20 9V10ZM19 16.0714C19 16.6237 19.4477 17.0714 20 17.0714C20.5523 17.0714 21 16.6237 21 16.0714H19ZM13.9286 9C13.3763 9 12.9286 9.44772 12.9286 10C12.9286 10.5523 13.3763 11 13.9286 11V9ZM10.7071 20.7071L20.7071 10.7071L19.2929 9.29289L9.29289 19.2929L10.7071 20.7071ZM19 10V16.0714H21V10H19ZM13.9286 11H20V9H13.9286V11Z" fill="#F74C3C"/>
<circle cx="15" cy="15" r="14" stroke="#F74C3C" stroke-width="2"/>
</svg>
