<svg width="161" height="105" viewBox="0 0 161 105" fill="none" xmlns="http://www.w3.org/2000/svg">
<path fill-rule="evenodd" clip-rule="evenodd" d="M78.0922 0.0241326C78.7585 -0.116373 79.3245 0.4598 79.2559 1.13733L77.7587 15.9138C77.586 17.6185 77.0128 19.2583 76.086 20.6994L42.7841 72.4827C41.8859 73.8794 40.6797 75.0518 39.2582 75.9101L18.4268 88.4864C18.2459 88.5956 18.0472 88.4014 18.1608 88.2232L71.4279 4.65662C73.0453 2.11908 75.4801 0.57492 78.0922 0.0241326ZM82.4765 0.0209622C81.8172 -0.117066 81.2537 0.446766 81.31 1.11805L82.5504 15.9048C82.6939 17.6153 83.2403 19.2676 84.145 20.7265L116.162 72.3578C117.077 73.8348 118.334 75.0708 119.826 75.9621L141.614 88.979C142.173 89.313 142.773 88.7723 142.423 88.2232L89.1559 4.65662C87.5353 2.1142 85.0943 0.568978 82.4765 0.0209622ZM143.962 92.2451C143.905 91.8864 143.654 91.5946 143.316 91.4612C136.422 88.738 125.918 84.4947 119.66 81.8059C118.264 81.2063 116.771 80.8891 115.252 80.8891H45.1728C43.8271 80.8891 42.493 81.1389 41.2384 81.6258L17.3832 90.8843C17.064 91.0082 16.8181 91.2747 16.7433 91.6089C15.346 97.8539 20.0195 104.385 27.0248 104.385H133.559C140.327 104.385 144.918 98.2895 143.962 92.2451Z" fill="#F74C3C"/>
<mask id="path-2-outside-1_27_890" maskUnits="userSpaceOnUse" x="29.8496" y="86.7947" width="100" height="12" fill="black">
<rect fill="white" x="29.8496" y="86.7947" width="100" height="12"/>
<path d="M34.9048 94.1103C34.8395 94.0003 34.721 93.9328 34.5931 93.9328H33.9233C33.7231 93.9328 33.5609 94.0951 33.5609 94.2953V97.2587C33.5609 97.4589 33.3986 97.6212 33.1984 97.6212H31.2121C31.0119 97.6212 30.8496 97.4589 30.8496 97.2587V88.3498C30.8496 88.1496 31.0119 87.9874 31.2121 87.9874H33.1984C33.3986 87.9874 33.5609 88.1496 33.5609 88.3498V91.3683C33.5609 91.5685 33.7231 91.7308 33.9233 91.7308H34.6655C34.7915 91.7308 34.9085 91.6654 34.9744 91.558L37.0606 88.1602C37.1265 88.0528 37.2435 87.9874 37.3695 87.9874H39.3625C39.6499 87.9874 39.823 88.3058 39.6667 88.5469L37.1393 92.4478C37.0635 92.5647 37.0615 92.7148 37.1341 92.8337L39.7202 97.0699C39.8677 97.3114 39.6939 97.6212 39.4109 97.6212H37.1942C37.0662 97.6212 36.9477 97.5537 36.8824 97.4437L34.9048 94.1103Z"/>
<path d="M45.6116 97.8139C44.5931 97.8139 43.6756 97.5983 42.859 97.167C42.0516 96.7358 41.414 96.1394 40.946 95.3779C40.4873 94.6164 40.2579 93.7585 40.2579 92.8043C40.2579 91.8501 40.4873 90.9922 40.946 90.2307C41.414 89.4691 42.0516 88.8728 42.859 88.4415C43.6756 88.0103 44.5931 87.7947 45.6116 87.7947C46.63 87.7947 47.5429 88.0103 48.3503 88.4415C49.1669 88.8728 49.8046 89.4691 50.2633 90.2307C50.7313 90.9922 50.9652 91.8501 50.9652 92.8043C50.9652 93.7585 50.7313 94.6164 50.2633 95.3779C49.8046 96.1394 49.1669 96.7358 48.3503 97.167C47.5429 97.5983 46.63 97.8139 45.6116 97.8139ZM45.6116 95.5568C46.0978 95.5568 46.5383 95.4421 46.9328 95.2128C47.3273 94.9834 47.6393 94.6622 47.8686 94.2494C48.098 93.8273 48.2127 93.3456 48.2127 92.8043C48.2127 92.263 48.098 91.7858 47.8686 91.373C47.6393 90.9509 47.3273 90.6252 46.9328 90.3958C46.5383 90.1664 46.0978 90.0518 45.6116 90.0518C45.1253 90.0518 44.6849 90.1664 44.2904 90.3958C43.8958 90.6252 43.5839 90.9509 43.3545 91.373C43.1251 91.7858 43.0104 92.263 43.0104 92.8043C43.0104 93.3456 43.1251 93.8273 43.3545 94.2494C43.5839 94.6622 43.8958 94.9834 44.2904 95.2128C44.6849 95.4421 45.1253 95.5568 45.6116 95.5568Z"/>
<path d="M61.468 97.6212C61.2682 97.6212 61.1061 97.4595 61.1055 97.2597L61.0963 93.8245C61.0953 93.4568 60.6107 93.3241 60.4224 93.6399L58.7209 96.4947C58.6555 96.6044 58.5372 96.6716 58.4095 96.6716H57.6074C57.4813 96.6716 57.3642 96.606 57.2983 96.4984L55.5987 93.7223C55.4076 93.4102 54.9271 93.5457 54.9271 93.9116V97.2587C54.9271 97.4589 54.7648 97.6212 54.5646 97.6212H52.7847C52.5845 97.6212 52.4223 97.4589 52.4223 97.2587V88.3498C52.4223 88.1496 52.5845 87.9874 52.7847 87.9874H54.4619C54.5884 87.9874 54.7057 88.0533 54.7715 88.1613L57.7378 93.0327C57.8799 93.2662 58.2194 93.2643 58.359 93.0293L61.2489 88.1647C61.3142 88.0547 61.4326 87.9874 61.5605 87.9874H63.2361C63.4359 87.9874 63.598 88.149 63.5986 88.3488L63.624 97.2577C63.6246 97.4583 63.4621 97.6212 63.2616 97.6212H61.468Z"/>
<path d="M74.2024 87.9874C74.4026 87.9874 74.5649 88.1496 74.5649 88.3498V97.2587C74.5649 97.4589 74.4026 97.6212 74.2024 97.6212H72.1953C72.0446 97.6212 71.9224 97.4991 71.9224 97.3484C71.9224 97.0852 71.5552 96.951 71.348 97.1132C71.1626 97.2583 70.9596 97.3817 70.7389 97.4836C70.2617 97.7038 69.725 97.8139 69.1286 97.8139C67.9909 97.8139 67.1055 97.4515 66.4724 96.7266C65.8393 95.9926 65.5228 94.9513 65.5228 93.6025V88.3498C65.5228 88.1496 65.6851 87.9874 65.8853 87.9874H67.8853C68.0855 87.9874 68.2478 88.1496 68.2478 88.3498V93.5199C68.2478 94.1989 68.3992 94.7081 68.702 95.0476C69.0139 95.3871 69.436 95.5568 69.9681 95.5568C70.5278 95.5568 70.9774 95.3733 71.3169 95.0063C71.6655 94.6393 71.8399 94.098 71.8399 93.3823V88.3498C71.8399 88.1496 72.0021 87.9874 72.2023 87.9874H74.2024Z"/>
<path d="M81.2537 97.8139C80.2445 97.8139 79.3361 97.6029 78.5287 97.1808C77.7305 96.7496 77.102 96.1532 76.6432 95.3917C76.1845 94.6301 75.9551 93.7677 75.9551 92.8043C75.9551 91.8409 76.1845 90.9784 76.6432 90.2169C77.102 89.4554 77.7305 88.8636 78.5287 88.4415C79.3361 88.0103 80.2445 87.7947 81.2537 87.7947C82.1346 87.7947 82.9282 87.9507 83.6347 88.2626C84.2338 88.5271 84.7471 88.8906 85.1746 89.3531C85.3045 89.4936 85.2858 89.7114 85.1438 89.8398L83.9428 90.9264C83.7898 91.0648 83.5537 91.046 83.407 90.9009C82.8352 90.3348 82.1634 90.0518 81.3914 90.0518C80.8684 90.0518 80.4005 90.1664 79.9876 90.3958C79.5839 90.6252 79.2673 90.9509 79.038 91.373C78.8178 91.7858 78.7077 92.263 78.7077 92.8043C78.7077 93.3456 78.8178 93.8273 79.038 94.2494C79.2673 94.6622 79.5839 94.9834 79.9876 95.2128C80.4005 95.4421 80.8684 95.5568 81.3914 95.5568C82.1634 95.5568 82.8352 95.2738 83.407 94.7077C83.5537 94.5625 83.7898 94.5438 83.9428 94.6822L85.1438 95.7688C85.2858 95.8972 85.3045 96.115 85.1746 96.2555C84.7471 96.718 84.2338 97.0814 83.6347 97.346C82.9282 97.6579 82.1346 97.8139 81.2537 97.8139Z"/>
<path d="M91.1188 97.8139C90.1095 97.8139 89.2012 97.6029 88.3938 97.1808C87.5955 96.7496 86.967 96.1532 86.5083 95.3917C86.0495 94.6301 85.8201 93.7677 85.8201 92.8043C85.8201 91.8409 86.0495 90.9784 86.5083 90.2169C86.967 89.4554 87.5955 88.8636 88.3938 88.4415C89.2012 88.0103 90.1095 87.7947 91.1188 87.7947C91.9996 87.7947 92.7932 87.9507 93.4997 88.2626C94.0988 88.5271 94.6121 88.8906 95.0396 89.3531C95.1695 89.4936 95.1508 89.7114 95.0089 89.8398L93.8079 90.9264C93.6549 91.0648 93.4187 91.046 93.2721 90.9009C92.7003 90.3348 92.0284 90.0518 91.2564 90.0518C90.7334 90.0518 90.2655 90.1664 89.8526 90.3958C89.4489 90.6252 89.1324 90.9509 88.903 91.373C88.6828 91.7858 88.5727 92.263 88.5727 92.8043C88.5727 93.3456 88.6828 93.8273 88.903 94.2494C89.1324 94.6622 89.4489 94.9834 89.8526 95.2128C90.2655 95.4421 90.7334 95.5568 91.2564 95.5568C92.0284 95.5568 92.7003 95.2738 93.2721 94.7077C93.4187 94.5625 93.6549 94.5438 93.8079 94.6822L95.0089 95.7688C95.1508 95.8972 95.1695 96.115 95.0396 96.2555C94.6121 96.718 94.0988 97.0814 93.4997 97.346C92.7932 97.6579 91.9996 97.8139 91.1188 97.8139Z"/>
<path d="M100.924 87.7947C101.832 87.7947 102.63 87.9782 103.319 88.3452C104.016 88.703 104.553 89.2306 104.929 89.9279C105.314 90.616 105.507 91.4464 105.507 92.4189V97.2587C105.507 97.4589 105.345 97.6212 105.144 97.6212H103.144C102.944 97.6212 102.782 97.4589 102.782 97.2587V95.8505C102.782 95.6503 102.62 95.488 102.419 95.488H99.3871C99.187 95.488 99.0247 95.6503 99.0247 95.8505V97.2587C99.0247 97.4589 98.8624 97.6212 98.6622 97.6212H96.7034C96.5032 97.6212 96.341 97.4589 96.341 97.2587V92.4189C96.341 91.4464 96.529 90.616 96.9052 89.9279C97.2906 89.2306 97.8273 88.703 98.5154 88.3452C99.2128 87.9782 100.016 87.7947 100.924 87.7947ZM102.419 93.3823C102.62 93.3823 102.782 93.22 102.782 93.0198V92.185C102.782 91.4785 102.612 90.9463 102.273 90.5885C101.933 90.2307 101.479 90.0518 100.91 90.0518C100.332 90.0518 99.8734 90.2307 99.5339 90.5885C99.1944 90.9463 99.0247 91.4785 99.0247 92.185V93.0198C99.0247 93.22 99.187 93.3823 99.3871 93.3823H102.419Z"/>
<path d="M111.589 87.891C112.984 87.891 114.071 88.2259 114.851 88.8957C115.631 89.5563 116.021 90.4876 116.021 91.6895C116.021 92.8456 115.668 93.7493 114.961 94.4008C114.264 95.043 113.277 95.3641 112.002 95.3641C111.482 95.3641 110.943 95.2867 110.384 95.1318C110.143 95.0651 109.896 95.24 109.896 95.4897V97.2587C109.896 97.4589 109.734 97.6212 109.534 97.6212H107.575C107.375 97.6212 107.213 97.4589 107.213 97.2587V92.0061C107.213 90.6757 107.584 89.6572 108.327 88.9507C109.071 88.2443 110.158 87.891 111.589 87.891ZM111.548 93.3823C112.108 93.3823 112.534 93.2447 112.828 92.9694C113.131 92.685 113.282 92.2767 113.282 91.7446C113.282 91.2308 113.135 90.8271 112.842 90.5334C112.557 90.2398 112.158 90.093 111.644 90.093C111.094 90.093 110.663 90.2582 110.351 90.5885C110.048 90.9188 109.896 91.3821 109.896 91.9785V92.7373C109.896 92.8643 109.962 92.9835 110.075 93.0416C110.516 93.2688 111.007 93.3823 111.548 93.3823Z"/>
<path d="M121.938 90.8362C123.167 90.8362 124.126 91.1344 124.814 91.7308C125.502 92.3272 125.846 93.1713 125.846 94.2631C125.846 95.41 125.457 96.2954 124.677 96.9193C123.897 97.5341 122.782 97.8414 121.332 97.8414C119.91 97.8414 118.837 97.5341 118.112 96.9193C117.396 96.2954 117.038 95.3733 117.038 94.153V88.3498C117.038 88.1496 117.201 87.9874 117.401 87.9874H119.36C119.56 87.9874 119.722 88.1496 119.722 88.3498V90.7484C119.722 91.0029 119.978 91.1784 120.221 91.1042C120.807 90.9256 121.38 90.8362 121.938 90.8362ZM129.214 87.9874C129.414 87.9874 129.576 88.1496 129.576 88.3498V97.2587C129.576 97.4589 129.414 97.6212 129.214 97.6212H127.241C127.041 97.6212 126.879 97.4589 126.879 97.2587V88.3498C126.879 88.1496 127.041 87.9874 127.241 87.9874H129.214ZM121.47 95.777C121.993 95.777 122.397 95.6486 122.681 95.3917C122.965 95.1348 123.108 94.7769 123.108 94.3182C123.108 93.8411 122.952 93.4787 122.64 93.2309C122.337 92.974 121.915 92.8456 121.374 92.8456C121.089 92.8456 120.8 92.8823 120.507 92.9557C120.297 93.0097 120.1 93.0786 119.916 93.1624C119.795 93.2175 119.722 93.3416 119.722 93.475V94.0842C119.722 94.6255 119.873 95.043 120.176 95.3366C120.479 95.6302 120.91 95.777 121.47 95.777Z"/>
</mask>
<path d="M34.9048 94.1103C34.8395 94.0003 34.721 93.9328 34.5931 93.9328H33.9233C33.7231 93.9328 33.5609 94.0951 33.5609 94.2953V97.2587C33.5609 97.4589 33.3986 97.6212 33.1984 97.6212H31.2121C31.0119 97.6212 30.8496 97.4589 30.8496 97.2587V88.3498C30.8496 88.1496 31.0119 87.9874 31.2121 87.9874H33.1984C33.3986 87.9874 33.5609 88.1496 33.5609 88.3498V91.3683C33.5609 91.5685 33.7231 91.7308 33.9233 91.7308H34.6655C34.7915 91.7308 34.9085 91.6654 34.9744 91.558L37.0606 88.1602C37.1265 88.0528 37.2435 87.9874 37.3695 87.9874H39.3625C39.6499 87.9874 39.823 88.3058 39.6667 88.5469L37.1393 92.4478C37.0635 92.5647 37.0615 92.7148 37.1341 92.8337L39.7202 97.0699C39.8677 97.3114 39.6939 97.6212 39.4109 97.6212H37.1942C37.0662 97.6212 36.9477 97.5537 36.8824 97.4437L34.9048 94.1103Z" fill="#FFFCF6"/>
<path d="M45.6116 97.8139C44.5931 97.8139 43.6756 97.5983 42.859 97.167C42.0516 96.7358 41.414 96.1394 40.946 95.3779C40.4873 94.6164 40.2579 93.7585 40.2579 92.8043C40.2579 91.8501 40.4873 90.9922 40.946 90.2307C41.414 89.4691 42.0516 88.8728 42.859 88.4415C43.6756 88.0103 44.5931 87.7947 45.6116 87.7947C46.63 87.7947 47.5429 88.0103 48.3503 88.4415C49.1669 88.8728 49.8046 89.4691 50.2633 90.2307C50.7313 90.9922 50.9652 91.8501 50.9652 92.8043C50.9652 93.7585 50.7313 94.6164 50.2633 95.3779C49.8046 96.1394 49.1669 96.7358 48.3503 97.167C47.5429 97.5983 46.63 97.8139 45.6116 97.8139ZM45.6116 95.5568C46.0978 95.5568 46.5383 95.4421 46.9328 95.2128C47.3273 94.9834 47.6393 94.6622 47.8686 94.2494C48.098 93.8273 48.2127 93.3456 48.2127 92.8043C48.2127 92.263 48.098 91.7858 47.8686 91.373C47.6393 90.9509 47.3273 90.6252 46.9328 90.3958C46.5383 90.1664 46.0978 90.0518 45.6116 90.0518C45.1253 90.0518 44.6849 90.1664 44.2904 90.3958C43.8958 90.6252 43.5839 90.9509 43.3545 91.373C43.1251 91.7858 43.0104 92.263 43.0104 92.8043C43.0104 93.3456 43.1251 93.8273 43.3545 94.2494C43.5839 94.6622 43.8958 94.9834 44.2904 95.2128C44.6849 95.4421 45.1253 95.5568 45.6116 95.5568Z" fill="#FFFCF6"/>
<path d="M61.468 97.6212C61.2682 97.6212 61.1061 97.4595 61.1055 97.2597L61.0963 93.8245C61.0953 93.4568 60.6107 93.3241 60.4224 93.6399L58.7209 96.4947C58.6555 96.6044 58.5372 96.6716 58.4095 96.6716H57.6074C57.4813 96.6716 57.3642 96.606 57.2983 96.4984L55.5987 93.7223C55.4076 93.4102 54.9271 93.5457 54.9271 93.9116V97.2587C54.9271 97.4589 54.7648 97.6212 54.5646 97.6212H52.7847C52.5845 97.6212 52.4223 97.4589 52.4223 97.2587V88.3498C52.4223 88.1496 52.5845 87.9874 52.7847 87.9874H54.4619C54.5884 87.9874 54.7057 88.0533 54.7715 88.1613L57.7378 93.0327C57.8799 93.2662 58.2194 93.2643 58.359 93.0293L61.2489 88.1647C61.3142 88.0547 61.4326 87.9874 61.5605 87.9874H63.2361C63.4359 87.9874 63.598 88.149 63.5986 88.3488L63.624 97.2577C63.6246 97.4583 63.4621 97.6212 63.2616 97.6212H61.468Z" fill="#FFFCF6"/>
<path d="M74.2024 87.9874C74.4026 87.9874 74.5649 88.1496 74.5649 88.3498V97.2587C74.5649 97.4589 74.4026 97.6212 74.2024 97.6212H72.1953C72.0446 97.6212 71.9224 97.4991 71.9224 97.3484C71.9224 97.0852 71.5552 96.951 71.348 97.1132C71.1626 97.2583 70.9596 97.3817 70.7389 97.4836C70.2617 97.7038 69.725 97.8139 69.1286 97.8139C67.9909 97.8139 67.1055 97.4515 66.4724 96.7266C65.8393 95.9926 65.5228 94.9513 65.5228 93.6025V88.3498C65.5228 88.1496 65.6851 87.9874 65.8853 87.9874H67.8853C68.0855 87.9874 68.2478 88.1496 68.2478 88.3498V93.5199C68.2478 94.1989 68.3992 94.7081 68.702 95.0476C69.0139 95.3871 69.436 95.5568 69.9681 95.5568C70.5278 95.5568 70.9774 95.3733 71.3169 95.0063C71.6655 94.6393 71.8399 94.098 71.8399 93.3823V88.3498C71.8399 88.1496 72.0021 87.9874 72.2023 87.9874H74.2024Z" fill="#FFFCF6"/>
<path d="M81.2537 97.8139C80.2445 97.8139 79.3361 97.6029 78.5287 97.1808C77.7305 96.7496 77.102 96.1532 76.6432 95.3917C76.1845 94.6301 75.9551 93.7677 75.9551 92.8043C75.9551 91.8409 76.1845 90.9784 76.6432 90.2169C77.102 89.4554 77.7305 88.8636 78.5287 88.4415C79.3361 88.0103 80.2445 87.7947 81.2537 87.7947C82.1346 87.7947 82.9282 87.9507 83.6347 88.2626C84.2338 88.5271 84.7471 88.8906 85.1746 89.3531C85.3045 89.4936 85.2858 89.7114 85.1438 89.8398L83.9428 90.9264C83.7898 91.0648 83.5537 91.046 83.407 90.9009C82.8352 90.3348 82.1634 90.0518 81.3914 90.0518C80.8684 90.0518 80.4005 90.1664 79.9876 90.3958C79.5839 90.6252 79.2673 90.9509 79.038 91.373C78.8178 91.7858 78.7077 92.263 78.7077 92.8043C78.7077 93.3456 78.8178 93.8273 79.038 94.2494C79.2673 94.6622 79.5839 94.9834 79.9876 95.2128C80.4005 95.4421 80.8684 95.5568 81.3914 95.5568C82.1634 95.5568 82.8352 95.2738 83.407 94.7077C83.5537 94.5625 83.7898 94.5438 83.9428 94.6822L85.1438 95.7688C85.2858 95.8972 85.3045 96.115 85.1746 96.2555C84.7471 96.718 84.2338 97.0814 83.6347 97.346C82.9282 97.6579 82.1346 97.8139 81.2537 97.8139Z" fill="#FFFCF6"/>
<path d="M91.1188 97.8139C90.1095 97.8139 89.2012 97.6029 88.3938 97.1808C87.5955 96.7496 86.967 96.1532 86.5083 95.3917C86.0495 94.6301 85.8201 93.7677 85.8201 92.8043C85.8201 91.8409 86.0495 90.9784 86.5083 90.2169C86.967 89.4554 87.5955 88.8636 88.3938 88.4415C89.2012 88.0103 90.1095 87.7947 91.1188 87.7947C91.9996 87.7947 92.7932 87.9507 93.4997 88.2626C94.0988 88.5271 94.6121 88.8906 95.0396 89.3531C95.1695 89.4936 95.1508 89.7114 95.0089 89.8398L93.8079 90.9264C93.6549 91.0648 93.4187 91.046 93.2721 90.9009C92.7003 90.3348 92.0284 90.0518 91.2564 90.0518C90.7334 90.0518 90.2655 90.1664 89.8526 90.3958C89.4489 90.6252 89.1324 90.9509 88.903 91.373C88.6828 91.7858 88.5727 92.263 88.5727 92.8043C88.5727 93.3456 88.6828 93.8273 88.903 94.2494C89.1324 94.6622 89.4489 94.9834 89.8526 95.2128C90.2655 95.4421 90.7334 95.5568 91.2564 95.5568C92.0284 95.5568 92.7003 95.2738 93.2721 94.7077C93.4187 94.5625 93.6549 94.5438 93.8079 94.6822L95.0089 95.7688C95.1508 95.8972 95.1695 96.115 95.0396 96.2555C94.6121 96.718 94.0988 97.0814 93.4997 97.346C92.7932 97.6579 91.9996 97.8139 91.1188 97.8139Z" fill="#FFFCF6"/>
<path d="M100.924 87.7947C101.832 87.7947 102.63 87.9782 103.319 88.3452C104.016 88.703 104.553 89.2306 104.929 89.9279C105.314 90.616 105.507 91.4464 105.507 92.4189V97.2587C105.507 97.4589 105.345 97.6212 105.144 97.6212H103.144C102.944 97.6212 102.782 97.4589 102.782 97.2587V95.8505C102.782 95.6503 102.62 95.488 102.419 95.488H99.3871C99.187 95.488 99.0247 95.6503 99.0247 95.8505V97.2587C99.0247 97.4589 98.8624 97.6212 98.6622 97.6212H96.7034C96.5032 97.6212 96.341 97.4589 96.341 97.2587V92.4189C96.341 91.4464 96.529 90.616 96.9052 89.9279C97.2906 89.2306 97.8273 88.703 98.5154 88.3452C99.2128 87.9782 100.016 87.7947 100.924 87.7947ZM102.419 93.3823C102.62 93.3823 102.782 93.22 102.782 93.0198V92.185C102.782 91.4785 102.612 90.9463 102.273 90.5885C101.933 90.2307 101.479 90.0518 100.91 90.0518C100.332 90.0518 99.8734 90.2307 99.5339 90.5885C99.1944 90.9463 99.0247 91.4785 99.0247 92.185V93.0198C99.0247 93.22 99.187 93.3823 99.3871 93.3823H102.419Z" fill="#FFFCF6"/>
<path d="M111.589 87.891C112.984 87.891 114.071 88.2259 114.851 88.8957C115.631 89.5563 116.021 90.4876 116.021 91.6895C116.021 92.8456 115.668 93.7493 114.961 94.4008C114.264 95.043 113.277 95.3641 112.002 95.3641C111.482 95.3641 110.943 95.2867 110.384 95.1318C110.143 95.0651 109.896 95.24 109.896 95.4897V97.2587C109.896 97.4589 109.734 97.6212 109.534 97.6212H107.575C107.375 97.6212 107.213 97.4589 107.213 97.2587V92.0061C107.213 90.6757 107.584 89.6572 108.327 88.9507C109.071 88.2443 110.158 87.891 111.589 87.891ZM111.548 93.3823C112.108 93.3823 112.534 93.2447 112.828 92.9694C113.131 92.685 113.282 92.2767 113.282 91.7446C113.282 91.2308 113.135 90.8271 112.842 90.5334C112.557 90.2398 112.158 90.093 111.644 90.093C111.094 90.093 110.663 90.2582 110.351 90.5885C110.048 90.9188 109.896 91.3821 109.896 91.9785V92.7373C109.896 92.8643 109.962 92.9835 110.075 93.0416C110.516 93.2688 111.007 93.3823 111.548 93.3823Z" fill="#FFFCF6"/>
<path d="M121.938 90.8362C123.167 90.8362 124.126 91.1344 124.814 91.7308C125.502 92.3272 125.846 93.1713 125.846 94.2631C125.846 95.41 125.457 96.2954 124.677 96.9193C123.897 97.5341 122.782 97.8414 121.332 97.8414C119.91 97.8414 118.837 97.5341 118.112 96.9193C117.396 96.2954 117.038 95.3733 117.038 94.153V88.3498C117.038 88.1496 117.201 87.9874 117.401 87.9874H119.36C119.56 87.9874 119.722 88.1496 119.722 88.3498V90.7484C119.722 91.0029 119.978 91.1784 120.221 91.1042C120.807 90.9256 121.38 90.8362 121.938 90.8362ZM129.214 87.9874C129.414 87.9874 129.576 88.1496 129.576 88.3498V97.2587C129.576 97.4589 129.414 97.6212 129.214 97.6212H127.241C127.041 97.6212 126.879 97.4589 126.879 97.2587V88.3498C126.879 88.1496 127.041 87.9874 127.241 87.9874H129.214ZM121.47 95.777C121.993 95.777 122.397 95.6486 122.681 95.3917C122.965 95.1348 123.108 94.7769 123.108 94.3182C123.108 93.8411 122.952 93.4787 122.64 93.2309C122.337 92.974 121.915 92.8456 121.374 92.8456C121.089 92.8456 120.8 92.8823 120.507 92.9557C120.297 93.0097 120.1 93.0786 119.916 93.1624C119.795 93.2175 119.722 93.3416 119.722 93.475V94.0842C119.722 94.6255 119.873 95.043 120.176 95.3366C120.479 95.6302 120.91 95.777 121.47 95.777Z" fill="#FFFCF6"/>
<path d="M34.9048 94.1103C34.8395 94.0003 34.721 93.9328 34.5931 93.9328H33.9233C33.7231 93.9328 33.5609 94.0951 33.5609 94.2953V97.2587C33.5609 97.4589 33.3986 97.6212 33.1984 97.6212H31.2121C31.0119 97.6212 30.8496 97.4589 30.8496 97.2587V88.3498C30.8496 88.1496 31.0119 87.9874 31.2121 87.9874H33.1984C33.3986 87.9874 33.5609 88.1496 33.5609 88.3498V91.3683C33.5609 91.5685 33.7231 91.7308 33.9233 91.7308H34.6655C34.7915 91.7308 34.9085 91.6654 34.9744 91.558L37.0606 88.1602C37.1265 88.0528 37.2435 87.9874 37.3695 87.9874H39.3625C39.6499 87.9874 39.823 88.3058 39.6667 88.5469L37.1393 92.4478C37.0635 92.5647 37.0615 92.7148 37.1341 92.8337L39.7202 97.0699C39.8677 97.3114 39.6939 97.6212 39.4109 97.6212H37.1942C37.0662 97.6212 36.9477 97.5537 36.8824 97.4437L34.9048 94.1103Z" stroke="#FFFCF6" stroke-width="0.333665" mask="url(#path-2-outside-1_27_890)"/>
<path d="M45.6116 97.8139C44.5931 97.8139 43.6756 97.5983 42.859 97.167C42.0516 96.7358 41.414 96.1394 40.946 95.3779C40.4873 94.6164 40.2579 93.7585 40.2579 92.8043C40.2579 91.8501 40.4873 90.9922 40.946 90.2307C41.414 89.4691 42.0516 88.8728 42.859 88.4415C43.6756 88.0103 44.5931 87.7947 45.6116 87.7947C46.63 87.7947 47.5429 88.0103 48.3503 88.4415C49.1669 88.8728 49.8046 89.4691 50.2633 90.2307C50.7313 90.9922 50.9652 91.8501 50.9652 92.8043C50.9652 93.7585 50.7313 94.6164 50.2633 95.3779C49.8046 96.1394 49.1669 96.7358 48.3503 97.167C47.5429 97.5983 46.63 97.8139 45.6116 97.8139ZM45.6116 95.5568C46.0978 95.5568 46.5383 95.4421 46.9328 95.2128C47.3273 94.9834 47.6393 94.6622 47.8686 94.2494C48.098 93.8273 48.2127 93.3456 48.2127 92.8043C48.2127 92.263 48.098 91.7858 47.8686 91.373C47.6393 90.9509 47.3273 90.6252 46.9328 90.3958C46.5383 90.1664 46.0978 90.0518 45.6116 90.0518C45.1253 90.0518 44.6849 90.1664 44.2904 90.3958C43.8958 90.6252 43.5839 90.9509 43.3545 91.373C43.1251 91.7858 43.0104 92.263 43.0104 92.8043C43.0104 93.3456 43.1251 93.8273 43.3545 94.2494C43.5839 94.6622 43.8958 94.9834 44.2904 95.2128C44.6849 95.4421 45.1253 95.5568 45.6116 95.5568Z" stroke="#FFFCF6" stroke-width="0.333665" mask="url(#path-2-outside-1_27_890)"/>
<path d="M61.468 97.6212C61.2682 97.6212 61.1061 97.4595 61.1055 97.2597L61.0963 93.8245C61.0953 93.4568 60.6107 93.3241 60.4224 93.6399L58.7209 96.4947C58.6555 96.6044 58.5372 96.6716 58.4095 96.6716H57.6074C57.4813 96.6716 57.3642 96.606 57.2983 96.4984L55.5987 93.7223C55.4076 93.4102 54.9271 93.5457 54.9271 93.9116V97.2587C54.9271 97.4589 54.7648 97.6212 54.5646 97.6212H52.7847C52.5845 97.6212 52.4223 97.4589 52.4223 97.2587V88.3498C52.4223 88.1496 52.5845 87.9874 52.7847 87.9874H54.4619C54.5884 87.9874 54.7057 88.0533 54.7715 88.1613L57.7378 93.0327C57.8799 93.2662 58.2194 93.2643 58.359 93.0293L61.2489 88.1647C61.3142 88.0547 61.4326 87.9874 61.5605 87.9874H63.2361C63.4359 87.9874 63.598 88.149 63.5986 88.3488L63.624 97.2577C63.6246 97.4583 63.4621 97.6212 63.2616 97.6212H61.468Z" stroke="#FFFCF6" stroke-width="0.333665" mask="url(#path-2-outside-1_27_890)"/>
<path d="M74.2024 87.9874C74.4026 87.9874 74.5649 88.1496 74.5649 88.3498V97.2587C74.5649 97.4589 74.4026 97.6212 74.2024 97.6212H72.1953C72.0446 97.6212 71.9224 97.4991 71.9224 97.3484C71.9224 97.0852 71.5552 96.951 71.348 97.1132C71.1626 97.2583 70.9596 97.3817 70.7389 97.4836C70.2617 97.7038 69.725 97.8139 69.1286 97.8139C67.9909 97.8139 67.1055 97.4515 66.4724 96.7266C65.8393 95.9926 65.5228 94.9513 65.5228 93.6025V88.3498C65.5228 88.1496 65.6851 87.9874 65.8853 87.9874H67.8853C68.0855 87.9874 68.2478 88.1496 68.2478 88.3498V93.5199C68.2478 94.1989 68.3992 94.7081 68.702 95.0476C69.0139 95.3871 69.436 95.5568 69.9681 95.5568C70.5278 95.5568 70.9774 95.3733 71.3169 95.0063C71.6655 94.6393 71.8399 94.098 71.8399 93.3823V88.3498C71.8399 88.1496 72.0021 87.9874 72.2023 87.9874H74.2024Z" stroke="#FFFCF6" stroke-width="0.333665" mask="url(#path-2-outside-1_27_890)"/>
<path d="M81.2537 97.8139C80.2445 97.8139 79.3361 97.6029 78.5287 97.1808C77.7305 96.7496 77.102 96.1532 76.6432 95.3917C76.1845 94.6301 75.9551 93.7677 75.9551 92.8043C75.9551 91.8409 76.1845 90.9784 76.6432 90.2169C77.102 89.4554 77.7305 88.8636 78.5287 88.4415C79.3361 88.0103 80.2445 87.7947 81.2537 87.7947C82.1346 87.7947 82.9282 87.9507 83.6347 88.2626C84.2338 88.5271 84.7471 88.8906 85.1746 89.3531C85.3045 89.4936 85.2858 89.7114 85.1438 89.8398L83.9428 90.9264C83.7898 91.0648 83.5537 91.046 83.407 90.9009C82.8352 90.3348 82.1634 90.0518 81.3914 90.0518C80.8684 90.0518 80.4005 90.1664 79.9876 90.3958C79.5839 90.6252 79.2673 90.9509 79.038 91.373C78.8178 91.7858 78.7077 92.263 78.7077 92.8043C78.7077 93.3456 78.8178 93.8273 79.038 94.2494C79.2673 94.6622 79.5839 94.9834 79.9876 95.2128C80.4005 95.4421 80.8684 95.5568 81.3914 95.5568C82.1634 95.5568 82.8352 95.2738 83.407 94.7077C83.5537 94.5625 83.7898 94.5438 83.9428 94.6822L85.1438 95.7688C85.2858 95.8972 85.3045 96.115 85.1746 96.2555C84.7471 96.718 84.2338 97.0814 83.6347 97.346C82.9282 97.6579 82.1346 97.8139 81.2537 97.8139Z" stroke="#FFFCF6" stroke-width="0.333665" mask="url(#path-2-outside-1_27_890)"/>
<path d="M91.1188 97.8139C90.1095 97.8139 89.2012 97.6029 88.3938 97.1808C87.5955 96.7496 86.967 96.1532 86.5083 95.3917C86.0495 94.6301 85.8201 93.7677 85.8201 92.8043C85.8201 91.8409 86.0495 90.9784 86.5083 90.2169C86.967 89.4554 87.5955 88.8636 88.3938 88.4415C89.2012 88.0103 90.1095 87.7947 91.1188 87.7947C91.9996 87.7947 92.7932 87.9507 93.4997 88.2626C94.0988 88.5271 94.6121 88.8906 95.0396 89.3531C95.1695 89.4936 95.1508 89.7114 95.0089 89.8398L93.8079 90.9264C93.6549 91.0648 93.4187 91.046 93.2721 90.9009C92.7003 90.3348 92.0284 90.0518 91.2564 90.0518C90.7334 90.0518 90.2655 90.1664 89.8526 90.3958C89.4489 90.6252 89.1324 90.9509 88.903 91.373C88.6828 91.7858 88.5727 92.263 88.5727 92.8043C88.5727 93.3456 88.6828 93.8273 88.903 94.2494C89.1324 94.6622 89.4489 94.9834 89.8526 95.2128C90.2655 95.4421 90.7334 95.5568 91.2564 95.5568C92.0284 95.5568 92.7003 95.2738 93.2721 94.7077C93.4187 94.5625 93.6549 94.5438 93.8079 94.6822L95.0089 95.7688C95.1508 95.8972 95.1695 96.115 95.0396 96.2555C94.6121 96.718 94.0988 97.0814 93.4997 97.346C92.7932 97.6579 91.9996 97.8139 91.1188 97.8139Z" stroke="#FFFCF6" stroke-width="0.333665" mask="url(#path-2-outside-1_27_890)"/>
<path d="M100.924 87.7947C101.832 87.7947 102.63 87.9782 103.319 88.3452C104.016 88.703 104.553 89.2306 104.929 89.9279C105.314 90.616 105.507 91.4464 105.507 92.4189V97.2587C105.507 97.4589 105.345 97.6212 105.144 97.6212H103.144C102.944 97.6212 102.782 97.4589 102.782 97.2587V95.8505C102.782 95.6503 102.62 95.488 102.419 95.488H99.3871C99.187 95.488 99.0247 95.6503 99.0247 95.8505V97.2587C99.0247 97.4589 98.8624 97.6212 98.6622 97.6212H96.7034C96.5032 97.6212 96.341 97.4589 96.341 97.2587V92.4189C96.341 91.4464 96.529 90.616 96.9052 89.9279C97.2906 89.2306 97.8273 88.703 98.5154 88.3452C99.2128 87.9782 100.016 87.7947 100.924 87.7947ZM102.419 93.3823C102.62 93.3823 102.782 93.22 102.782 93.0198V92.185C102.782 91.4785 102.612 90.9463 102.273 90.5885C101.933 90.2307 101.479 90.0518 100.91 90.0518C100.332 90.0518 99.8734 90.2307 99.5339 90.5885C99.1944 90.9463 99.0247 91.4785 99.0247 92.185V93.0198C99.0247 93.22 99.187 93.3823 99.3871 93.3823H102.419Z" stroke="#FFFCF6" stroke-width="0.333665" mask="url(#path-2-outside-1_27_890)"/>
<path d="M111.589 87.891C112.984 87.891 114.071 88.2259 114.851 88.8957C115.631 89.5563 116.021 90.4876 116.021 91.6895C116.021 92.8456 115.668 93.7493 114.961 94.4008C114.264 95.043 113.277 95.3641 112.002 95.3641C111.482 95.3641 110.943 95.2867 110.384 95.1318C110.143 95.0651 109.896 95.24 109.896 95.4897V97.2587C109.896 97.4589 109.734 97.6212 109.534 97.6212H107.575C107.375 97.6212 107.213 97.4589 107.213 97.2587V92.0061C107.213 90.6757 107.584 89.6572 108.327 88.9507C109.071 88.2443 110.158 87.891 111.589 87.891ZM111.548 93.3823C112.108 93.3823 112.534 93.2447 112.828 92.9694C113.131 92.685 113.282 92.2767 113.282 91.7446C113.282 91.2308 113.135 90.8271 112.842 90.5334C112.557 90.2398 112.158 90.093 111.644 90.093C111.094 90.093 110.663 90.2582 110.351 90.5885C110.048 90.9188 109.896 91.3821 109.896 91.9785V92.7373C109.896 92.8643 109.962 92.9835 110.075 93.0416C110.516 93.2688 111.007 93.3823 111.548 93.3823Z" stroke="#FFFCF6" stroke-width="0.333665" mask="url(#path-2-outside-1_27_890)"/>
<path d="M121.938 90.8362C123.167 90.8362 124.126 91.1344 124.814 91.7308C125.502 92.3272 125.846 93.1713 125.846 94.2631C125.846 95.41 125.457 96.2954 124.677 96.9193C123.897 97.5341 122.782 97.8414 121.332 97.8414C119.91 97.8414 118.837 97.5341 118.112 96.9193C117.396 96.2954 117.038 95.3733 117.038 94.153V88.3498C117.038 88.1496 117.201 87.9874 117.401 87.9874H119.36C119.56 87.9874 119.722 88.1496 119.722 88.3498V90.7484C119.722 91.0029 119.978 91.1784 120.221 91.1042C120.807 90.9256 121.38 90.8362 121.938 90.8362ZM129.214 87.9874C129.414 87.9874 129.576 88.1496 129.576 88.3498V97.2587C129.576 97.4589 129.414 97.6212 129.214 97.6212H127.241C127.041 97.6212 126.879 97.4589 126.879 97.2587V88.3498C126.879 88.1496 127.041 87.9874 127.241 87.9874H129.214ZM121.47 95.777C121.993 95.777 122.397 95.6486 122.681 95.3917C122.965 95.1348 123.108 94.7769 123.108 94.3182C123.108 93.8411 122.952 93.4787 122.64 93.2309C122.337 92.974 121.915 92.8456 121.374 92.8456C121.089 92.8456 120.8 92.8823 120.507 92.9557C120.297 93.0097 120.1 93.0786 119.916 93.1624C119.795 93.2175 119.722 93.3416 119.722 93.475V94.0842C119.722 94.6255 119.873 95.043 120.176 95.3366C120.479 95.6302 120.91 95.777 121.47 95.777Z" stroke="#FFFCF6" stroke-width="0.333665" mask="url(#path-2-outside-1_27_890)"/>
<path d="M63.4182 51.7134C68.6647 51.7134 72.5371 52.7849 75.0354 54.9277C77.5694 57.0706 78.8364 59.9277 78.8364 63.4992C78.8364 65.8206 78.2297 67.9635 77.0162 69.9277C75.8384 71.8563 74.0182 73.4099 71.5556 74.5884C69.1286 75.7313 66.1128 76.3027 62.5081 76.3027C59.867 76.3027 57.2438 75.9813 54.6384 75.3385C52.1692 74.7207 50.0295 73.8557 48.2194 72.7434C48.0935 72.666 48.0477 72.506 48.1113 72.3727L51.6558 64.929C51.7324 64.7682 51.9337 64.7129 52.0837 64.8089C53.5057 65.7192 55.0533 66.4255 56.7263 66.9277C58.5465 67.4634 60.3667 67.7313 62.1869 67.7313C64.0071 67.7313 65.4525 67.392 66.5232 66.7134C67.6296 65.9992 68.1828 65.017 68.1828 63.767C68.1828 62.517 67.6475 61.5706 66.5768 60.9277C65.5061 60.2849 63.6145 59.9634 60.902 59.9634H51.0486C50.8774 59.9634 50.7428 59.8169 50.7574 59.6463L52.5812 38.3201C52.5941 38.1689 52.7206 38.0527 52.8724 38.0527H76.1886C76.35 38.0527 76.4808 38.1836 76.4808 38.345V45.9569C76.4808 46.1183 76.35 46.2492 76.1886 46.2492H61.6515C61.5 46.2492 61.3736 46.3649 61.3603 46.5157L60.9301 51.3955C60.915 51.5664 61.0497 51.7134 61.2212 51.7134H63.4182Z" fill="black"/>
<path d="M107.017 55.5155C106.847 55.6448 106.858 55.9086 107.039 56.0221C108.562 56.9777 109.752 58.1308 110.608 59.4813C111.536 60.9456 112 62.6242 112 64.517C112 66.8742 111.322 68.9456 109.966 70.7313C108.609 72.517 106.7 73.892 104.237 74.8563C101.775 75.8206 98.9374 76.3027 95.7252 76.3027C92.5131 76.3027 89.6757 75.8206 87.2131 74.8563C84.7505 73.892 82.8411 72.517 81.4848 70.7313C80.1286 68.9456 79.4505 66.8742 79.4505 64.517C79.4505 62.6242 79.9145 60.9456 80.8424 59.4813C81.6983 58.1308 82.8881 56.9777 84.4119 56.0221C84.5929 55.9086 84.6035 55.6448 84.4332 55.5158C83.3254 54.6759 82.4496 53.6763 81.806 52.517C81.1279 51.2313 80.7889 49.8027 80.7889 48.2313C80.7889 46.0527 81.4134 44.142 82.6626 42.4992C83.9118 40.8206 85.6606 39.5349 87.9091 38.642C90.1932 37.7492 92.7986 37.3027 95.7252 37.3027C98.6518 37.3027 101.239 37.7492 103.488 38.642C105.772 39.5349 107.539 40.8206 108.788 42.4992C110.037 44.142 110.662 46.0527 110.662 48.2313C110.662 49.8027 110.305 51.2313 109.591 52.517C108.98 53.6762 108.122 54.6757 107.017 55.5155ZM95.7252 44.7492C94.4047 44.7492 93.334 45.1063 92.5131 45.8206C91.6922 46.4992 91.2818 47.4634 91.2818 48.7134C91.2818 49.9277 91.6744 50.892 92.4596 51.6063C93.2805 52.2849 94.369 52.6242 95.7252 52.6242C97.0815 52.6242 98.17 52.2849 98.9909 51.6063C99.8118 50.892 100.222 49.9277 100.222 48.7134C100.222 47.4634 99.8118 46.4992 98.9909 45.8206C98.17 45.1063 97.0815 44.7492 95.7252 44.7492ZM95.7252 68.8563C97.4384 68.8563 98.7946 68.4456 99.7939 67.6242C100.829 66.767 101.346 65.6242 101.346 64.1956C101.346 62.767 100.829 61.642 99.7939 60.8206C98.7946 59.9635 97.4384 59.5349 95.7252 59.5349C94.0121 59.5349 92.638 59.9635 91.603 60.8206C90.6037 61.642 90.104 62.767 90.104 64.1956C90.104 65.6242 90.6037 66.767 91.603 67.6242C92.638 68.4456 94.0121 68.8563 95.7252 68.8563Z" fill="black"/>
<path d="M114.192 35.9334C113.834 35.3486 114.101 34.5807 114.745 34.3428L156.744 18.8421C157.453 18.5802 158.205 19.1038 158.205 19.8598L158.205 34.9289C158.205 35.4214 157.874 35.8532 157.398 35.9816L139.027 40.9378C138.856 40.9839 138.676 40.9876 138.504 40.9485L129.425 38.8941C129.34 38.8747 129.252 38.8658 129.165 38.8675L116.764 39.1038C116.379 39.1111 116.02 38.9145 115.819 38.5866L114.192 35.9334Z" fill="#F74C3C"/>
<path d="M46.4269 35.9334C46.7854 35.3486 46.5184 34.5807 45.8739 34.3428L3.87539 18.8421C3.1659 18.5802 2.41407 19.1038 2.41408 19.8598L2.41421 34.9289C2.41421 35.4214 2.74506 35.8532 3.22069 35.9816L21.5923 40.9378C21.7633 40.9839 21.9428 40.9876 22.1153 40.9485L31.1941 38.8941C31.2795 38.8747 31.3669 38.8658 31.4545 38.8675L43.8551 39.1038C44.2398 39.1111 44.5993 38.9145 44.8003 38.5866L46.4269 35.9334Z" fill="#F74C3C"/>
<path d="M152.295 55.9729L157.85 39.3067C158.16 38.3781 157.181 37.5453 156.314 37.9996L139.552 46.7845C139.329 46.901 139.154 47.091 139.056 47.322L133.147 61.2118C132.778 62.0814 133.617 62.9765 134.508 62.6634L151.623 56.655C151.94 56.5437 152.188 56.2918 152.295 55.9729Z" fill="black"/>
<path d="M8.32454 55.9729L2.76913 39.3067C2.4596 38.3781 3.43855 37.5453 4.30552 37.9996L21.0676 46.7845C21.2899 46.901 21.4651 47.091 21.5634 47.322L27.4717 61.2118C27.8416 62.0814 27.0025 62.9765 26.1108 62.6634L8.99595 56.655C8.67873 56.5437 8.43086 56.2918 8.32454 55.9729Z" fill="black"/>
</svg>
