<svg width="72" height="138" viewBox="0 0 72 138" fill="none" xmlns="http://www.w3.org/2000/svg">
<path opacity="0.5" d="M16.5249 17.2847L16.9527 17.026C17.3573 17.695 18.2628 18.2898 19.0653 18.4041C19.0653 18.4041 19.0654 18.4041 19.0654 18.4041L18.9949 18.8991C19.2248 18.9319 19.4669 19.0165 19.5327 19.0871L16.5249 17.2847ZM16.5249 17.2847L16.9527 17.026C15.9223 15.3221 16.9386 13.1763 19.1665 12.7759C19.1665 12.7763 19.1878 12.7744 19.2463 12.7721C19.3141 12.7694 19.4096 12.7667 19.5329 12.764C19.7791 12.7586 20.1278 12.7534 20.569 12.7486C21.451 12.739 22.6973 12.7308 24.2207 12.7243C27.2672 12.7114 31.4189 12.7055 35.9744 12.7095L51.6694 12.7236C52.0736 12.7239 52.4748 12.7939 52.8554 12.9304L53.024 12.4601L52.8554 12.9304C54.1067 13.3791 54.8205 14.3829 54.8222 15.6533C54.8226 15.988 54.8101 16.154 54.7765 16.2933C54.7438 16.4292 54.6842 16.5679 54.5398 16.8358L54.5398 16.8359C54.367 17.1565 54.0837 17.524 53.9481 17.6395L53.948 17.6395M16.5249 17.2847L53.948 17.6395M53.948 17.6395C53.7602 17.7994 53.4696 17.9779 53.1534 18.1267C52.8343 18.2769 52.5343 18.3756 52.3342 18.4041L53.948 17.6395ZM51.9092 18.5069C52.0374 18.4621 52.1871 18.4251 52.3341 18.4041L51.9092 18.5069ZM51.9092 18.5069C51.845 18.5294 51.7786 18.5564 51.7166 18.5884M51.9092 18.5069L51.7166 18.5884M51.7166 18.5884C51.6641 18.6156 51.5764 18.6655 51.5014 18.7459L51.7166 18.5884ZM0.518212 95.7377C0.518203 95.7376 0.516439 95.7016 0.508885 95.6629L51.501 18.7463C51.412 18.8418 51.3805 18.9501 51.3727 18.977L51.3721 18.9791C51.3588 19.0244 51.3503 19.0695 51.3444 19.1068C51.3323 19.183 51.3234 19.2766 51.3163 19.3812C51.302 19.5932 51.2921 19.8944 51.2858 20.2872C51.2733 21.0751 51.2754 22.261 51.2907 23.9039C51.3314 28.3005 51.3421 28.6823 51.5956 29.5459C52.8308 33.7548 56.9185 36.4786 61.7866 36.4786C63.8932 36.4786 66.2488 37.341 67.8591 38.7019C69.2861 39.908 70.1909 41.28 70.6334 42.8732L71.096 42.7447L70.6334 42.8732C70.7751 43.3832 70.8467 43.9101 70.8464 44.4394L70.8188 87.4071L70.791 130.536C70.7907 130.944 70.7194 131.349 70.5802 131.733C69.5694 134.521 67.1732 136.586 64.0242 137.331C63.7239 137.402 63.3458 137.451 59.6237 137.475C55.9369 137.498 49.0144 137.5 35.6998 137.5C22.3851 137.5 15.4627 137.498 11.7759 137.475C8.05372 137.451 7.67566 137.402 7.37532 137.331C6.45532 137.114 5.04775 136.535 4.35708 136.095L4.08881 136.517L4.35703 136.095C2.69488 135.039 1.46657 133.52 0.8199 131.734L0.349758 131.904L0.819883 131.734C0.680798 131.349 0.609386 130.944 0.60882 130.536L0.585374 113.608C0.578663 108.759 0.567743 104.326 0.555557 101.09C0.549464 99.4725 0.543053 98.1535 0.536691 97.2313C0.533511 96.7703 0.530338 96.4077 0.527213 96.1562C0.525654 96.0307 0.524091 95.9316 0.522517 95.8613C0.521736 95.8264 0.520908 95.7966 0.519994 95.7733C0.519547 95.762 0.51898 95.7496 0.518212 95.7377Z" stroke="#FFFCF6"/>
<path fill-rule="evenodd" clip-rule="evenodd" d="M39.0037 58.1648C40.947 58.5002 43.1485 59.3002 44.5947 60.1964C46.2772 61.239 47.3853 62.0657 47.3853 62.278C47.3853 62.3359 47.472 62.4533 47.5778 62.5389C48.3987 63.2024 49.9038 65.4874 50.4417 66.8869C51.2354 68.9515 51.3748 70.2999 51.3273 75.455C51.2916 79.3529 51.2865 79.4308 51.038 79.912C50.4871 80.9784 49.468 81.5875 48.0057 81.7243C46.9683 81.8214 46.4494 81.9936 45.9 82.4231C45.1134 83.038 44.7449 83.9368 44.7449 85.2399C44.7449 87.0166 43.5431 88.3801 41.5834 88.8271C41.0014 88.9599 40.1881 88.9782 35.9751 88.9532C31.1132 88.9244 31.0392 88.921 30.4154 88.6967C29.5408 88.3822 28.6631 87.6431 28.2264 86.8531C27.9107 86.2823 27.8677 86.0971 27.8016 85.0242C27.7167 83.6468 27.4827 83.0985 26.717 82.4827C26.0588 81.9531 25.6731 81.8131 24.6256 81.7232C24.1036 81.6785 23.4857 81.5696 23.2526 81.4816C22.6294 81.246 21.8123 80.5176 21.5155 79.933V79.933C21.345 79.5972 21.2562 79.226 21.2564 78.8494L21.2582 74.9163C21.2599 70.987 21.2855 70.2974 21.457 69.5287C22.2433 66.0057 24.1271 63.0707 26.922 61.0148C29.2339 59.3142 31.5866 58.3872 34.5225 58.0202C35.5021 57.8978 37.9062 57.9753 39.0037 58.1648ZM27.8572 68.7834C26.8205 69.0135 26.4288 69.212 25.6954 69.8789C24.8446 70.6525 24.5791 71.2866 24.6314 72.4184C24.6795 73.4536 25.0213 74.1678 25.7867 74.8314C27.1308 75.997 29.1661 76.1744 30.7237 75.2617C31.759 74.655 32.4279 73.9622 33.0263 72.8766C34.1895 70.7663 33.5573 69.2757 31.2677 68.7312C30.5053 68.5499 28.7912 68.5761 27.8572 68.7834ZM41.4994 68.6647C40.3753 68.8889 39.5447 69.3669 39.1598 70.0111C38.9018 70.4428 38.9171 71.6406 39.1887 72.2714C39.7743 73.6319 41.133 75.0526 42.3069 75.532C42.8331 75.7468 43.0914 75.7872 43.9748 75.7921C44.882 75.7971 45.0998 75.7641 45.625 75.5419C46.9911 74.9641 47.8334 73.8322 47.9128 72.4674C48.0504 70.1048 46.0124 68.5746 42.7745 68.6094C42.1942 68.6157 41.6204 68.6406 41.4994 68.6647ZM35.0172 76.5313C33.2159 78.0864 32.3942 79.7794 33.1413 80.3959C33.5285 80.7154 34.6224 80.8916 36.2185 80.8916C37.9019 80.8916 39.0188 80.7153 39.417 80.3866C39.6861 80.1646 39.7077 80.0951 39.6531 79.6243C39.5497 78.7329 38.7495 77.579 37.4504 76.4482C36.941 76.0049 36.7685 75.9152 36.3429 75.8725C35.8412 75.8222 35.8351 75.8252 35.0172 76.5313ZM55.0255 83.1469C56.1397 83.3078 57.4 84.2833 57.8385 85.3244C58.1258 86.0068 58.1491 86.9695 57.8937 87.6016C57.7285 88.0104 57.7288 88.0496 57.8985 88.1404C59.2202 88.8484 59.81 89.4442 60.1452 90.4099C60.4264 91.2208 60.4248 91.6276 60.1371 92.457C59.9537 92.9857 59.7858 93.2338 59.3128 93.6754C58.9846 93.9817 58.4358 94.3573 58.0865 94.5147C57.5277 94.7664 57.3384 94.7996 56.4581 94.8005C55.4937 94.8014 55.4292 94.7869 54.4217 94.3445C53.0851 93.7577 52.4709 93.637 51.1404 93.7C50.3411 93.7377 49.854 93.8228 49.1581 94.0459V94.0459C48.56 94.2378 47.9151 94.2265 47.3241 94.0137L44.9775 93.1689C43.1855 92.5237 41.4579 91.9041 41.1382 91.792C40.8186 91.6799 40.5722 91.5473 40.5909 91.4973C40.6239 91.4092 41.1647 91.206 45.79 89.5441C48.3794 88.6137 48.6822 88.4835 49.2031 88.0762C49.6948 87.6919 49.8234 87.4699 50.3654 86.0705C50.9627 84.5278 51.342 84.0384 52.3587 83.4978C52.7949 83.2658 54.0087 82.9964 54.3714 83.0511C54.4924 83.0694 54.7867 83.1126 55.0255 83.1469ZM20.0318 83.4364C20.7465 83.7584 21.5427 84.4663 21.8129 85.0202C21.9142 85.2277 22.0654 85.6756 22.1488 86.0153C22.3959 87.0215 22.715 87.5653 23.3558 88.0716C23.856 88.4669 24.302 88.6624 26.5031 89.4509C27.9134 89.9562 29.2159 90.4281 29.3974 90.4997C29.5789 90.5713 30.9156 91.0546 32.3679 91.5736C33.8201 92.0927 35.1568 92.5732 35.3384 92.6413C36.4655 93.0648 37.89 93.5794 40.5092 94.509C42.143 95.0889 43.5266 95.6013 43.5842 95.6476C43.6416 95.6941 43.7536 95.732 43.8329 95.732C43.9123 95.732 44.187 95.8148 44.4435 95.916C44.9651 96.1219 45.0699 96.1601 48.3551 97.3418C51.0996 98.3289 51.5827 98.4125 52.7366 98.1002C53.1517 97.9877 53.6646 97.7801 53.8763 97.6388C54.8337 96.9998 55.2894 96.8594 56.4068 96.8594C57.3411 96.8594 57.5146 96.8887 58.0442 97.1366C58.8717 97.5239 59.6128 98.1738 59.9856 98.8393C60.2602 99.3295 60.3027 99.5168 60.3029 100.238C60.303 100.895 60.2505 101.173 60.0539 101.557C59.6931 102.262 59.1329 102.824 58.3787 103.238C57.8964 103.503 57.736 103.643 57.7856 103.756C58.2467 104.808 58.2285 105.645 57.7241 106.594C57.1505 107.675 56.1145 108.367 54.7522 108.58C53.0557 108.846 51.2085 107.816 50.5242 106.221C50.117 105.273 49.5306 104.45 48.7474 103.731C47.9217 102.972 47.3287 102.668 45.1665 101.897C44.2387 101.566 43.3311 101.235 43.1496 101.162C42.9681 101.089 42.4483 100.901 41.9944 100.745C41.5406 100.588 39.8573 99.9872 38.2538 99.4089C36.6503 98.8304 34.5462 98.0735 33.5781 97.7268C32.6099 97.3802 31.7188 97.0551 31.5978 97.0044C31.4767 96.9538 30.1895 96.4884 28.7373 95.9703C27.2851 95.4522 25.9483 94.9725 25.7668 94.9043C22.9078 93.8302 22.6454 93.7576 21.4149 93.6999C20.0677 93.6367 19.4196 93.7623 18.1206 94.3381C17.121 94.7812 17.0347 94.8014 16.1403 94.8014C14.9143 94.8014 14.3026 94.591 13.4566 93.8782C12.3049 92.908 11.944 91.756 12.3857 90.4611C12.6822 89.5919 13.2739 88.9133 14.1592 88.4267C14.6486 88.1578 14.811 88.0166 14.7614 87.9035C14.3129 86.8803 14.3177 86.0622 14.7774 85.1568C15.1406 84.4414 15.4948 84.045 16.1046 83.6715C16.8495 83.2152 17.376 83.0933 18.4606 83.126C19.2444 83.1496 19.5127 83.2026 20.0318 83.4364ZM17.2031 96.9447C17.4399 97.0191 18.0563 97.3056 18.5731 97.5816C19.6019 98.1309 20.4535 98.3368 21.3221 98.2463C21.6004 98.2173 22.3805 97.9959 23.0555 97.7544L23.3211 97.6593C23.943 97.4367 24.6229 97.4365 25.2449 97.6588V97.6588C25.774 97.8478 26.3554 98.0592 26.5369 98.1286C26.9161 98.2733 27.7189 98.5632 28.9023 98.9825C29.3561 99.1434 30.1235 99.4206 30.6076 99.5986C31.0917 99.7766 31.6018 99.9529 31.7413 99.9904C31.8808 100.028 31.9776 100.105 31.9564 100.162C31.9353 100.218 30.4685 100.785 28.6971 101.421C26.9256 102.058 25.2693 102.688 25.0165 102.822C23.9884 103.365 22.6282 104.81 22.1917 105.821C21.3868 107.687 20.1002 108.599 18.2856 108.592C17.2033 108.587 16.39 108.293 15.6639 107.644C14.612 106.703 14.1907 105.495 14.5332 104.401C14.8018 103.544 14.8035 103.553 14.325 103.331C13.6657 103.026 12.8632 102.265 12.5338 101.633C12.2893 101.163 12.2412 100.934 12.2415 100.238C12.2418 99.5217 12.2847 99.33 12.5482 98.8666C13.0603 97.9661 14.0076 97.2194 14.9851 96.9457C15.5785 96.7797 16.676 96.7791 17.2031 96.9447Z" fill="#F74C3C"/>
<path d="M22.5218 1.08179C22.8634 0.721505 23.6584 0.28511 24.2936 0.109181C24.6384 0.0136732 27.1396 -0.00983645 35.5248 0.00338764L45.4977 0.0191453C46.0347 0.0199937 46.5653 0.134785 47.0546 0.355933C47.9208 0.747366 48.3528 1.14997 48.79 1.9727C49.2692 2.87458 49.2342 3.63933 48.613 5.84168C48.3418 6.80322 48.0709 7.705 48.0107 7.84586C47.9444 8.0011 47.7919 8.10182 47.6231 8.10182H35.3539H23.0954C22.9201 8.10182 22.7617 7.99721 22.6929 7.83597C22.6305 7.68982 22.3594 6.78069 22.0906 5.81582C21.477 3.61425 21.4428 2.86606 21.9148 1.97956C22.087 1.6563 22.36 1.25233 22.5218 1.08179Z" fill="#F74C3C"/>
</svg>
