<svg width="1920" height="122" viewBox="0 0 1920 122" fill="none" xmlns="http://www.w3.org/2000/svg">
<path opacity="0.3" d="M579.2 27H580.2V26H579.2V27ZM579.2 97V98H580.2V97H579.2ZM559.6 97H558.6V98H559.6V97ZM559.6 42.7H560.6V41.7H559.6V42.7ZM533 42.7V41.7H532V42.7H533ZM533 97V98H534V97H533ZM513.5 97H512.5V98H513.5V97ZM513.5 27V26H512.5V27H513.5ZM578.2 27V97H580.2V27H578.2ZM579.2 96H559.6V98H579.2V96ZM560.6 97V42.7H558.6V97H560.6ZM559.6 41.7H533V43.7H559.6V41.7ZM532 42.7V97H534V42.7H532ZM533 96H513.5V98H533V96ZM514.5 97V27H512.5V97H514.5ZM513.5 28H579.2V26H513.5V28ZM604.064 94.3L604.521 93.4107L604.064 94.3ZM593.064 84.3L592.21 84.8204L592.216 84.83L593.064 84.3ZM593.064 55.4L592.216 54.87L592.21 54.8796L593.064 55.4ZM603.964 45.5L604.416 46.3918L604.421 46.3893L603.964 45.5ZM635.564 45.5L635.107 46.3893L635.117 46.3944L635.564 45.5ZM646.464 55.4L645.61 55.9204L645.614 55.9264L646.464 55.4ZM646.464 84.3L647.318 84.8204V84.8204L646.464 84.3ZM635.564 94.3L635.107 93.4107L635.564 94.3ZM627.964 79.4L628.692 80.0854L628.697 80.0801L628.702 80.0748L627.964 79.4ZM627.964 60.4L628.692 59.7146L627.964 60.4ZM611.564 60.4L610.836 59.7146L611.564 60.4ZM611.564 79.4L610.826 80.0748L610.831 80.0801L610.836 80.0854L611.564 79.4ZM619.764 96.9C614.106 96.9 609.032 95.7306 604.521 93.4107L603.607 95.1893C608.429 97.6694 613.822 98.9 619.764 98.9V96.9ZM604.521 93.4107C600.008 91.0894 596.479 87.8772 593.912 83.77L592.216 84.83C594.982 89.2561 598.787 92.7106 603.607 95.1893L604.521 93.4107ZM593.918 83.7796C591.421 79.6824 590.164 75.0318 590.164 69.8H588.164C588.164 75.3682 589.507 80.3843 592.21 84.8204L593.918 83.7796ZM590.164 69.8C590.164 64.6374 591.42 60.0196 593.918 55.9204L592.21 54.8796C589.508 59.3137 588.164 64.296 588.164 69.8H590.164ZM593.912 55.93C596.48 51.8217 599.975 48.645 604.416 46.3918L603.512 44.6082C598.754 47.0217 594.982 50.4449 592.216 54.87L593.912 55.93ZM604.421 46.3893C608.931 44.0703 614.037 42.9 619.764 42.9V40.9C613.757 40.9 608.331 42.1297 603.507 44.6107L604.421 46.3893ZM619.764 42.9C625.491 42.9 630.598 44.0703 635.107 46.3893L636.021 44.6107C631.197 42.1297 625.771 40.9 619.764 40.9V42.9ZM635.117 46.3944C639.623 48.6477 643.112 51.8214 645.61 55.9204L647.318 54.8796C644.616 50.4453 640.838 47.019 636.011 44.6056L635.117 46.3944ZM645.614 55.9264C648.107 59.9536 649.364 64.568 649.364 69.8H651.364C651.364 64.232 650.021 59.2464 647.314 54.8736L645.614 55.9264ZM649.364 69.8C649.364 75.0318 648.107 79.6824 645.61 83.7796L647.318 84.8204C650.021 80.3843 651.364 75.3682 651.364 69.8H649.364ZM645.61 83.7796C643.111 87.8811 639.618 91.0904 635.107 93.4107L636.021 95.1893C640.843 92.7096 644.617 89.2522 647.318 84.8204L645.61 83.7796ZM635.107 93.4107C630.598 95.7297 625.491 96.9 619.764 96.9V98.9C625.771 98.9 631.197 97.6703 636.021 95.1893L635.107 93.4107ZM619.764 83.8C623.351 83.8 626.355 82.5682 628.692 80.0854L627.236 78.7146C625.306 80.7651 622.844 81.8 619.764 81.8V83.8ZM628.702 80.0748C631.048 77.5091 632.164 74.0426 632.164 69.8H630.164C630.164 73.6907 629.147 76.6243 627.226 78.7252L628.702 80.0748ZM632.164 69.8C632.164 65.6206 631.046 62.2152 628.692 59.7146L627.236 61.0854C629.149 63.1181 630.164 65.9794 630.164 69.8H632.164ZM628.692 59.7146C626.355 57.2318 623.351 56 619.764 56V58C622.844 58 625.306 59.0349 627.236 61.0854L628.692 59.7146ZM619.764 56C616.177 56 613.173 57.2318 610.836 59.7146L612.292 61.0854C614.222 59.0349 616.685 58 619.764 58V56ZM610.836 59.7146C608.482 62.2152 607.364 65.6206 607.364 69.8H609.364C609.364 65.9794 610.379 63.1181 612.292 61.0854L610.836 59.7146ZM607.364 69.8C607.364 74.0426 608.48 77.5091 610.826 80.0748L612.302 78.7252C610.381 76.6243 609.364 73.6907 609.364 69.8H607.364ZM610.836 80.0854C613.173 82.5682 616.177 83.8 619.764 83.8V81.8C616.685 81.8 614.222 80.7651 612.292 78.7146L610.836 80.0854ZM696.205 68.9L695.768 68.001L693.524 69.0939L695.901 69.8527L696.205 68.9ZM703.405 73.5L702.627 74.1278L702.638 74.1415L702.65 74.1549L703.405 73.5ZM702.205 90.1L701.48 89.4112L701.48 89.4117L702.205 90.1ZM692.005 96.1L692.304 97.0545L692.313 97.0516L692.005 96.1ZM653.005 93.4L652.072 93.0425L651.73 93.9354L652.606 94.3169L653.005 93.4ZM657.905 80.6L658.292 79.6776L657.34 79.2793L656.972 80.2425L657.905 80.6ZM684.105 82.9L683.672 81.999L683.665 82.0022L683.658 82.0056L684.105 82.9ZM668.605 75H667.605V76H668.605V75ZM668.605 63.9V62.9H667.605V63.9H668.605ZM659.205 59.1L658.265 59.4387L658.609 60.3954L659.56 60.0351L659.205 59.1ZM654.705 46.6L654.322 45.6765L653.442 46.042L653.765 46.9387L654.705 46.6ZM697.005 45.8L696.526 46.6775L696.535 46.6824L697.005 45.8ZM702.305 63.9L701.49 63.3213L702.305 63.9ZM695.901 69.8527C698.893 70.8074 701.11 72.2463 702.627 74.1278L704.184 72.8722C702.368 70.6203 699.785 68.9926 696.51 67.9473L695.901 69.8527ZM702.65 74.1549C704.216 75.962 705.005 78.1254 705.005 80.7H707.005C707.005 77.6746 706.062 75.038 704.161 72.8451L702.65 74.1549ZM705.005 80.7C705.005 84.0375 703.842 86.9259 701.48 89.4112L702.93 90.7887C705.636 87.9407 707.005 84.5625 707.005 80.7H705.005ZM701.48 89.4117C699.156 91.8619 695.914 93.7862 691.698 95.1484L692.313 97.0516C696.763 95.6138 700.322 93.5381 702.931 90.7883L701.48 89.4117ZM691.707 95.1455C687.554 96.4435 682.857 97.1 677.605 97.1V99.1C683.021 99.1 687.924 98.4231 692.304 97.0545L691.707 95.1455ZM677.605 97.1C668.519 97.1 660.459 95.553 653.405 92.4831L652.606 94.3169C659.952 97.5136 668.291 99.1 677.605 99.1V97.1ZM653.939 93.7575L658.839 80.9575L656.972 80.2425L652.072 93.0425L653.939 93.7575ZM657.519 81.5224C663.389 83.9797 669.89 85.2 677.005 85.2V83.2C670.121 83.2 663.888 82.0203 658.292 79.6776L657.519 81.5224ZM677.005 85.2C680.084 85.2 682.625 84.7582 684.553 83.7944L683.658 82.0056C682.119 82.7751 679.927 83.2 677.005 83.2V85.2ZM684.539 83.801C685.543 83.3175 686.366 82.6989 686.938 81.9145C687.519 81.1181 687.805 80.2011 687.805 79.2H685.805C685.805 79.7989 685.642 80.2986 685.323 80.7355C684.995 81.1844 684.468 81.6158 683.672 81.999L684.539 83.801ZM687.805 79.2C687.805 77.4557 687.147 76.0344 685.735 75.152L684.675 76.848C685.397 77.299 685.805 78.0109 685.805 79.2H687.805ZM685.735 75.152C684.431 74.3365 682.57 74 680.305 74V76C682.441 76 683.847 76.3301 684.675 76.848L685.735 75.152ZM680.305 74H668.605V76H680.305V74ZM669.605 75V63.9H667.605V75H669.605ZM668.605 64.9H678.605V62.9H668.605V64.9ZM678.605 64.9C680.908 64.9 682.803 64.5535 684.152 63.728C685.582 62.8534 686.305 61.4962 686.305 59.8H684.305C684.305 60.8371 683.913 61.5299 683.109 62.022C682.224 62.5631 680.769 62.9 678.605 62.9V64.9ZM686.305 59.8C686.305 58.9012 686.07 58.0716 685.572 57.3509C685.081 56.6381 684.373 56.0889 683.516 55.6746C681.828 54.8591 679.421 54.5 676.405 54.5V56.5C679.324 56.5 681.367 56.8576 682.645 57.4754C683.271 57.7778 683.676 58.1244 683.926 58.4866C684.171 58.8409 684.305 59.2655 684.305 59.8H686.305ZM676.405 54.5C671.119 54.5 665.264 55.7349 658.851 58.1649L659.56 60.0351C665.814 57.6651 671.425 56.5 676.405 56.5V54.5ZM660.146 58.7613L655.646 46.2613L653.765 46.9387L658.265 59.4387L660.146 58.7613ZM655.089 47.5235C662.848 44.3017 670.484 42.7 678.005 42.7V40.7C670.193 40.7 662.297 42.3649 654.322 45.6765L655.089 47.5235ZM678.005 42.7C685.56 42.7 691.715 44.0475 696.526 46.6774L697.485 44.9226C692.296 42.0858 685.784 40.7 678.005 40.7V42.7ZM696.535 46.6824C701.274 49.2098 703.505 52.6707 703.505 57.1H705.505C705.505 51.7959 702.737 47.7235 697.476 44.9176L696.535 46.6824ZM703.505 57.1C703.505 59.3533 702.84 61.4188 701.49 63.3213L703.121 64.4787C704.704 62.2479 705.505 59.78 705.505 57.1H703.505ZM701.49 63.3213C700.133 65.2329 698.238 66.7973 695.768 68.001L696.643 69.799C699.373 68.4694 701.544 66.7004 703.121 64.4787L701.49 63.3213ZM759.03 68.6L758.592 67.7008L756.387 68.7734L758.713 69.5487L759.03 68.6ZM762.63 92.9L763.214 93.7119L763.223 93.7051L762.63 92.9ZM715.33 97H714.33V98H715.33V97ZM715.33 42.8V41.8H714.33V42.8H715.33ZM760.83 46.5L760.292 47.3431L760.298 47.3472L760.83 46.5ZM764.73 63.8L763.898 63.2453L764.73 63.8ZM732.33 64.6H731.33V65.6H732.33V64.6ZM732.33 55V54H731.33V55H732.33ZM732.33 74.7V73.7H731.33V74.7H732.33ZM732.33 84.7H731.33V85.7H732.33V84.7ZM758.713 69.5487C761.663 70.532 763.795 72.0099 765.196 73.9378C766.596 75.8648 767.33 78.3292 767.33 81.4H769.33C769.33 78.0041 768.514 75.1019 766.814 72.7622C765.114 70.4234 762.596 68.7346 759.346 67.6513L758.713 69.5487ZM767.33 81.4C767.33 85.9605 765.571 89.4902 762.036 92.0949L763.223 93.7051C767.288 90.7098 769.33 86.5728 769.33 81.4H767.33ZM762.046 92.0882C758.489 94.6466 753.133 96 745.83 96V98C753.327 98 759.17 96.62 763.214 93.7118L762.046 92.0882ZM745.83 96H715.33V98H745.83V96ZM716.33 97V42.8H714.33V97H716.33ZM715.33 43.8H744.43V41.8H715.33V43.8ZM744.43 43.8C751.401 43.8 756.651 45.0203 760.292 47.3431L761.368 45.6569C757.275 43.0464 751.592 41.8 744.43 41.8V43.8ZM760.298 47.3472C763.954 49.6397 765.73 52.7937 765.73 56.9H767.73C767.73 52.0729 765.572 48.2936 761.361 45.6528L760.298 47.3472ZM765.73 56.9C765.73 59.3194 765.112 61.4231 763.898 63.2453L765.562 64.3547C767.014 62.1769 767.73 59.6806 767.73 56.9H765.73ZM763.898 63.2453C762.676 65.0775 760.922 66.5673 758.592 67.7008L759.467 69.4992C762.071 68.2327 764.117 66.5225 765.562 64.3547L763.898 63.2453ZM732.33 65.6H742.73V63.6H732.33V65.6ZM742.73 65.6C745.024 65.6 746.927 65.1793 748.276 64.1779C749.68 63.1351 750.33 61.5812 750.33 59.7H748.33C748.33 61.0855 747.879 61.9816 747.084 62.5721C746.232 63.2041 744.835 63.6 742.73 63.6V65.6ZM750.33 59.7C750.33 57.8693 749.668 56.3634 748.26 55.3604C746.914 54.402 745.018 54 742.73 54V56C744.841 56 746.246 56.3814 747.1 56.9896C747.891 57.5533 748.33 58.3974 748.33 59.7H750.33ZM742.73 54H732.33V56H742.73V54ZM731.33 55V64.6H733.33V55H731.33ZM744.13 85.7C746.521 85.7 748.494 85.2722 749.891 84.2598C751.348 83.204 752.03 81.6238 752.03 79.7H750.03C750.03 81.1095 749.561 82.0293 748.718 82.6403C747.815 83.2945 746.339 83.7 744.13 83.7V85.7ZM752.03 79.7C752.03 77.7875 751.373 76.2088 749.953 75.1486C748.587 74.1293 746.658 73.7 744.33 73.7V75.7C746.468 75.7 747.889 76.104 748.757 76.7514C749.569 77.3579 750.03 78.2792 750.03 79.7H752.03ZM744.33 73.7H732.33V75.7H744.33V73.7ZM731.33 74.7V84.7H733.33V74.7H731.33ZM732.33 85.7H744.13V83.7H732.33V85.7ZM788.927 94.3L789.385 93.4107L788.927 94.3ZM777.927 84.3L777.073 84.8204L777.079 84.83L777.927 84.3ZM777.927 55.4L777.079 54.87L777.073 54.8796L777.927 55.4ZM788.827 45.5L789.28 46.3918L789.285 46.3893L788.827 45.5ZM820.427 45.5L819.97 46.3893L819.98 46.3944L820.427 45.5ZM831.327 55.4L830.473 55.9204L830.477 55.9264L831.327 55.4ZM831.327 84.3L832.181 84.8204L832.181 84.8204L831.327 84.3ZM820.427 94.3L819.97 93.4107L820.427 94.3ZM812.827 79.4L813.556 80.0854L813.56 80.0801L813.565 80.0748L812.827 79.4ZM812.827 60.4L813.556 59.7146L812.827 60.4ZM796.427 60.4L795.699 59.7146L796.427 60.4ZM796.427 79.4L795.689 80.0748L795.694 80.0801L795.699 80.0854L796.427 79.4ZM804.627 96.9C798.969 96.9 793.895 95.7306 789.385 93.4107L788.47 95.1893C793.293 97.6694 798.685 98.9 804.627 98.9V96.9ZM789.385 93.4107C784.871 91.0894 781.342 87.8772 778.775 83.77L777.079 84.83C779.846 89.2561 783.65 92.7106 788.47 95.1893L789.385 93.4107ZM778.781 83.7796C776.285 79.6824 775.027 75.0318 775.027 69.8H773.027C773.027 75.3682 774.37 80.3843 777.073 84.8204L778.781 83.7796ZM775.027 69.8C775.027 64.6374 776.283 60.0196 778.781 55.9204L777.073 54.8796C774.371 59.3137 773.027 64.296 773.027 69.8H775.027ZM778.775 55.93C781.343 51.8217 784.838 48.645 789.28 46.3918L788.375 44.6082C783.617 47.0217 779.845 50.4449 777.079 54.87L778.775 55.93ZM789.285 46.3893C793.794 44.0703 798.901 42.9 804.627 42.9V40.9C798.621 40.9 793.194 42.1297 788.37 44.6107L789.285 46.3893ZM804.627 42.9C810.354 42.9 815.461 44.0703 819.97 46.3893L820.885 44.6107C816.061 42.1297 810.634 40.9 804.627 40.9V42.9ZM819.98 46.3944C824.487 48.6477 827.976 51.8214 830.473 55.9204L832.181 54.8796C829.479 50.4453 825.701 47.019 820.875 44.6056L819.98 46.3944ZM830.477 55.9264C832.97 59.9536 834.227 64.568 834.227 69.8H836.227C836.227 64.232 834.885 59.2464 832.178 54.8736L830.477 55.9264ZM834.227 69.8C834.227 75.0318 832.97 79.6824 830.473 83.7796L832.181 84.8204C834.885 80.3843 836.227 75.3682 836.227 69.8H834.227ZM830.473 83.7796C827.974 87.8811 824.482 91.0904 819.97 93.4107L820.885 95.1893C825.706 92.7096 829.481 89.2522 832.181 84.8204L830.473 83.7796ZM819.97 93.4107C815.461 95.7297 810.354 96.9 804.627 96.9V98.9C810.634 98.9 816.061 97.6703 820.885 95.1893L819.97 93.4107ZM804.627 83.8C808.215 83.8 811.219 82.5682 813.556 80.0854L812.099 78.7146C810.169 80.7651 807.707 81.8 804.627 81.8V83.8ZM813.565 80.0748C815.911 77.5091 817.027 74.0426 817.027 69.8H815.027C815.027 73.6907 814.01 76.6243 812.089 78.7252L813.565 80.0748ZM817.027 69.8C817.027 65.6206 815.909 62.2152 813.556 59.7146L812.099 61.0854C814.012 63.1181 815.027 65.9794 815.027 69.8H817.027ZM813.556 59.7146C811.219 57.2318 808.215 56 804.627 56V58C807.707 58 810.169 59.0349 812.099 61.0854L813.556 59.7146ZM804.627 56C801.04 56 798.036 57.2318 795.699 59.7146L797.156 61.0854C799.085 59.0349 801.548 58 804.627 58V56ZM795.699 59.7146C793.346 62.2152 792.227 65.6206 792.227 69.8H794.227C794.227 65.9794 795.242 63.1181 797.156 61.0854L795.699 59.7146ZM792.227 69.8C792.227 74.0426 793.344 77.5091 795.689 80.0748L797.165 78.7252C795.244 76.6243 794.227 73.6907 794.227 69.8H792.227ZM795.699 80.0854C798.036 82.5682 801.04 83.8 804.627 83.8V81.8C801.548 81.8 799.085 80.7651 797.156 78.7146L795.699 80.0854ZM844.138 42.8V41.8H843.138V42.8H844.138ZM863.038 42.8H864.038V41.8H863.038V42.8ZM863.038 62.9H862.038V63.9H863.038V62.9ZM882.538 62.9V63.9H883.538V62.9H882.538ZM882.538 42.8V41.8H881.538V42.8H882.538ZM901.538 42.8H902.538V41.8H901.538V42.8ZM901.538 97V98H902.538V97H901.538ZM882.538 97H881.538V98H882.538V97ZM882.538 78H883.538V77H882.538V78ZM863.038 78V77H862.038V78H863.038ZM863.038 97V98H864.038V97H863.038ZM844.138 97H843.138V98H844.138V97ZM844.138 43.8H863.038V41.8H844.138V43.8ZM862.038 42.8V62.9H864.038V42.8H862.038ZM863.038 63.9H882.538V61.9H863.038V63.9ZM883.538 62.9V42.8H881.538V62.9H883.538ZM882.538 43.8H901.538V41.8H882.538V43.8ZM900.538 42.8V97H902.538V42.8H900.538ZM901.538 96H882.538V98H901.538V96ZM883.538 97V78H881.538V97H883.538ZM882.538 77H863.038V79H882.538V77ZM862.038 78V97H864.038V78H862.038ZM863.038 96H844.138V98H863.038V96ZM845.138 97V42.8H843.138V97H845.138ZM970.153 42.8H971.153V41.8H970.153V42.8ZM970.153 97V98H971.153V97H970.153ZM952.053 97H951.053V98H952.053V97ZM952.053 91.3H953.053V88.7712L951.324 90.6161L952.053 91.3ZM944.853 96.2L944.478 95.273L944.47 95.2763L944.853 96.2ZM919.153 91.7L918.446 92.4071L918.452 92.4127L919.153 91.7ZM912.953 42.8V41.8H911.953V42.8H912.953ZM931.953 42.8H932.953V41.8H931.953V42.8ZM948.353 78.6L949.095 79.2703L949.101 79.2644L949.106 79.2585L948.353 78.6ZM951.153 42.8V41.8H950.153V42.8H951.153ZM969.153 42.8V97H971.153V42.8H969.153ZM970.153 96H952.053V98H970.153V96ZM953.053 97V91.3H951.053V97H953.053ZM951.324 90.6161C949.426 92.6401 947.148 94.1922 944.478 95.2731L945.228 97.1269C948.158 95.9411 950.68 94.2265 952.783 91.9839L951.324 90.6161ZM944.47 95.2763C941.865 96.3563 939.063 96.9 936.053 96.9V98.9C939.31 98.9 942.374 98.3103 945.236 97.1237L944.47 95.2763ZM936.053 96.9C929.193 96.9 923.831 94.9007 919.855 90.9873L918.452 92.4127C922.875 96.7659 928.78 98.9 936.053 98.9V96.9ZM919.86 90.9929C915.981 87.1132 913.953 81.2125 913.953 73.1H911.953C911.953 81.5208 914.059 88.0201 918.446 92.4071L919.86 90.9929ZM913.953 73.1V42.8H911.953V73.1H913.953ZM912.953 43.8H931.953V41.8H912.953V43.8ZM930.953 42.8V70H932.953V42.8H930.953ZM930.953 70C930.953 74.002 931.727 77.1876 933.439 79.3889C935.188 81.6381 937.789 82.7 941.053 82.7V80.7C938.25 80.7 936.301 79.8119 935.017 78.1611C933.696 76.4624 932.953 73.798 932.953 70H930.953ZM941.053 82.7C944.311 82.7 947.023 81.5644 949.095 79.2703L947.611 77.9297C945.95 79.7689 943.795 80.7 941.053 80.7V82.7ZM949.106 79.2585C951.198 76.8677 952.153 73.3524 952.153 68.9H950.153C950.153 73.1143 949.242 76.0656 947.601 77.9415L949.106 79.2585ZM952.153 68.9V42.8H950.153V68.9H952.153ZM951.153 43.8H970.153V41.8H951.153V43.8ZM1069.41 47.9L1068.69 48.6012L1068.7 48.6071L1069.41 47.9ZM1075.41 97V98H1076.41V97H1075.41ZM1056.41 97H1055.41V98H1056.41V97ZM1054.21 60.7L1053.42 61.3139L1053.43 61.3229L1053.43 61.3317L1054.21 60.7ZM1041.31 61L1040.55 60.3451V60.3451L1041.31 61ZM1038.71 97V98H1039.71V97H1038.71ZM1019.71 97H1018.71V98H1019.71V97ZM1004.51 61L1003.75 60.3451V60.3451L1004.51 61ZM1001.91 97V98H1002.91V97H1001.91ZM982.908 97H981.908V98H982.908V97ZM982.908 42.8V41.8H981.908V42.8H982.908ZM1001.01 42.8H1002.01V41.8H1001.01V42.8ZM1001.01 48.5H1000.01V51.0866L1001.75 49.1727L1001.01 48.5ZM1008.11 43.6L1008.47 44.5316L1008.48 44.5269L1008.11 43.6ZM1027.41 44L1027.83 43.0938L1027.41 44ZM1034.71 50.4L1033.87 50.9457L1034.63 52.1196L1035.5 51.0153L1034.71 50.4ZM1042.81 44.1L1042.4 43.1877L1042.81 44.1ZM1053.51 42.9C1059.96 42.9 1064.98 44.8279 1068.69 48.6011L1070.12 47.1989C1065.96 42.9721 1060.39 40.9 1053.51 40.9V42.9ZM1068.7 48.6071C1072.45 52.352 1074.41 58.0847 1074.41 66H1076.41C1076.41 57.782 1074.37 51.448 1070.11 47.1929L1068.7 48.6071ZM1074.41 66V97H1076.41V66H1074.41ZM1075.41 96H1056.41V98H1075.41V96ZM1057.41 97V69.1H1055.41V97H1057.41ZM1057.41 69.1C1057.41 65.2056 1056.66 62.1293 1054.98 60.0683L1053.43 61.3317C1054.69 62.8707 1055.41 65.3944 1055.41 69.1H1057.41ZM1055 60.0861C1053.38 58.0062 1051.07 57 1048.21 57V59C1050.55 59 1052.24 59.7938 1053.42 61.3139L1055 60.0861ZM1048.21 57C1045.08 57 1042.49 58.1061 1040.55 60.3451L1042.06 61.6549C1043.59 59.8939 1045.6 59 1048.21 59V57ZM1040.55 60.3451C1038.6 62.6025 1037.71 65.9165 1037.71 70.1H1039.71C1039.71 66.1502 1040.55 63.3975 1042.06 61.6549L1040.55 60.3451ZM1037.71 70.1V97H1039.71V70.1H1037.71ZM1038.71 96H1019.71V98H1038.71V96ZM1020.71 97V69.1H1018.71V97H1020.71ZM1020.71 69.1C1020.71 65.3062 1020.01 62.2793 1018.46 60.1808C1016.87 58.0257 1014.49 57 1011.51 57V59C1013.99 59 1015.71 59.8243 1016.85 61.3692C1018.04 62.9707 1018.71 65.4938 1018.71 69.1H1020.71ZM1011.51 57C1008.32 57 1005.7 58.1006 1003.75 60.3451L1005.26 61.6549C1006.78 59.8994 1008.83 59 1011.51 59V57ZM1003.75 60.3451C1001.8 62.6025 1000.91 65.9165 1000.91 70.1H1002.91C1002.91 66.1502 1003.75 63.3975 1005.26 61.6549L1003.75 60.3451ZM1000.91 70.1V97H1002.91V70.1H1000.91ZM1001.91 96H982.908V98H1001.91V96ZM983.908 97V42.8H981.908V97H983.908ZM982.908 43.8H1001.01V41.8H982.908V43.8ZM1000.01 42.8V48.5H1002.01V42.8H1000.01ZM1001.75 49.1727C1003.65 47.0853 1005.88 45.5414 1008.47 44.5316L1007.74 42.6684C1004.87 43.792 1002.37 45.5147 1000.27 47.8273L1001.75 49.1727ZM1008.48 44.5269C1011.15 43.4457 1014.06 42.9 1017.21 42.9V40.9C1013.82 40.9 1010.66 41.4877 1007.73 42.673L1008.48 44.5269ZM1017.21 42.9C1020.88 42.9 1024.14 43.5765 1026.98 44.9062L1027.83 43.0938C1024.68 41.6235 1021.13 40.9 1017.21 40.9V42.9ZM1026.98 44.9062C1029.81 46.2244 1032.1 48.2301 1033.87 50.9457L1035.55 49.8543C1033.58 46.8366 1031.01 44.5756 1027.83 43.0938L1026.98 44.9062ZM1035.5 51.0153C1037.53 48.4146 1040.09 46.4145 1043.22 45.0123L1042.4 43.1877C1038.99 44.7188 1036.16 46.9187 1033.92 49.7847L1035.5 51.0153ZM1043.22 45.0123C1046.35 43.6079 1049.77 42.9 1053.51 42.9V40.9C1049.51 40.9 1045.8 41.6587 1042.4 43.1877L1043.22 45.0123ZM1122.31 82.3L1121.96 81.3649L1121.95 81.3692L1122.31 82.3ZM1128.11 78.7L1128.84 78.0105L1128.18 77.3211L1127.46 77.9426L1128.11 78.7ZM1138.01 89.1L1138.76 89.7585L1139.37 89.0716L1138.74 88.4105L1138.01 89.1ZM1098.31 94.3L1098.76 93.4056L1098.31 94.3ZM1087.11 84.3L1086.26 84.8204L1086.26 84.83L1087.11 84.3ZM1087.11 55.5L1087.96 56.0264L1087.97 56.0204L1087.11 55.5ZM1097.81 45.5L1097.35 44.6134L1097.34 44.6162L1097.81 45.5ZM1127.61 45.2L1127.16 46.0917L1127.17 46.0958L1127.18 46.0998L1127.61 45.2ZM1138.11 54.7L1137.26 55.2264L1137.27 55.2324L1138.11 54.7ZM1142.01 69.5L1142.2 70.4822L1143.01 70.3269V69.5H1142.01ZM1103.31 76.9L1103.12 75.9178L1101.85 76.1611L1102.41 77.3305L1103.31 76.9ZM1105.31 58.5L1106.01 59.2186L1106.01 59.2129L1106.02 59.2071L1105.31 58.5ZM1101.81 67.2L1100.81 67.13L1100.72 68.4318L1102 68.1814L1101.81 67.2ZM1123.81 62.9L1124 63.8814L1125.08 63.6709L1124.77 62.6178L1123.81 62.9ZM1120.01 57.5L1119.41 58.3L1119.42 58.307L1119.43 58.3137L1120.01 57.5ZM1115.61 84.4C1118.3 84.4 1120.67 84.0212 1122.68 83.2308L1121.95 81.3692C1120.22 82.0455 1118.12 82.4 1115.61 82.4V84.4ZM1122.67 83.235C1124.73 82.4519 1126.76 81.183 1128.76 79.4574L1127.46 77.9426C1125.59 79.5503 1123.76 80.6814 1121.96 81.365L1122.67 83.235ZM1127.39 79.3895L1137.29 89.7895L1138.74 88.4105L1128.84 78.0105L1127.39 79.3895ZM1137.26 88.4415C1132.37 94.0289 1125.02 96.9 1115.01 96.9V98.9C1125.41 98.9 1133.39 95.9044 1138.76 89.7585L1137.26 88.4415ZM1115.01 96.9C1108.81 96.9 1103.4 95.7247 1098.76 93.4056L1097.86 95.1944C1102.83 97.6753 1108.55 98.9 1115.01 98.9V96.9ZM1098.76 93.4056C1094.11 91.0822 1090.52 87.8702 1087.96 83.77L1086.26 84.83C1089.03 89.2632 1092.91 92.7178 1097.86 95.1944L1098.76 93.4056ZM1087.97 83.7796C1085.47 79.6824 1084.21 75.0318 1084.21 69.8H1082.21C1082.21 75.3682 1083.55 80.3843 1086.26 84.8204L1087.97 83.7796ZM1084.21 69.8C1084.21 64.6372 1085.47 60.0556 1087.96 56.0264L1086.26 54.9736C1083.56 59.3444 1082.21 64.2961 1082.21 69.8H1084.21ZM1087.97 56.0204C1090.47 51.9116 1093.9 48.7019 1098.28 46.3838L1097.34 44.6162C1092.66 47.0981 1088.95 50.5551 1086.26 54.9796L1087.97 56.0204ZM1098.27 46.3866C1102.72 44.0678 1107.69 42.9 1113.21 42.9V40.9C1107.4 40.9 1102.1 42.1322 1097.35 44.6134L1098.27 46.3866ZM1113.21 42.9C1118.33 42.9 1122.98 43.9687 1127.16 46.0917L1128.06 44.3083C1123.58 42.0313 1118.62 40.9 1113.21 40.9V42.9ZM1127.18 46.0998C1131.4 48.1495 1134.76 51.1858 1137.26 55.2264L1138.96 54.1736C1136.26 49.8142 1132.62 46.5171 1128.05 44.3002L1127.18 46.0998ZM1137.27 55.2324C1139.75 59.1803 1141.01 63.9217 1141.01 69.5H1143.01C1143.01 63.6116 1141.67 58.4864 1138.96 54.1675L1137.27 55.2324ZM1141.82 68.5178L1103.12 75.9178L1103.5 77.8822L1142.2 70.4822L1141.82 68.5178ZM1102.41 77.3305C1104.69 82.1142 1109.22 84.4 1115.61 84.4V82.4C1109.74 82.4 1106.07 80.3525 1104.21 76.4695L1102.41 77.3305ZM1113.31 54.4C1109.81 54.4 1106.88 55.5159 1104.6 57.7929L1106.02 59.2071C1107.88 57.3508 1110.28 56.4 1113.31 56.4V54.4ZM1104.62 57.7814C1102.32 60.0023 1101.09 63.1653 1100.81 67.13L1102.81 67.27C1103.06 63.6347 1104.17 60.9977 1106.01 59.2186L1104.62 57.7814ZM1102 68.1814L1124 63.8814L1123.62 61.9186L1101.62 66.2186L1102 68.1814ZM1124.77 62.6178C1124.04 60.1436 1122.65 58.1537 1120.59 56.6863L1119.43 58.3137C1121.11 59.513 1122.25 61.123 1122.85 63.1822L1124.77 62.6178ZM1120.61 56.7C1118.55 55.1554 1116.1 54.4 1113.31 54.4V56.4C1115.72 56.4 1117.74 57.0446 1119.41 58.3L1120.61 56.7ZM1180.17 42.8V41.8H1179.17V42.8H1180.17ZM1199.07 42.8H1200.07V41.8H1199.07V42.8ZM1199.07 62.9H1198.07V63.9H1199.07V62.9ZM1218.57 62.9V63.9H1219.57V62.9H1218.57ZM1218.57 42.8V41.8H1217.57V42.8H1218.57ZM1237.57 42.8H1238.57V41.8H1237.57V42.8ZM1237.57 97V98H1238.57V97H1237.57ZM1218.57 97H1217.57V98H1218.57V97ZM1218.57 78H1219.57V77H1218.57V78ZM1199.07 78V77H1198.07V78H1199.07ZM1199.07 97V98H1200.07V97H1199.07ZM1180.17 97H1179.17V98H1180.17V97ZM1180.17 43.8H1199.07V41.8H1180.17V43.8ZM1198.07 42.8V62.9H1200.07V42.8H1198.07ZM1199.07 63.9H1218.57V61.9H1199.07V63.9ZM1219.57 62.9V42.8H1217.57V62.9H1219.57ZM1218.57 43.8H1237.57V41.8H1218.57V43.8ZM1236.57 42.8V97H1238.57V42.8H1236.57ZM1237.57 96H1218.57V98H1237.57V96ZM1219.57 97V78H1217.57V97H1219.57ZM1218.57 77H1199.07V79H1218.57V77ZM1198.07 78V97H1200.07V78H1198.07ZM1199.07 96H1180.17V98H1199.07V96ZM1181.17 97V42.8H1179.17V97H1181.17ZM1307.39 42.8H1308.39V41.8H1307.39V42.8ZM1307.39 97V98H1308.39V97H1307.39ZM1289.29 97H1288.29V98H1289.29V97ZM1289.29 91.6H1290.29V88.8579L1288.52 90.9562L1289.29 91.6ZM1259.79 94.5L1259.28 95.3638L1259.29 95.3687L1259.3 95.3735L1259.79 94.5ZM1250.19 84.6L1249.31 85.0798L1249.32 85.0903L1250.19 84.6ZM1250.19 55.1L1249.32 54.6097L1249.31 54.6144L1250.19 55.1ZM1259.79 45.3L1259.3 44.4265L1259.3 44.43L1259.79 45.3ZM1288.39 47.5L1287.67 48.2007L1289.39 49.9453V47.5H1288.39ZM1288.39 42.8V41.8H1287.39V42.8H1288.39ZM1285.49 79.4L1286.22 80.0854L1286.22 80.0801L1286.23 80.0748L1285.49 79.4ZM1285.49 60.4L1286.22 59.7146L1285.49 60.4ZM1269.09 60.4L1268.36 59.7146L1269.09 60.4ZM1269.09 79.4L1268.35 80.0748L1268.36 80.0801L1268.36 80.0854L1269.09 79.4ZM1306.39 42.8V97H1308.39V42.8H1306.39ZM1307.39 96H1289.29V98H1307.39V96ZM1290.29 97V91.6H1288.29V97H1290.29ZM1288.52 90.9562C1285.23 94.8667 1280.22 96.9 1273.29 96.9V98.9C1280.62 98.9 1286.28 96.7333 1290.05 92.2438L1288.52 90.9562ZM1273.29 96.9C1268.51 96.9 1264.18 95.8052 1260.28 93.6265L1259.3 95.3735C1263.53 97.7281 1268.2 98.9 1273.29 98.9V96.9ZM1260.29 93.6362C1256.45 91.3977 1253.38 88.2306 1251.06 84.1097L1249.32 85.0903C1251.8 89.5027 1255.12 92.9357 1259.28 95.3638L1260.29 93.6362ZM1251.07 84.1202C1248.82 80.0216 1247.69 75.2579 1247.69 69.8H1245.69C1245.69 75.542 1246.89 80.6451 1249.31 85.0798L1251.07 84.1202ZM1247.69 69.8C1247.69 64.3416 1248.82 59.6142 1251.06 55.5856L1249.31 54.6144C1246.89 58.9858 1245.69 64.0584 1245.69 69.8H1247.69ZM1251.06 55.5903C1253.38 51.4716 1256.45 48.3411 1260.28 46.17L1259.3 44.43C1255.13 46.7923 1251.8 50.1951 1249.32 54.6097L1251.06 55.5903ZM1260.28 46.1735C1264.18 43.9948 1268.51 42.9 1273.29 42.9V40.9C1268.2 40.9 1263.53 42.0719 1259.3 44.4265L1260.28 46.1735ZM1273.29 42.9C1279.48 42.9 1284.24 44.7 1287.67 48.2007L1289.1 46.7993C1285.21 42.8333 1279.89 40.9 1273.29 40.9V42.9ZM1289.39 47.5V42.8H1287.39V47.5H1289.39ZM1288.39 43.8H1307.39V41.8H1288.39V43.8ZM1277.29 83.8C1280.88 83.8 1283.88 82.5682 1286.22 80.0854L1284.76 78.7146C1282.83 80.7651 1280.37 81.8 1277.29 81.8V83.8ZM1286.23 80.0748C1288.57 77.5091 1289.69 74.0426 1289.69 69.8H1287.69C1287.69 73.6907 1286.67 76.6243 1284.75 78.7252L1286.23 80.0748ZM1289.69 69.8C1289.69 65.6206 1288.57 62.2152 1286.22 59.7146L1284.76 61.0854C1286.67 63.1181 1287.69 65.9794 1287.69 69.8H1289.69ZM1286.22 59.7146C1283.88 57.2318 1280.88 56 1277.29 56V58C1280.37 58 1282.83 59.0349 1284.76 61.0854L1286.22 59.7146ZM1277.29 56C1273.7 56 1270.7 57.2318 1268.36 59.7146L1269.82 61.0854C1271.75 59.0349 1274.21 58 1277.29 58V56ZM1268.36 59.7146C1266.01 62.2152 1264.89 65.6206 1264.89 69.8H1266.89C1266.89 65.9794 1267.9 63.1181 1269.82 61.0854L1268.36 59.7146ZM1264.89 69.8C1264.89 74.0426 1266 77.5091 1268.35 80.0748L1269.83 78.7252C1267.91 76.6243 1266.89 73.6907 1266.89 69.8H1264.89ZM1268.36 80.0854C1270.7 82.5682 1273.7 83.8 1277.29 83.8V81.8C1274.21 81.8 1271.75 80.7651 1269.82 78.7146L1268.36 80.0854ZM1372.52 97H1371.52V98H1372.52V97ZM1372.52 68.5H1373.52V64.8183L1371.66 67.9941L1372.52 68.5ZM1358.62 92.2V93.2H1359.19L1359.48 92.7059L1358.62 92.2ZM1350.52 92.2L1349.65 92.6887L1349.93 93.2H1350.52V92.2ZM1337.02 68.1L1337.89 67.6113L1336.02 64.2686V68.1H1337.02ZM1337.02 97V98H1338.02V97H1337.02ZM1319.92 97H1318.92V98H1319.92V97ZM1319.92 42.8V41.8H1318.92V42.8H1319.92ZM1339.92 42.8L1340.8 42.3292L1340.52 41.8H1339.92V42.8ZM1355.02 71.1L1354.14 71.5707L1354.98 73.1469L1355.88 71.606L1355.02 71.1ZM1371.62 42.8V41.8H1371.05L1370.76 42.294L1371.62 42.8ZM1389.52 42.8L1390.52 42.7981L1390.52 41.8H1389.52V42.8ZM1389.62 97V98H1390.62L1390.62 96.9982L1389.62 97ZM1373.52 97V68.5H1371.52V97H1373.52ZM1371.66 67.9941L1357.76 91.6941L1359.48 92.7059L1373.38 69.0059L1371.66 67.9941ZM1358.62 91.2H1350.52V93.2H1358.62V91.2ZM1351.39 91.7113L1337.89 67.6113L1336.15 68.5887L1349.65 92.6887L1351.39 91.7113ZM1336.02 68.1V97H1338.02V68.1H1336.02ZM1337.02 96H1319.92V98H1337.02V96ZM1320.92 97V42.8H1318.92V97H1320.92ZM1319.92 43.8H1339.92V41.8H1319.92V43.8ZM1339.04 43.2707L1354.14 71.5707L1355.9 70.6292L1340.8 42.3292L1339.04 43.2707ZM1355.88 71.606L1372.48 43.306L1370.76 42.294L1354.16 70.594L1355.88 71.606ZM1371.62 43.8H1389.52V41.8H1371.62V43.8ZM1388.52 42.8018L1388.62 97.0018L1390.62 96.9982L1390.52 42.7981L1388.52 42.8018ZM1389.62 96H1372.52V98H1389.62V96Z" fill="#FFFCF6"/>
<path opacity="0.2" d="M-401.8 27V97H-421.4V42.7H-448V97H-467.5V27H-401.8ZM-361.236 97.9C-367.036 97.9 -372.269 96.7 -376.936 94.3C-381.603 91.9 -385.269 88.5667 -387.936 84.3C-390.536 80.0333 -391.836 75.2 -391.836 69.8C-391.836 64.4667 -390.536 59.6667 -387.936 55.4C-385.269 51.1333 -381.636 47.8333 -377.036 45.5C-372.369 43.1 -367.103 41.9 -361.236 41.9C-355.369 41.9 -350.103 43.1 -345.436 45.5C-340.769 47.8333 -337.136 51.1333 -334.536 55.4C-331.936 59.6 -330.636 64.4 -330.636 69.8C-330.636 75.2 -331.936 80.0333 -334.536 84.3C-337.136 88.5667 -340.769 91.9 -345.436 94.3C-350.103 96.7 -355.369 97.9 -361.236 97.9ZM-361.236 82.8C-357.903 82.8 -355.169 81.6667 -353.036 79.4C-350.903 77.0667 -349.836 73.8667 -349.836 69.8C-349.836 65.8 -350.903 62.6667 -353.036 60.4C-355.169 58.1333 -357.903 57 -361.236 57C-364.569 57 -367.303 58.1333 -369.436 60.4C-371.569 62.6667 -372.636 65.8 -372.636 69.8C-372.636 73.8667 -371.569 77.0667 -369.436 79.4C-367.303 81.6667 -364.569 82.8 -361.236 82.8ZM-284.795 68.9C-281.661 69.9 -279.261 71.4333 -277.595 73.5C-275.861 75.5 -274.995 77.9 -274.995 80.7C-274.995 84.3 -276.261 87.4333 -278.795 90.1C-281.261 92.7 -284.661 94.7 -288.995 96.1C-293.261 97.4333 -298.061 98.1 -303.395 98.1C-312.595 98.1 -320.795 96.5333 -327.995 93.4L-323.095 80.6C-317.361 83 -310.995 84.2 -303.995 84.2C-300.995 84.2 -298.628 83.7667 -296.895 82.9C-295.095 82.0333 -294.195 80.8 -294.195 79.2C-294.195 77.7333 -294.728 76.6667 -295.795 76C-296.861 75.3333 -298.495 75 -300.695 75H-312.395V63.9H-302.395C-297.928 63.9 -295.695 62.5333 -295.695 59.8C-295.695 56.9333 -298.661 55.5 -304.595 55.5C-309.728 55.5 -315.461 56.7 -321.795 59.1L-326.295 46.6C-318.428 43.3333 -310.661 41.7 -302.995 41.7C-295.328 41.7 -288.995 43.0667 -283.995 45.8C-278.995 48.4667 -276.495 52.2333 -276.495 57.1C-276.495 59.5667 -277.228 61.8333 -278.695 63.9C-280.161 65.9667 -282.195 67.6333 -284.795 68.9ZM-221.97 68.6C-215.77 70.6667 -212.67 74.9333 -212.67 81.4C-212.67 86.2667 -214.57 90.1 -218.37 92.9C-222.17 95.6333 -227.77 97 -235.17 97H-265.67V42.8H-236.57C-229.504 42.8 -224.037 44.0333 -220.17 46.5C-216.237 48.9667 -214.27 52.4333 -214.27 56.9C-214.27 59.5 -214.937 61.8 -216.27 63.8C-217.604 65.8 -219.504 67.4 -221.97 68.6ZM-248.67 64.6H-238.27C-233.87 64.6 -231.67 62.9667 -231.67 59.7C-231.67 56.5667 -233.87 55 -238.27 55H-248.67V64.6ZM-236.87 84.7C-232.27 84.7 -229.97 83.0333 -229.97 79.7C-229.97 76.3667 -232.204 74.7 -236.67 74.7H-248.67V84.7H-236.87ZM-176.373 97.9C-182.173 97.9 -187.406 96.7 -192.073 94.3C-196.739 91.9 -200.406 88.5667 -203.073 84.3C-205.673 80.0333 -206.973 75.2 -206.973 69.8C-206.973 64.4667 -205.673 59.6667 -203.073 55.4C-200.406 51.1333 -196.773 47.8333 -192.173 45.5C-187.506 43.1 -182.239 41.9 -176.373 41.9C-170.506 41.9 -165.239 43.1 -160.573 45.5C-155.906 47.8333 -152.273 51.1333 -149.673 55.4C-147.073 59.6 -145.773 64.4 -145.773 69.8C-145.773 75.2 -147.073 80.0333 -149.673 84.3C-152.273 88.5667 -155.906 91.9 -160.573 94.3C-165.239 96.7 -170.506 97.9 -176.373 97.9ZM-176.373 82.8C-173.039 82.8 -170.306 81.6667 -168.173 79.4C-166.039 77.0667 -164.973 73.8667 -164.973 69.8C-164.973 65.8 -166.039 62.6667 -168.173 60.4C-170.306 58.1333 -173.039 57 -176.373 57C-179.706 57 -182.439 58.1333 -184.573 60.4C-186.706 62.6667 -187.773 65.8 -187.773 69.8C-187.773 73.8667 -186.706 77.0667 -184.573 79.4C-182.439 81.6667 -179.706 82.8 -176.373 82.8ZM-136.862 42.8H-117.962V62.9H-98.4617V42.8H-79.4617V97H-98.4617V78H-117.962V97H-136.862V42.8ZM-10.8469 42.8V97H-28.9469V91.3C-30.9469 93.4333 -33.3469 95.0667 -36.1469 96.2C-38.8802 97.3333 -41.8135 97.9 -44.9469 97.9C-52.0135 97.9 -57.6469 95.8333 -61.8469 91.7C-65.9802 87.5667 -68.0469 81.3667 -68.0469 73.1V42.8H-49.0469V70C-49.0469 77.8 -46.0135 81.7 -39.9469 81.7C-36.9469 81.7 -34.5135 80.6667 -32.6469 78.6C-30.7802 76.4667 -29.8469 73.2333 -29.8469 68.9V42.8H-10.8469ZM72.5078 41.9C79.1745 41.9 84.4745 43.9 88.4078 47.9C92.4078 51.9 94.4078 57.9333 94.4078 66V97H75.4078V69.1C75.4078 65.3 74.6745 62.5 73.2078 60.7C71.8078 58.9 69.8078 58 67.2078 58C64.3411 58 62.0411 59 60.3078 61C58.5745 63 57.7078 66.0333 57.7078 70.1V97H38.7078V69.1C38.7078 61.7 35.9745 58 30.5078 58C27.5745 58 25.2411 59 23.5078 61C21.7745 63 20.9078 66.0333 20.9078 70.1V97H1.90781V42.8H20.0078V48.5C22.0078 46.3 24.3745 44.6667 27.1078 43.6C29.9078 42.4667 32.9411 41.9 36.2078 41.9C40.0078 41.9 43.4078 42.6 46.4078 44C49.4078 45.4 51.8411 47.5333 53.7078 50.4C55.8411 47.6667 58.5411 45.5667 61.8078 44.1C65.0745 42.6333 68.6411 41.9 72.5078 41.9ZM134.612 83.4C137.212 83.4 139.445 83.0333 141.312 82.3C143.245 81.5667 145.178 80.3667 147.112 78.7L157.012 89.1C151.878 94.9667 144.212 97.9 134.012 97.9C127.678 97.9 122.112 96.7 117.312 94.3C112.512 91.9 108.778 88.5667 106.112 84.3C103.512 80.0333 102.212 75.2 102.212 69.8C102.212 64.4667 103.512 59.7 106.112 55.5C108.712 51.2333 112.278 47.9 116.812 45.5C121.412 43.1 126.545 41.9 132.212 41.9C137.478 41.9 142.278 43 146.612 45.2C151.012 47.3333 154.512 50.5 157.112 54.7C159.712 58.8333 161.012 63.7667 161.012 69.5L122.312 76.9C124.378 81.2333 128.478 83.4 134.612 83.4ZM132.312 55.4C129.045 55.4 126.378 56.4333 124.312 58.5C122.245 60.5 121.078 63.4 120.812 67.2L142.812 62.9C142.145 60.6333 140.878 58.8333 139.012 57.5C137.145 56.1 134.912 55.4 132.312 55.4ZM199.173 42.8H218.073V62.9H237.573V42.8H256.573V97H237.573V78H218.073V97H199.173V42.8ZM326.388 42.8V97H308.288V91.6C304.755 95.8 299.422 97.9 292.288 97.9C287.355 97.9 282.855 96.7667 278.788 94.5C274.788 92.1667 271.588 88.8667 269.188 84.6C266.855 80.3333 265.688 75.4 265.688 69.8C265.688 64.2 266.855 59.3 269.188 55.1C271.588 50.8333 274.788 47.5667 278.788 45.3C282.855 43.0333 287.355 41.9 292.288 41.9C298.688 41.9 303.722 43.7667 307.388 47.5V42.8H326.388ZM296.288 82.8C299.622 82.8 302.355 81.6667 304.488 79.4C306.622 77.0667 307.688 73.8667 307.688 69.8C307.688 65.8 306.622 62.6667 304.488 60.4C302.355 58.1333 299.622 57 296.288 57C292.955 57 290.222 58.1333 288.088 60.4C285.955 62.6667 284.888 65.8 284.888 69.8C284.888 73.8667 285.955 77.0667 288.088 79.4C290.222 81.6667 292.955 82.8 296.288 82.8ZM391.52 97V68.5L377.62 92.2H369.52L356.02 68.1V97H338.92V42.8H358.92L374.02 71.1L390.62 42.8H408.52L408.62 97H391.52Z" fill="#FFFCF6"/>
<path opacity="0.2" d="M1560.2 27V97H1540.6V42.7H1514V97H1494.5V27H1560.2ZM1600.76 97.9C1594.96 97.9 1589.73 96.7 1585.06 94.3C1580.4 91.9 1576.73 88.5667 1574.06 84.3C1571.46 80.0333 1570.16 75.2 1570.16 69.8C1570.16 64.4667 1571.46 59.6667 1574.06 55.4C1576.73 51.1333 1580.36 47.8333 1584.96 45.5C1589.63 43.1 1594.9 41.9 1600.76 41.9C1606.63 41.9 1611.9 43.1 1616.56 45.5C1621.23 47.8333 1624.86 51.1333 1627.46 55.4C1630.06 59.6 1631.36 64.4 1631.36 69.8C1631.36 75.2 1630.06 80.0333 1627.46 84.3C1624.86 88.5667 1621.23 91.9 1616.56 94.3C1611.9 96.7 1606.63 97.9 1600.76 97.9ZM1600.76 82.8C1604.1 82.8 1606.83 81.6667 1608.96 79.4C1611.1 77.0667 1612.16 73.8667 1612.16 69.8C1612.16 65.8 1611.1 62.6667 1608.96 60.4C1606.83 58.1333 1604.1 57 1600.76 57C1597.43 57 1594.7 58.1333 1592.56 60.4C1590.43 62.6667 1589.36 65.8 1589.36 69.8C1589.36 73.8667 1590.43 77.0667 1592.56 79.4C1594.7 81.6667 1597.43 82.8 1600.76 82.8ZM1677.21 68.9C1680.34 69.9 1682.74 71.4333 1684.41 73.5C1686.14 75.5 1687.01 77.9 1687.01 80.7C1687.01 84.3 1685.74 87.4333 1683.21 90.1C1680.74 92.7 1677.34 94.7 1673.01 96.1C1668.74 97.4333 1663.94 98.1 1658.61 98.1C1649.41 98.1 1641.21 96.5333 1634.01 93.4L1638.91 80.6C1644.64 83 1651.01 84.2 1658.01 84.2C1661.01 84.2 1663.37 83.7667 1665.11 82.9C1666.91 82.0333 1667.81 80.8 1667.81 79.2C1667.81 77.7333 1667.27 76.6667 1666.21 76C1665.14 75.3333 1663.51 75 1661.31 75H1649.61V63.9H1659.61C1664.07 63.9 1666.31 62.5333 1666.31 59.8C1666.31 56.9333 1663.34 55.5 1657.41 55.5C1652.27 55.5 1646.54 56.7 1640.21 59.1L1635.71 46.6C1643.57 43.3333 1651.34 41.7 1659.01 41.7C1666.67 41.7 1673.01 43.0667 1678.01 45.8C1683.01 48.4667 1685.51 52.2333 1685.51 57.1C1685.51 59.5667 1684.77 61.8333 1683.31 63.9C1681.84 65.9667 1679.81 67.6333 1677.21 68.9ZM1740.03 68.6C1746.23 70.6667 1749.33 74.9333 1749.33 81.4C1749.33 86.2667 1747.43 90.1 1743.63 92.9C1739.83 95.6333 1734.23 97 1726.83 97H1696.33V42.8H1725.43C1732.5 42.8 1737.96 44.0333 1741.83 46.5C1745.76 48.9667 1747.73 52.4333 1747.73 56.9C1747.73 59.5 1747.06 61.8 1745.73 63.8C1744.4 65.8 1742.5 67.4 1740.03 68.6ZM1713.33 64.6H1723.73C1728.13 64.6 1730.33 62.9667 1730.33 59.7C1730.33 56.5667 1728.13 55 1723.73 55H1713.33V64.6ZM1725.13 84.7C1729.73 84.7 1732.03 83.0333 1732.03 79.7C1732.03 76.3667 1729.8 74.7 1725.33 74.7H1713.33V84.7H1725.13ZM1785.63 97.9C1779.83 97.9 1774.59 96.7 1769.93 94.3C1765.26 91.9 1761.59 88.5667 1758.93 84.3C1756.33 80.0333 1755.03 75.2 1755.03 69.8C1755.03 64.4667 1756.33 59.6667 1758.93 55.4C1761.59 51.1333 1765.23 47.8333 1769.83 45.5C1774.49 43.1 1779.76 41.9 1785.63 41.9C1791.49 41.9 1796.76 43.1 1801.43 45.5C1806.09 47.8333 1809.73 51.1333 1812.33 55.4C1814.93 59.6 1816.23 64.4 1816.23 69.8C1816.23 75.2 1814.93 80.0333 1812.33 84.3C1809.73 88.5667 1806.09 91.9 1801.43 94.3C1796.76 96.7 1791.49 97.9 1785.63 97.9ZM1785.63 82.8C1788.96 82.8 1791.69 81.6667 1793.83 79.4C1795.96 77.0667 1797.03 73.8667 1797.03 69.8C1797.03 65.8 1795.96 62.6667 1793.83 60.4C1791.69 58.1333 1788.96 57 1785.63 57C1782.29 57 1779.56 58.1333 1777.43 60.4C1775.29 62.6667 1774.23 65.8 1774.23 69.8C1774.23 73.8667 1775.29 77.0667 1777.43 79.4C1779.56 81.6667 1782.29 82.8 1785.63 82.8ZM1825.14 42.8H1844.04V62.9H1863.54V42.8H1882.54V97H1863.54V78H1844.04V97H1825.14V42.8ZM1951.15 42.8V97H1933.05V91.3C1931.05 93.4333 1928.65 95.0667 1925.85 96.2C1923.12 97.3333 1920.19 97.9 1917.05 97.9C1909.99 97.9 1904.35 95.8333 1900.15 91.7C1896.02 87.5667 1893.95 81.3667 1893.95 73.1V42.8H1912.95V70C1912.95 77.8 1915.99 81.7 1922.05 81.7C1925.05 81.7 1927.49 80.6667 1929.35 78.6C1931.22 76.4667 1932.15 73.2333 1932.15 68.9V42.8H1951.15ZM2034.51 41.9C2041.17 41.9 2046.47 43.9 2050.41 47.9C2054.41 51.9 2056.41 57.9333 2056.41 66V97H2037.41V69.1C2037.41 65.3 2036.67 62.5 2035.21 60.7C2033.81 58.9 2031.81 58 2029.21 58C2026.34 58 2024.04 59 2022.31 61C2020.57 63 2019.71 66.0333 2019.71 70.1V97H2000.71V69.1C2000.71 61.7 1997.97 58 1992.51 58C1989.57 58 1987.24 59 1985.51 61C1983.77 63 1982.91 66.0333 1982.91 70.1V97H1963.91V42.8H1982.01V48.5C1984.01 46.3 1986.37 44.6667 1989.11 43.6C1991.91 42.4667 1994.94 41.9 1998.21 41.9C2002.01 41.9 2005.41 42.6 2008.41 44C2011.41 45.4 2013.84 47.5333 2015.71 50.4C2017.84 47.6667 2020.54 45.5667 2023.81 44.1C2027.07 42.6333 2030.64 41.9 2034.51 41.9ZM2096.61 83.4C2099.21 83.4 2101.45 83.0333 2103.31 82.3C2105.25 81.5667 2107.18 80.3667 2109.11 78.7L2119.01 89.1C2113.88 94.9667 2106.21 97.9 2096.01 97.9C2089.68 97.9 2084.11 96.7 2079.31 94.3C2074.51 91.9 2070.78 88.5667 2068.11 84.3C2065.51 80.0333 2064.21 75.2 2064.21 69.8C2064.21 64.4667 2065.51 59.7 2068.11 55.5C2070.71 51.2333 2074.28 47.9 2078.81 45.5C2083.41 43.1 2088.55 41.9 2094.21 41.9C2099.48 41.9 2104.28 43 2108.61 45.2C2113.01 47.3333 2116.51 50.5 2119.11 54.7C2121.71 58.8333 2123.01 63.7667 2123.01 69.5L2084.31 76.9C2086.38 81.2333 2090.48 83.4 2096.61 83.4ZM2094.31 55.4C2091.05 55.4 2088.38 56.4333 2086.31 58.5C2084.25 60.5 2083.08 63.4 2082.81 67.2L2104.81 62.9C2104.15 60.6333 2102.88 58.8333 2101.01 57.5C2099.15 56.1 2096.91 55.4 2094.31 55.4ZM2161.17 42.8H2180.07V62.9H2199.57V42.8H2218.57V97H2199.57V78H2180.07V97H2161.17V42.8ZM2288.39 42.8V97H2270.29V91.6C2266.75 95.8 2261.42 97.9 2254.29 97.9C2249.35 97.9 2244.85 96.7667 2240.79 94.5C2236.79 92.1667 2233.59 88.8667 2231.19 84.6C2228.85 80.3333 2227.69 75.4 2227.69 69.8C2227.69 64.2 2228.85 59.3 2231.19 55.1C2233.59 50.8333 2236.79 47.5667 2240.79 45.3C2244.85 43.0333 2249.35 41.9 2254.29 41.9C2260.69 41.9 2265.72 43.7667 2269.39 47.5V42.8H2288.39ZM2258.29 82.8C2261.62 82.8 2264.35 81.6667 2266.49 79.4C2268.62 77.0667 2269.69 73.8667 2269.69 69.8C2269.69 65.8 2268.62 62.6667 2266.49 60.4C2264.35 58.1333 2261.62 57 2258.29 57C2254.95 57 2252.22 58.1333 2250.09 60.4C2247.95 62.6667 2246.89 65.8 2246.89 69.8C2246.89 73.8667 2247.95 77.0667 2250.09 79.4C2252.22 81.6667 2254.95 82.8 2258.29 82.8ZM2353.52 97V68.5L2339.62 92.2H2331.52L2318.02 68.1V97H2300.92V42.8H2320.92L2336.02 71.1L2352.62 42.8H2370.52L2370.62 97H2353.52Z" fill="#FFFCF6"/>
<circle opacity="0.1" cx="1442" cy="61" r="15" fill="#FFFCF6"/>
<circle opacity="0.3" cx="461" cy="61" r="14.5" stroke="#FFFCF6"/>
</svg>
