<svg width="18" height="25" viewBox="0 0 18 25" fill="none" xmlns="http://www.w3.org/2000/svg">
<path opacity="0.2" d="M6.98402 1.25983L6.98402 1.25983C5.66928 1.60557 4.45499 2.30377 3.46016 3.29324C2.98437 3.76649 2.67323 4.14908 2.33537 4.67155C1.64918 5.73271 1.24408 6.81858 1.04744 8.15032C1.02024 8.33451 0.999879 8.76818 1 9.26515C1.00012 9.76136 1.02062 10.1982 1.04828 10.3876L1.04828 10.3876C1.24615 11.7424 1.73059 12.9966 2.43812 14.0253L2.43815 14.0254C2.54711 14.1838 3.97027 16.4186 5.58323 18.9617C6.39476 20.2412 7.14871 21.4278 7.70961 22.3088C7.99011 22.7493 8.22208 23.113 8.38874 23.3736C8.47213 23.5039 8.53875 23.6078 8.58675 23.6823C8.62591 23.743 8.64678 23.775 8.65459 23.787C8.65752 23.7915 8.65861 23.7931 8.65815 23.7925C8.76085 23.9411 8.86168 23.9893 8.99504 23.9989L8.99507 23.9989C9.0907 24.0059 9.18449 23.9811 9.28392 23.8756C9.28722 23.8708 9.29107 23.8651 9.29549 23.8585C9.323 23.8176 9.3627 23.7575 9.41484 23.6779C9.51865 23.5192 9.66524 23.2927 9.84881 23.0075C10.2156 22.4375 10.7259 21.6394 11.328 20.6942C12.5321 18.804 14.1013 16.3289 15.6199 13.9215C16.3167 12.817 16.7057 11.797 16.8969 10.6023C17.1849 8.80305 16.8616 6.85813 16.0262 5.30478C14.6988 2.8364 12.3433 1.26346 9.67372 1.02351L9.67369 1.02351C9.37994 0.997095 8.65856 0.991801 8.37834 1.01339L6.98402 1.25983ZM6.98402 1.25983C7.37889 1.15599 8.05581 1.03825 8.37831 1.01339L6.98402 1.25983Z" stroke="black" stroke-width="2"/>
<circle cx="9" cy="9" r="3" fill="#C4C4C4"/>
</svg>
