<svg width="20" height="25" viewBox="0 0 20 25" fill="none" xmlns="http://www.w3.org/2000/svg">
<path d="M7.70775 1.26583L7.70775 1.26583C6.21183 1.61988 4.84192 2.33222 3.72805 3.32931C3.19609 3.8055 2.84918 4.18979 2.47394 4.71204C1.71252 5.77179 1.26746 6.84945 1.05143 8.16614C1.02259 8.34192 0.999866 8.76852 1 9.26513C1.00013 9.76089 1.023 10.1909 1.05239 10.3719L1.0524 10.372C1.26964 11.7106 1.80237 12.9566 2.58809 13.9848L2.58813 13.9849C2.70919 14.1433 4.29057 16.3782 6.0827 18.9212C6.9844 20.2008 7.82212 21.3874 8.44534 22.2683C8.75701 22.7089 9.01474 23.0726 9.19992 23.3331C9.29258 23.4635 9.36659 23.5673 9.41992 23.6418C9.4636 23.7028 9.48678 23.7348 9.49538 23.7466C9.49856 23.751 9.49974 23.7526 9.49925 23.752C9.61465 23.9022 9.75772 23.984 9.9793 23.9984C10.1611 24.0103 10.3113 23.9555 10.4357 23.8361C10.4395 23.831 10.444 23.825 10.4493 23.818C10.4798 23.7771 10.5239 23.717 10.5819 23.6373C10.6972 23.4787 10.8601 23.2522 11.064 22.967C11.4716 22.3971 12.0385 21.599 12.7076 20.6537C14.0454 18.7635 15.789 16.2885 17.4764 13.881C18.2499 12.7775 18.6771 11.7652 18.887 10.5852C19.2024 8.81184 18.85 6.88863 17.9271 5.34408C16.4572 2.88415 13.8159 1.27088 10.7674 1.02427L10.7674 1.02427C10.4297 0.996943 9.61644 0.991528 9.29308 1.01395L7.70775 1.26583ZM7.70775 1.26583C8.15593 1.15975 8.92027 1.03981 9.29306 1.01395L7.70775 1.26583Z" stroke="black" stroke-width="2"/>
<circle cx="10" cy="9" r="3" fill="black"/>
</svg>
