<svg width="120" height="148" viewBox="0 0 120 148" fill="none" xmlns="http://www.w3.org/2000/svg">
<path opacity="0.5" d="M42.4351 45.0758L42.435 45.0757C40.1296 43.8531 37.0849 43.4882 34.8381 44.1393L34.6989 43.659L34.8381 44.1393C31.8906 44.9933 29.4267 47.0938 28.2053 49.777L27.7503 49.5698L28.2053 49.777C25.9562 54.7175 27.4789 60.4586 31.794 63.436L31.51 63.8475L31.794 63.436C35.8745 66.2515 41.4288 65.6093 44.7742 61.932C48.6937 57.6234 48.6432 51.0337 44.6785 46.9065L42.4351 45.0758ZM42.4351 45.0758C42.9512 45.3493 43.9752 46.1746 44.6785 46.9065L42.4351 45.0758ZM89.1927 61.5268L89.1926 61.5268C88.1141 61.0596 86.1395 60.1544 84.8007 59.5135C80.6716 57.537 76.8426 55.7729 73.9214 54.4882C72.4604 53.8456 71.2297 53.3244 70.3036 52.9569C69.8402 52.773 69.4571 52.6293 69.1617 52.5284C68.8518 52.4226 68.6769 52.3778 68.6092 52.3695C68.1887 52.3184 67.9012 52.3226 67.6272 52.3825C67.3483 52.4435 67.0491 52.5698 66.615 52.8125C57.4674 57.9277 51.9308 61.1368 46.5822 64.4225L46.3205 63.9965L46.5822 64.4225C42.314 67.0444 41.2801 67.5424 37.1083 68.975L36.9459 68.5021L37.1082 68.975C33.1861 70.3218 32.0654 70.6317 26.0012 72.0544L26.0011 72.0544C23.6772 72.5995 22.4243 72.8889 21.696 72.9792C21.3305 73.0244 21.0339 73.0292 20.7759 72.9569C20.4964 72.8785 20.3197 72.7252 20.183 72.5984C18.3428 70.8913 15.0415 68.0053 12.1148 65.5078C10.6521 64.2597 9.28588 63.1109 8.24535 62.2572C7.72473 61.8301 7.28806 61.4788 6.96263 61.2264C6.79957 61.1 6.66771 61.0009 6.56882 60.9304C6.49679 60.8791 6.45689 60.8537 6.44094 60.8436C6.43144 60.8375 6.43044 60.8369 6.4362 60.8394C2.88403 59.2956 -0.7848 63.1579 0.934418 66.85C1.09005 67.1842 1.51742 67.7248 2.57303 68.7562C3.61133 69.7707 5.20552 71.2125 7.62335 73.3415C11.0832 76.3877 14.617 79.5187 15.4749 80.298L15.4749 80.2981C17.5033 82.1411 18.5888 82.6589 19.8497 82.6378C19.9548 82.636 20.2927 82.5832 20.8732 82.4643C21.4309 82.3501 22.1655 82.1854 23.0264 81.9821C24.7475 81.5756 26.9626 81.017 29.2551 80.4047L37.6053 78.1745L37.8606 78.1064L38.0607 78.2788L41.9707 81.6478L41.9707 81.6478C44.121 83.5008 49.6503 88.2634 54.2578 92.2311L53.9315 92.61L54.2578 92.2311L62.635 99.4454L62.68 99.4841L62.7146 99.5323L66.2047 104.383C68.1241 107.051 70.8635 110.855 72.2927 112.835L72.2927 112.835L74.8911 116.436L75.046 116.651L74.9554 116.9L73.7052 120.335C73.0172 122.225 71.9433 125.146 71.3184 126.827C68.8225 133.541 67.5015 137.125 66.8172 139.232C66.1366 141.327 66.1076 141.898 66.1566 142.604C66.1975 143.191 66.2611 143.575 66.3728 143.896C66.4822 144.211 66.6478 144.494 66.933 144.863C68.2032 146.506 70.1581 147.023 71.9815 146.231C72.4416 146.031 72.7584 145.871 73.0303 145.654C73.2964 145.441 73.5436 145.156 73.8224 144.678C74.3971 143.693 75.0484 142.001 76.2542 138.731C77.1507 136.301 78.641 132.28 79.5663 129.797C81.8431 123.687 83.1495 120.136 83.8869 117.965C84.6308 115.775 84.772 115.05 84.772 114.552C84.772 114.21 84.7664 113.985 84.713 113.725C84.6592 113.462 84.5515 113.141 84.3204 112.631C83.853 111.599 82.9299 109.901 81.0912 106.534C79.5893 103.785 77.712 100.34 76.9193 98.8785C76.1246 97.4141 75.2772 95.9065 75.0343 95.5214C74.8941 95.299 74.7807 95.07 74.7259 94.8723C74.7019 94.7853 74.6695 94.6381 74.7011 94.4826C74.7185 94.3969 74.7627 94.2737 74.8744 94.1711C74.9934 94.0618 75.1358 94.0244 75.2552 94.0244C75.3334 94.0244 75.4021 94.0431 75.4177 94.0472C75.4495 94.0554 75.4832 94.0657 75.5157 94.0763C75.5815 94.0977 75.6652 94.1276 75.763 94.1643C75.96 94.238 76.2336 94.3459 76.5768 94.4849C77.2642 94.7633 78.2432 95.1715 79.4727 95.6918C81.9322 96.7327 85.401 98.2257 89.5582 100.035L92.7509 101.424L93.0113 101.538L93.0474 101.819L93.3324 104.048C93.6953 106.883 93.7503 107.349 94.8383 116.771L94.3416 116.828L94.8383 116.771C95.0866 118.922 95.3443 120.96 95.5591 122.509C95.6666 123.285 95.763 123.935 95.842 124.416C95.8815 124.656 95.9162 124.851 95.9451 124.996C95.9596 125.068 95.9721 125.125 95.9824 125.168C95.9907 125.201 95.9958 125.218 95.9972 125.223C95.9978 125.225 95.9978 125.225 95.9972 125.223M89.1927 61.5268L98.1706 92.7407C96.939 92.1127 85.2745 84.7553 81.4407 82.1885M89.1927 61.5268C90.8391 62.2398 91.8955 62.9282 92.5443 63.7022C93.1763 64.4563 93.4562 65.3338 93.4562 66.5139C93.4562 68.9027 91.826 70.7047 89.5945 70.8725L89.632 71.3711M89.1927 61.5268L74.7789 64.7574M95.9972 125.223C97.2334 128.444 101.373 128.992 103.426 126.195L103.829 126.49L103.426 126.195C103.663 125.872 103.829 125.563 103.938 125.121C104.05 124.665 104.107 124.047 104.089 123.103C104.053 121.207 103.724 118.123 103.071 112.639C102.436 107.31 101.786 101.69 101.628 100.152M95.9972 125.223L95.5304 125.402L95.9972 125.223C95.9972 125.223 95.9972 125.223 95.9972 125.223ZM101.628 100.152L102.125 100.1L101.628 100.152C101.628 100.152 101.628 100.152 101.628 100.152ZM101.628 100.152C101.375 97.6977 101.12 96.3284 100.614 95.385C100.128 94.4805 99.3806 93.9189 97.9435 93.1861C97.3013 92.8586 94.0491 90.8438 90.5147 88.6146C86.9654 86.3759 83.0857 83.8916 81.1625 82.604L81.4407 82.1885M81.4407 82.1885L81.1625 82.604C80.6762 82.2783 78.6173 80.9498 76.5847 79.6497C74.4647 78.294 71.0275 75.7251 68.6142 73.695C66.2901 71.7398 63.6709 69.5379 62.7931 68.8022L62.793 68.8021C62.349 68.4297 61.9427 68.0711 61.6451 67.7923C61.4972 67.6537 61.3707 67.5297 61.2786 67.4311C61.2336 67.383 61.1888 67.3324 61.1524 67.2844C61.1347 67.2612 61.1109 67.2279 61.0891 67.1887L61.088 67.1868C61.0755 67.1645 61.018 67.0617 61.018 66.9231C61.018 66.7548 61.1013 66.6411 61.1191 66.6168L61.1198 66.6158C61.1497 66.5749 61.1805 66.5448 61.1984 66.5281C61.236 66.4929 61.2775 66.4618 61.3109 66.4379C61.3813 66.3876 61.4744 66.3285 61.5797 66.2648C61.7931 66.1356 62.0927 65.966 62.4464 65.7721C63.1556 65.3833 64.1021 64.8858 65.0581 64.3959C66.0142 63.9061 66.9838 63.422 67.7394 63.0603C68.1165 62.8797 68.4443 62.7278 68.692 62.6205C68.8151 62.5672 68.9245 62.5222 69.0129 62.4899C69.0567 62.474 69.1022 62.4586 69.1454 62.4466C69.1726 62.4391 69.2549 62.4161 69.3485 62.4189L69.349 62.4189C69.4367 62.4217 69.5185 62.4485 69.5349 62.4535C69.5737 62.4655 69.6178 62.4809 69.6638 62.4978C69.7568 62.5321 69.8787 62.5803 70.0234 62.6397C70.3139 62.7589 70.7122 62.9293 71.1881 63.1377C72.1407 63.5548 73.4141 64.1282 74.7789 64.7574M81.4407 82.1885C80.949 81.8593 78.8849 80.5274 76.8541 79.2285C74.7563 77.887 71.3368 75.3319 68.9361 73.3123C66.612 71.3573 63.9925 69.1551 63.1143 68.419C62.2365 67.6827 61.518 67.0096 61.518 66.9231C61.518 66.721 68.9611 62.9076 69.3335 62.9187M74.5696 65.2115C71.8443 63.955 69.4881 62.9235 69.3335 62.9187M74.5696 65.2115C77.2952 66.4677 81.4695 68.3925 83.8462 69.4885C87.8959 71.3562 88.2591 71.4744 89.632 71.3711M74.5696 65.2115L74.779 64.7574C74.7789 64.7574 74.7789 64.7574 74.7789 64.7574M74.5696 65.2115L74.7789 64.7574M69.3335 62.9187L93.9562 66.5139C93.9562 69.1455 92.1427 71.1823 89.632 71.3711M69.3335 62.9187L74.7789 64.7574M89.632 71.3711L89.5945 70.8725C88.9501 70.921 88.5856 70.9173 87.8976 70.6935C87.1638 70.4547 86.0924 69.9739 84.0556 69.0345C81.6789 67.9384 77.5045 66.0136 74.7789 64.7574M75.6854 94.5865C75.6855 94.5865 75.686 94.5888 75.6866 94.5931C75.6856 94.5886 75.6853 94.5865 75.6854 94.5865ZM75.1678 95.0154C75.1685 95.0156 75.1696 95.0159 75.171 95.0163C75.162 95.0144 75.1601 95.0135 75.1678 95.0154Z" stroke="#FFFCF6"/>
<path d="M83.1163 11.9477C79.3313 18.5189 76.1426 23.8952 76.0307 23.8952C75.9186 23.8952 73.7302 20.6144 71.1673 16.6047C68.4887 12.4137 66.488 8.22575 66.3435 9.63477C66.253 9.81107 66.0975 12.1503 65.9976 14.8332C65.8978 17.516 65.7785 19.9655 65.7327 20.2764C65.6873 20.5873 65.578 22.7535 65.4904 25.0901C65.3192 29.6448 65.1343 31.598 64.874 31.5911C64.7846 31.5887 62.1829 29.3907 59.0924 26.7068C56.0018 24.0227 53.702 20.8063 53.4238 21.8722C53.3968 21.8971 53.6522 24.7223 53.9914 28.1505L55.1334 39.6938C55.422 42.6146 55.7037 45.1238 55.7589 45.2698C55.8141 45.4159 55.8685 41.7415 55.8794 37.105C55.8904 32.4684 55.9857 28.6786 56.0912 28.6834C56.1967 28.6882 58.8114 30.5373 61.902 32.7929L67.5212 36.8936L67.8484 33.9126C68.4394 28.5283 69.4284 20.3635 69.4984 20.291C69.5362 20.2517 71.1617 22.4208 73.1108 25.111C75.0599 27.8011 76.7319 30.0022 76.8264 30.0022C76.9211 30.0022 77.6774 28.8969 78.5076 27.5462C80.7509 23.8955 83.1255 20.0465 84.6013 17.6692L85.9114 15.5589L86.069 18.0675C86.1558 19.4474 86.3124 22.6074 86.4174 25.0901C86.5221 27.5727 86.6409 29.9624 86.6812 30.4005C86.7216 30.8386 86.766 31.4066 86.7801 31.6628C86.8005 32.0375 88.0099 31.5022 92.9564 28.9293C97.3892 26.6237 99.0691 25.8633 98.9707 26.2066C98.8956 26.4687 98.5454 27.8781 98.1927 29.3384C97.84 30.7988 97.0311 34.0162 96.3951 36.4879C95.7591 38.9597 95.2914 41.0368 95.356 41.1038C95.4651 41.2174 97.9881 40.9118 104.812 39.9586C109.085 39.3617 110.559 39.2199 110.559 39.4057C110.559 39.4989 108.888 42.8732 106.846 46.9044C104.804 50.9355 103.166 54.2676 103.207 54.309C103.247 54.3504 104.717 54.6473 106.473 54.9686C108.229 55.2899 109.703 55.5878 109.748 55.6305C109.793 55.6733 109.096 56.7651 108.197 58.0566C103.621 64.6349 101.343 68.0578 101.777 67.7033C102.041 67.4867 105.764 64.2621 110.049 60.5379C114.333 56.8137 118.388 53.3016 119.059 52.7334C119.957 51.9723 119.104 51.2033 117.929 51.122C115.582 50.9594 111.649 50.7413 110.223 50.6719C109.237 50.6238 109.014 50.5277 109.1 50.187C109.158 49.9531 111.561 45.9432 114.438 41.2761C115.258 39.9468 115.964 38.8101 116.57 37.8385C119.02 33.9124 117.325 32.9159 112.858 34.1242C109.416 35.0549 105.055 36.237 103.165 36.7508C101.276 37.2648 99.679 37.632 99.6167 37.5673C99.5544 37.5025 99.7349 36.879 100.018 36.182C100.471 35.0663 101.558 32.3627 107.022 18.7534C107.871 16.6385 107.065 16.1427 105.091 17.2804C103.632 18.1208 101.773 19.2023 99.7615 20.3834C95.1573 23.0864 91.3462 25.2512 91.2923 25.1941C91.2387 25.1368 91.1232 23.5965 91.0361 21.771C90.949 19.9456 90.8259 17.6156 90.7628 16.5933C90.6995 15.5711 90.5736 12.4047 90.4829 9.55697C90.3922 6.70923 90.2461 3.39391 90.1582 2.18977C90.1098 1.52744 89.2337 1.32711 88.9022 1.90258L83.1163 11.9477Z" fill="#F74C3C"/>
</svg>
