<svg width="181" height="80" viewBox="0 0 181 80" fill="none" xmlns="http://www.w3.org/2000/svg">
<path opacity="0.5" d="M51.7488 36.0028L51.7487 36.0028C51.0896 35.6358 50.8193 34.8747 50.7998 34.1754C50.7797 33.4597 51.0106 32.6636 51.5261 32.0711L51.7488 36.0028ZM51.7488 36.0028C51.8459 36.0568 51.9568 36.0774 52.001 36.0856L52.0031 36.0859C52.0707 36.0985 52.1513 36.1094 52.2396 36.1193C52.4175 36.1392 52.6557 36.1582 52.9439 36.1764C53.522 36.2129 54.3245 36.2479 55.2989 36.2806C57.2489 36.3461 59.9017 36.4032 62.8552 36.4462C68.7621 36.5321 75.8819 36.5616 81.004 36.4878C82.1058 36.472 82.8481 35.642 83.1239 34.7437M51.7488 36.0028L83.1239 34.7437M83.1239 34.7437C83.4007 33.8426 83.2634 32.7213 82.4624 31.9673M83.1239 34.7437L82.4624 31.9673M82.4624 31.9673C82.2155 31.7348 81.8992 31.5941 81.4104 31.4965C80.9314 31.4007 80.2366 31.337 79.1869 31.2922C77.0806 31.2024 73.4359 31.1854 66.9789 31.1854C60.2222 31.1854 56.5833 31.1967 54.5629 31.2923M82.4624 31.9673L82.1233 32.3275L82.4624 31.9673C82.4624 31.9673 82.4624 31.9673 82.4624 31.9673ZM82.4624 31.9673L54.5629 31.2923M54.5629 31.2923C53.5584 31.3399 52.9155 31.4095 52.4779 31.5215M54.5629 31.2923L52.4779 31.5215M52.4779 31.5215C52.0039 31.6428 51.7433 31.8215 51.5261 32.0711L52.4779 31.5215ZM21.8968 15.3575L21.8968 15.3577C22.0281 15.9017 22.1072 16.1327 22.3131 16.3106C22.5375 16.5044 22.9905 16.6948 24.0676 16.8346C26.203 17.1118 30.3421 17.1492 38.6506 17.2126C45.9761 17.2684 49.8288 17.3056 51.911 17.4204C52.9437 17.4773 53.5875 17.555 54.0138 17.6804C54.2354 17.7456 54.418 17.8289 54.573 17.943C54.7298 18.0584 54.8323 18.1864 54.9116 18.2994C55.7587 19.5047 55.7258 21.0624 54.6914 22.036C54.4231 22.2886 54.0543 22.4214 53.4551 22.5137C52.8509 22.6068 51.9252 22.6697 50.4589 22.7139C47.5185 22.8026 42.3106 22.8179 32.9331 22.8179C25.4131 22.8179 20.1791 22.849 16.7518 22.9212C15.0373 22.9573 13.7813 23.0036 12.9197 23.0608C12.4882 23.0895 12.1635 23.1204 11.9332 23.1529C11.8178 23.1691 11.7332 23.1848 11.6744 23.1988C11.6385 23.2074 11.6205 23.2134 11.6149 23.2153C10.5929 23.7851 10.1319 24.5659 10.1111 25.3914C10.0904 26.2113 10.5009 27.1865 11.464 28.1622C11.563 28.1693 11.7037 28.1776 11.8838 28.1869C12.2709 28.2069 12.8278 28.2309 13.5141 28.2575C14.886 28.3105 16.7685 28.3731 18.8301 28.4323L18.8301 28.4324L26.3317 28.6486L26.6417 28.6575L26.7714 28.9393L27.2751 30.0333L27.2751 30.0334C27.491 30.5026 27.6484 30.9097 27.6279 31.3359C27.6071 31.7695 27.4068 32.1435 27.1456 32.5581L27.1456 32.5581C27.0025 32.7852 26.8434 33.0333 26.5972 33.227C26.3395 33.4297 26.0304 33.542 25.6332 33.6112C24.8767 33.743 23.5938 33.7467 21.2389 33.7467C18.4834 33.7467 16.7336 33.8684 15.6052 34.1774C15.0494 34.3296 14.6738 34.52 14.4096 34.7406C14.1509 34.9566 13.9734 35.2229 13.846 35.5716L13.8459 35.5718C13.5699 36.3263 13.5006 36.7013 13.5591 37.0217C13.6188 37.3488 13.8263 37.7024 14.3636 38.3665L13.9749 38.681L14.3636 38.3665L15.1851 39.382H27.2393C32.9481 39.382 36.0499 39.3943 37.7945 39.4907C38.6621 39.5387 39.2343 39.6089 39.6363 39.7233C40.0736 39.8478 40.3221 40.0282 40.5304 40.2677C41.5767 41.4701 41.5069 43.4352 40.2344 44.3622C39.9487 44.5704 39.5549 44.6875 38.9518 44.7718C38.3384 44.8576 37.436 44.9175 36.0734 44.9604C33.3434 45.0464 28.692 45.0658 20.6437 45.0658C15.5682 45.0658 10.8865 45.0931 7.4327 45.137C5.70549 45.159 4.28722 45.185 3.28099 45.2139C2.77736 45.2283 2.38018 45.2434 2.10026 45.2587C1.95971 45.2665 1.85342 45.274 1.77992 45.2811C1.75733 45.2833 1.73977 45.2853 1.72659 45.2869C1.60827 45.3438 1.4567 45.4663 1.29199 45.674C1.11657 45.8953 0.951056 46.1824 0.816301 46.5022C0.538828 47.1608 0.434342 47.852 0.541077 48.2968L0.541101 48.2969C0.548637 48.3283 0.555978 48.359 0.563144 48.3889C0.707272 48.9912 0.780532 49.2973 0.948565 49.5221C1.09148 49.7132 1.35714 49.9016 2.10028 50.0391C2.84718 50.1772 3.9784 50.2473 5.74176 50.2807C7.35095 50.3112 9.45777 50.311 12.2355 50.3108C12.4883 50.3108 12.7467 50.3107 13.0108 50.3107C18.5465 50.3107 21.4588 50.3181 23.1024 50.4244C23.9234 50.4774 24.4682 50.557 24.8799 50.6887C25.3155 50.8281 25.5795 51.0188 25.8412 51.2328C26.4474 51.7286 26.8707 52.2729 26.96 52.9367C27.0488 53.5964 26.7896 54.2444 26.344 54.9061C26.3439 54.9061 26.3439 54.9062 26.3439 54.9062L25.9292 54.6269C25.3543 55.4809 25.2079 55.4945 16.7058 55.4945L21.8968 15.3575ZM21.8968 15.3575C21.7851 14.8953 21.8684 14.2036 22.1151 13.5387C22.3559 12.8897 22.6976 12.412 22.9914 12.2248C23.0031 12.2227 23.0182 12.2202 23.0373 12.2173C23.1135 12.206 23.2256 12.1938 23.3771 12.1812C23.6784 12.1562 24.1082 12.132 24.6622 12.1092C25.7685 12.0635 27.3497 12.0238 29.3446 11.9912C33.3334 11.9259 38.9641 11.8891 45.7326 11.8891C46.3445 11.8891 46.9408 11.8892 47.522 11.8892C58.578 11.8899 64.1535 11.8903 66.9547 11.6163C67.6959 11.5438 68.2679 11.4501 68.7066 11.324C69.1428 11.1987 69.4902 11.0295 69.7387 10.7768C69.9997 10.5115 70.1035 10.2041 70.1446 9.90541C70.1753 9.68193 70.1735 9.42949 70.1719 9.19724C70.1715 9.14609 70.1712 9.09592 70.1712 9.04726C70.1712 8.98643 70.1721 8.92187 70.173 8.85516C70.176 8.63687 70.1793 8.39567 70.1528 8.18754C70.1135 7.87998 70.0048 7.56325 69.7197 7.29487C69.4533 7.04413 69.0781 6.87929 68.6008 6.75694C68.1184 6.63327 67.4811 6.54086 66.6434 6.46934C63.5277 6.20332 57.3142 6.20395 44.967 6.2052C44.0901 6.20529 43.1823 6.20538 42.2424 6.20538C29.6756 6.20538 23.2397 6.20054 19.8282 6.10162C18.1159 6.05197 17.1974 5.97908 16.6556 5.87894C16.3904 5.82992 16.2347 5.77756 16.1295 5.72829C16.0284 5.68093 15.954 5.62751 15.8519 5.54399C15.6384 5.36932 15.4065 5.10472 15.2119 4.81549M21.8968 15.3575L15.2119 4.81549M15.2119 4.81549C15.0144 4.52197 14.8831 4.24461 14.837 4.05384L15.2119 4.81549ZM88.9461 7.28889C100.429 9.03086 108.234 12.6069 116.808 20.0549M99.4683 26.3305L99.4758 26.3307H99.4833C108.083 26.3307 113.096 26.3108 116.009 26.228C117.462 26.1867 118.412 26.1293 119.029 26.0478C119.336 26.0072 119.583 25.9579 119.776 25.8928C119.964 25.8295 120.157 25.7334 120.294 25.5622L119.903 25.2503L120.294 25.5622C120.572 25.2138 120.733 24.8142 120.727 24.3575C120.722 23.9142 120.56 23.4676 120.289 23.0126C119.754 22.1153 118.707 21.0428 117.136 19.6774L116.808 20.0549L117.136 19.6774C108.489 12.1658 100.596 8.55038 89.0211 6.79455L88.9461 7.28889L89.021 6.79454C86.7143 6.44474 84.3327 6.09372 82.4703 5.99206C81.5424 5.94141 80.7102 5.95034 80.0679 6.06418C79.7469 6.12106 79.4449 6.20879 79.195 6.34773C79.0235 6.44309 78.8632 6.57053 78.7441 6.73823C78.6655 6.80113 78.6267 6.87068 78.6141 6.89373C78.577 6.96175 78.5623 7.0263 78.5578 7.04587L78.5576 7.04665C78.5361 7.14101 78.5235 7.28804 78.5132 7.45737C78.4906 7.82491 78.4697 8.47981 78.4542 9.53416C78.4239 11.5901 78.414 15.1927 78.4563 21.2153C77.5358 21.2149 76.702 21.2134 75.9467 21.2121C73.6772 21.208 72.1162 21.2052 71.0401 21.2364C70.2929 21.2581 69.7495 21.2966 69.3531 21.3694C68.9609 21.4414 68.6341 21.5597 68.3993 21.8038L68.3992 21.8039C67.9183 22.304 67.7094 23.1105 67.6888 23.8116C67.6782 24.1742 67.7161 24.543 67.8121 24.874C67.9064 25.1987 68.0688 25.5278 68.338 25.76C68.4436 25.8511 68.5642 25.8903 68.632 25.9091C68.7122 25.9313 68.7994 25.9459 68.8851 25.9564C69.0574 25.9775 69.276 25.9881 69.5295 25.9926C70.0387 26.0017 70.7474 25.9871 71.6301 25.9651C71.807 25.9607 71.9913 25.956 72.183 25.9511C73.9101 25.9071 76.2298 25.8478 79.0713 25.8623C79.2332 25.8646 79.4342 25.8666 79.6884 25.8692C81.5535 25.8879 86.2846 25.9355 99.4683 26.3305ZM79.0832 24.8624L79.0787 24.8623C76.2202 24.8477 73.8855 24.9073 72.1577 24.9515C71.9661 24.9564 71.7819 24.9611 71.6052 24.9655C70.7174 24.9875 70.0312 25.0014 69.5473 24.9927C69.3042 24.9884 69.1267 24.9785 69.0066 24.9638C68.9815 24.9608 68.9612 24.9577 68.9449 24.955C68.886 24.8839 68.8226 24.7679 68.7725 24.5952C68.7106 24.382 68.6802 24.1196 68.6884 23.841C68.7055 23.2595 68.8833 22.7431 69.12 22.497C69.1378 22.4785 69.2145 22.4115 69.5337 22.3529C69.8495 22.295 70.3273 22.2575 71.0691 22.236C72.1288 22.2053 73.6658 22.208 75.9242 22.212C76.8181 22.2136 77.8249 22.2154 78.9599 22.2154H79.4636L79.4599 21.7118C79.4135 15.3873 79.4232 11.6503 79.4541 9.54886C79.4695 8.49616 79.4903 7.86119 79.5113 7.51861C79.5134 7.4846 79.5154 7.45403 79.5174 7.42668L79.5482 7.3385C79.5515 7.32899 79.5693 7.28377 79.6809 7.22176C79.7965 7.15748 79.9786 7.09558 80.2424 7.04884C80.7695 6.95542 81.5098 6.94112 82.4158 6.99057C84.221 7.08912 86.5525 7.43164 88.8711 7.78324C100.263 9.51133 107.979 13.048 116.48 20.4323C118.051 21.7972 118.986 22.7785 119.43 23.5244C119.648 23.891 119.725 24.1634 119.727 24.3696C119.73 24.555 119.673 24.729 119.53 24.9159C119.518 24.9219 119.495 24.9322 119.457 24.945C119.353 24.9801 119.179 25.0192 118.898 25.0564C118.336 25.1306 117.432 25.1871 115.981 25.2284C113.086 25.3106 108.091 25.3307 99.4908 25.3307C86.305 24.9357 81.5693 24.8881 79.7029 24.8693C79.4473 24.8667 79.2455 24.8647 79.0832 24.8624ZM68.8927 24.9433C68.893 24.9433 68.8952 24.9439 68.8989 24.9453C68.8943 24.9441 68.8924 24.9433 68.8927 24.9433ZM81.777 32.6954L81.777 32.6955C82.24 33.1312 82.3595 33.8264 82.168 34.4502C81.9756 35.0768 81.5245 35.4802 80.9897 35.4879L80.9968 35.9878L80.9896 35.4879C75.8804 35.5616 68.771 35.5322 62.8698 35.4463C59.9193 35.4033 57.2735 35.3463 55.3324 35.2811C54.3613 35.2485 53.5703 35.214 53.007 35.1784C52.7245 35.1605 52.5051 35.1428 52.351 35.1255C52.2806 35.1176 52.2296 35.1104 52.1953 35.1045C51.9871 34.9628 51.813 34.6352 51.7994 34.1475C51.7853 33.6455 51.9525 33.1045 52.2805 32.7275L52.2806 32.7275C52.354 32.643 52.4324 32.5654 52.7259 32.4902C53.056 32.4057 53.6093 32.3386 54.6102 32.2912C56.6006 32.197 60.2088 32.1854 66.9789 32.1854C73.4454 32.1854 77.0644 32.2026 79.1442 32.2913C80.1875 32.3358 80.8164 32.3975 81.2145 32.4771C81.6028 32.5547 81.7171 32.6391 81.777 32.6954ZM52.1577 35.0967C52.158 35.0967 52.1602 35.0972 52.1641 35.0984C52.1594 35.0973 52.1574 35.0967 52.1577 35.0967ZM78.5843 7.26362L78.5844 7.26441L78.5843 7.26362ZM7.33034 56.9819L8.27969 55.9945L14.837 4.05365C14.7452 3.67291 14.8419 3.01193 15.0998 2.36038C15.2241 2.0464 15.3748 1.76361 15.5311 1.5477C15.675 1.34905 15.7973 1.24333 15.8778 1.19824C15.9113 1.19404 15.9614 1.18917 16.0306 1.18397C16.175 1.17311 16.381 1.16239 16.6476 1.15197C17.1798 1.13119 17.9363 1.11231 18.888 1.09535C20.7905 1.06144 23.4619 1.03538 26.6543 1.01669C33.0386 0.979293 41.5002 0.971375 50.0478 0.988816C58.5953 1.00626 67.2275 1.04905 73.9529 1.11307C80.7011 1.1773 85.483 1.26297 86.3724 1.36168L86.4276 0.864736L86.3724 1.36169C98.0973 2.66267 108.597 6.33412 116.619 11.9147C120.59 14.6769 125.032 18.6721 127.399 21.5995C127.974 22.3104 128.562 22.9815 129.049 23.4916C129.292 23.7461 129.515 23.9655 129.701 24.1313C129.793 24.2139 129.882 24.288 129.964 24.3478C130.036 24.4005 130.137 24.4688 130.248 24.5081L130.249 24.5083C130.327 24.536 130.466 24.5661 130.608 24.5952C130.767 24.6278 130.98 24.6687 131.239 24.7164C131.757 24.812 132.468 24.9369 133.319 25.0822C135.022 25.3729 137.292 25.7462 139.719 26.1321C151.324 27.9778 157.474 29.2475 161.781 30.6757C168.138 32.783 172.194 35.3491 174.396 38.5271C175.486 40.1003 176.107 41.2395 176.49 42.6968C176.877 44.1735 177.027 46.0025 177.12 48.9723L177.286 54.3391L177.301 54.8236H177.786H178.794C179.013 54.8236 179.265 54.8663 179.486 54.9372C179.676 54.9985 179.799 55.0661 179.86 55.1109C179.865 55.1277 179.872 55.1507 179.88 55.181C179.908 55.2853 179.937 55.437 179.965 55.6378C180.022 56.0372 180.07 56.585 180.109 57.2391C180.188 58.5446 180.227 60.2374 180.227 61.9347C180.227 63.632 180.188 65.3248 180.109 66.6303C180.07 67.2844 180.022 67.8322 179.965 68.2315C179.937 68.4323 179.908 68.584 179.88 68.6883C179.877 68.702 179.873 68.7142 179.87 68.7251C179.809 68.7468 179.715 68.7721 179.579 68.7979C179.297 68.8516 178.887 68.8983 178.327 68.9358C177.211 69.0107 175.558 69.0458 173.27 69.0458C170.218 69.0458 168.625 69.0329 167.821 68.9452C167.693 68.9313 167.593 68.9163 167.517 68.9011C167.845 67.9637 168.061 66.5456 168.16 65.0623C168.264 63.4918 168.239 61.79 168.051 60.407C167.017 52.8268 161.735 46.2676 154.562 43.6587C152.872 43.0442 150.581 42.7388 148.333 42.7261C146.086 42.7133 143.818 42.9927 142.176 43.5905C133.35 46.8037 127.952 55.0785 128.538 64.4879C128.596 65.4108 128.675 66.3604 128.756 67.1483C128.835 67.922 128.92 68.5756 128.995 68.8828L129.081 69.2392L93.4299 69.1395L93.4284 69.1395L76.9177 69.0415L77.0626 68.1593L76.5692 68.0782L77.0626 68.1592C77.6926 64.3235 77.7225 62.1623 77.156 59.3833C74.9404 48.5183 65.2642 41.2441 54.95 42.8079C44.4057 44.4061 36.954 54.0237 37.7899 64.9004L38.2884 64.862L37.7899 64.9004C37.9134 66.5056 38.1164 68.3071 38.2477 68.8969C38.2759 69.0236 38.296 69.12 38.3091 69.1943C38.1433 69.1901 37.9116 69.1671 37.576 69.1296L37.5758 69.1296C37.4509 69.1158 37.1208 69.0196 36.5753 68.8151C36.0524 68.6191 35.3824 68.3438 34.6102 68.0081C33.0666 67.3371 31.1305 66.4319 29.1764 65.455L28.9529 65.9022L29.1764 65.455L22.046 61.8907L21.9472 61.8413L21.8367 61.8381L14.7668 61.6363L7.92352 61.4414L7.16318 60.521L7.16316 60.521C6.60591 59.8466 6.39214 59.2623 6.41629 58.7341C6.44054 58.2039 6.70907 57.6282 7.33034 56.9819ZM15.8445 1.20327C15.8444 1.20325 15.8458 1.20295 15.8489 1.20241C15.8461 1.20302 15.8446 1.20329 15.8445 1.20327ZM1.70261 45.2904C1.6992 45.2911 1.6972 45.2914 1.69687 45.2915C1.69651 45.2915 1.69828 45.2911 1.70261 45.2904ZM11.5832 28.2802L11.5831 28.2801L11.5832 28.2802Z" stroke="#FFFCF6"/>
<path fill-rule="evenodd" clip-rule="evenodd" d="M171.789 40.3398C172.848 40.9038 173.948 43.579 173.948 45.5927C173.948 48.1145 173.234 48.8592 170.815 48.8592C168.935 48.8592 168.907 48.8409 165.807 45.5205C161.627 41.044 161.676 40.0213 166.081 39.8035C168.906 39.6642 170.866 39.848 171.789 40.3398Z" fill="#F74C3C"/>
<path fill-rule="evenodd" clip-rule="evenodd" d="M54.2845 47.0517C51.2001 47.7527 48.7176 49.1882 46.297 51.671C40.0035 58.126 40.0035 68.4283 46.297 74.9555C51.301 80.1459 58.2562 81.4348 64.55 78.338C70.6015 75.3603 74.4815 67.8557 73.4683 61.0873C72.3845 53.8466 67.2187 48.2745 60.33 46.9158C57.8614 46.4287 56.9344 46.4498 54.2845 47.0517ZM64.8176 60.4421C64.2644 58.9293 62.1782 56.6815 60.7518 56.0616C58.6359 55.1421 55.4944 55.3325 53.633 56.4929C50.0423 58.731 48.8962 63.7048 51.1122 67.4323C52.312 69.451 54.2703 70.8709 56.436 71.2936C59.3903 71.8701 63.4546 69.5177 64.6604 66.5334C65.2454 65.0857 65.3291 61.8414 64.8176 60.4421Z" fill="#F74C3C"/>
<path fill-rule="evenodd" clip-rule="evenodd" d="M145.068 46.9233C142.547 47.4677 139.651 49.0891 137.436 51.1948C130.653 57.6428 130.597 68.7164 137.316 75.3248C145.278 83.1568 157.874 80.779 162.716 70.5298C163.956 67.9057 164.003 67.6407 164.003 63.309C164.003 59.2353 163.907 58.5999 162.986 56.5554C161.059 52.278 158.043 49.3756 153.77 47.6867C151.547 46.8085 147.317 46.4373 145.068 46.9233ZM146.601 71.077C155.378 72.972 159.691 60.4851 151.727 56.2373C149.813 55.2162 146.82 55.2607 144.721 56.3411C142.813 57.3236 141.111 59.8173 140.724 62.197C140.086 66.1232 142.825 70.262 146.601 71.077Z" fill="#F74C3C"/>
</svg>
