<svg width="26" height="25" viewBox="0 0 26 25" fill="none" xmlns="http://www.w3.org/2000/svg">
<path fill-rule="evenodd" clip-rule="evenodd" d="M12.0871 0.0159746C11.2231 0.0889468 10.6157 0.184217 9.86407 0.364673C8.13961 0.778695 6.5963 1.4873 5.18141 2.51465C4.19905 3.22796 3.08443 4.3419 2.37522 5.31914C0.184912 8.33716 -0.534434 12.1078 0.400577 15.6697C0.903622 17.5861 1.81092 19.2929 3.11084 20.768C3.42856 21.1285 4.14675 21.8246 4.51685 22.1308C6.25483 23.5683 8.26577 24.5185 10.4671 24.9423C10.9148 25.0285 11.063 25.0212 11.3292 24.8999C12.0554 24.569 12.1248 23.5733 11.4519 23.1411C11.3191 23.0558 11.1892 23.0173 10.6713 22.9098C7.79716 22.3131 5.22542 20.5383 3.69141 18.0931C2.84368 16.7418 2.32345 15.236 2.14763 13.6248C2.09775 13.1679 2.0905 12.0946 2.1341 11.6219C2.38268 8.9257 3.76032 6.32963 5.87059 4.5807C7.55243 3.18686 9.57727 2.33386 11.7981 2.08357C14.1183 1.8221 16.5781 2.34265 18.6072 3.52452C18.7752 3.62234 18.941 3.72313 18.9756 3.74845C19.0384 3.79439 19.0376 3.79577 18.5894 4.42375C18.3241 4.79558 18.1329 5.09114 18.1223 5.14622C18.0972 5.27586 18.1504 5.37037 18.2777 5.42197C18.3794 5.46323 18.4963 5.45634 20.2063 5.30841C21.2075 5.22182 22.0959 5.13725 22.1805 5.12053C22.3954 5.07801 22.5709 4.91382 22.6142 4.71474C22.6501 4.54938 22.6354 4.47476 22.4178 3.72243C22.3399 3.45281 22.1376 2.7469 21.9684 2.15374C21.7992 1.56058 21.6379 1.02484 21.61 0.963213C21.5442 0.817857 21.4812 0.769928 21.3561 0.769928C21.2186 0.769928 21.1124 0.885478 20.641 1.54763C20.4351 1.83689 20.2554 2.08029 20.2416 2.08853C20.2278 2.09679 20.1492 2.06222 20.067 2.01172C18.1965 0.863433 16.3351 0.237833 14.1989 0.039477C13.7828 0.000819923 12.4429 -0.0140827 12.0871 0.0159746ZM12.1244 4.43238C11.8567 4.50546 11.6265 4.7262 11.5504 4.98299C11.5312 5.04742 11.5241 6.50697 11.5297 9.23997L11.5381 13.3989L12.1015 13.6818C12.4114 13.8373 13.1656 14.2148 13.7774 14.5206C14.3892 14.8264 15.3839 15.3247 15.9878 15.628C16.5917 15.9313 17.5993 16.4366 18.2271 16.7509L19.3684 17.3224L19.5995 17.3219C19.793 17.3214 19.8542 17.3093 19.9752 17.2474C20.279 17.0918 20.437 16.8384 20.435 16.5101C20.4336 16.2718 20.3622 16.1003 20.2003 15.9457C20.1219 15.8708 19.8133 15.7011 19.1933 15.3919C18.7016 15.1466 18.1563 14.874 17.9815 14.7861C17.5875 14.588 15.2005 13.3926 13.6844 12.634L13.2012 12.3923L13.1932 8.69463C13.1855 5.20824 13.1821 4.99089 13.1333 4.89007C12.9588 4.52961 12.5116 4.32671 12.1244 4.43238ZM23.7118 7.34513C23.402 7.47172 23.2189 7.66035 23.1067 7.96835C23.0152 8.21951 23.0417 8.4347 23.2236 8.91873C23.4121 9.42034 23.4695 9.52542 23.6384 9.67926C23.9713 9.98233 24.4353 10.0367 24.8532 9.82165C25.0479 9.72148 25.1887 9.57363 25.2987 9.35395C25.3659 9.21986 25.3762 9.1647 25.3752 8.94674C25.374 8.71356 25.3628 8.66589 25.2261 8.31159C25.1449 8.10093 25.0527 7.88033 25.0214 7.82137C24.9259 7.64167 24.7707 7.49091 24.5787 7.39135C24.4168 7.30734 24.3663 7.29549 24.1359 7.28731C23.9131 7.27939 23.8523 7.28768 23.7118 7.34513ZM24.7138 11.1426C24.3204 11.2458 24.0303 11.5249 23.9335 11.8933C23.8637 12.1587 23.8907 12.9754 23.9766 13.1975C24.0971 13.509 24.415 13.765 24.7678 13.8348C25.2837 13.9367 25.8178 13.6031 25.9548 13.0934C26.0084 12.8937 26.0164 12.179 25.9675 11.9524C25.866 11.4821 25.4833 11.1547 25.0065 11.1304C24.8932 11.1246 24.7615 11.1301 24.7138 11.1426ZM24.2269 15.0408C23.9187 15.0909 23.6293 15.2992 23.4834 15.5759C23.4481 15.6429 23.3562 15.88 23.2791 16.1029C23.1145 16.5789 23.0959 16.8025 23.1989 17.0692C23.2781 17.2743 23.4998 17.5076 23.7115 17.6083C23.8597 17.6789 23.9056 17.6866 24.1792 17.6866C24.4519 17.6866 24.4974 17.6791 24.6281 17.6122C24.8192 17.5143 24.998 17.3432 25.087 17.173C25.1265 17.0974 25.226 16.8429 25.3082 16.6075C25.446 16.2128 25.4566 16.1638 25.4443 15.979C25.4126 15.4996 25.0684 15.1302 24.5712 15.0419C24.4769 15.0251 24.3924 15.0129 24.3834 15.0147C24.3744 15.0165 24.304 15.0282 24.2269 15.0408ZM22.1921 18.5945C21.9717 18.6738 21.8419 18.7857 21.5277 19.1676C21.1566 19.6187 21.082 19.7547 21.065 20.0113C21.0412 20.371 21.1887 20.6887 21.4777 20.9001C21.8385 21.1642 22.3463 21.1678 22.71 20.9091C22.8804 20.7878 23.4131 20.1448 23.5114 19.9416C23.5743 19.8117 23.586 19.7479 23.586 19.5354C23.586 19.3213 23.5744 19.2592 23.5093 19.1237C23.4154 18.9283 23.2241 18.738 23.0188 18.6356C22.8094 18.5313 22.4218 18.512 22.1921 18.5945ZM19.28 21.2793C19.086 21.3466 18.3886 21.7678 18.2365 21.9095C18.1702 21.9714 18.0792 22.099 18.0343 22.1933C17.9637 22.3413 17.9526 22.3991 17.9526 22.6174C17.9526 22.8464 17.9615 22.8875 18.0476 23.0571C18.1526 23.2639 18.321 23.4267 18.5387 23.5315C18.6557 23.5879 18.718 23.5972 18.9796 23.5972C19.3264 23.5972 19.3377 23.5931 19.8706 23.2729C20.2539 23.0426 20.4304 22.8891 20.5233 22.705C20.8618 22.0341 20.4076 21.273 19.6482 21.2387C19.4859 21.2313 19.3869 21.2423 19.28 21.2793ZM15.7133 22.8284C15.3065 22.9004 14.7794 23.0264 14.6804 23.0754C14.2721 23.2773 14.042 23.7789 14.1526 24.2259C14.2565 24.6455 14.7089 24.9849 15.1623 24.9834C15.3485 24.9827 16.1824 24.8031 16.3378 24.7302C16.6142 24.6005 16.8306 24.3201 16.9014 24.0001C16.9901 23.599 16.7465 23.1202 16.356 22.9284C16.2404 22.8716 15.9198 22.7901 15.8597 22.8022C15.8507 22.8039 15.7848 22.8158 15.7133 22.8284Z" fill="black"/>
</svg>
