<svg width="181" height="70" viewBox="0 0 181 70" fill="none" xmlns="http://www.w3.org/2000/svg">
<path opacity="0.5" d="M130.249 24.5083L130.248 24.5081C130.137 24.4688 130.036 24.4005 129.964 24.3478C129.882 24.288 129.793 24.2139 129.701 24.1313C129.515 23.9655 129.292 23.7461 129.049 23.4916C128.562 22.9815 127.974 22.3104 127.399 21.5995C125.032 18.6721 120.59 14.6769 116.619 11.9147C108.597 6.33412 98.0973 2.66267 86.3724 1.36169L86.4276 0.864736L86.3724 1.36168C85.483 1.26297 80.7011 1.1773 73.9529 1.11307C67.2275 1.04905 58.5953 1.00626 50.0478 0.988816C41.5002 0.971375 33.0386 0.979293 26.6543 1.01669C23.4619 1.03538 20.7905 1.06144 18.888 1.09535C17.9363 1.11231 17.1798 1.13119 16.6476 1.15197C16.381 1.16239 16.175 1.17311 16.0306 1.18397C15.9614 1.18917 15.9113 1.19404 15.8778 1.19824C15.7973 1.24333 15.675 1.34905 15.5311 1.5477C15.3748 1.76361 15.2241 2.0464 15.0998 2.36038C14.8419 3.01193 14.7452 3.67291 14.837 4.05365L130.249 24.5083ZM130.249 24.5083C130.327 24.536 130.466 24.5661 130.608 24.5952C130.767 24.6278 130.98 24.6687 131.239 24.7164C131.757 24.812 132.468 24.9369 133.319 25.0822C135.022 25.3729 137.292 25.7462 139.719 26.1321C151.324 27.9778 157.474 29.2475 161.781 30.6757C168.138 32.783 172.194 35.3491 174.396 38.5271C175.486 40.1003 176.107 41.2395 176.49 42.6968C176.877 44.1735 177.027 46.0025 177.12 48.9723L177.286 54.3391L177.301 54.8236H177.786H178.794C179.013 54.8236 179.265 54.8663 179.486 54.9372C179.676 54.9985 179.799 55.0661 179.86 55.1109C179.865 55.1277 179.872 55.1507 179.88 55.181C179.908 55.2853 179.937 55.437 179.965 55.6378C180.022 56.0372 180.07 56.585 180.109 57.2391C180.188 58.5446 180.227 60.2374 180.227 61.9347C180.227 63.632 180.188 65.3248 180.109 66.6303C180.07 67.2844 180.022 67.8322 179.965 68.2315C179.937 68.4323 179.908 68.584 179.88 68.6883C179.877 68.702 179.873 68.7142 179.87 68.7251C179.809 68.7468 179.715 68.7721 179.579 68.7979C179.297 68.8516 178.887 68.8983 178.327 68.9358C177.211 69.0107 175.558 69.0458 173.27 69.0458C170.218 69.0458 168.625 69.0329 167.821 68.9452C167.693 68.9313 167.593 68.9163 167.517 68.9011C167.845 67.9637 168.061 66.5456 168.16 65.0623C168.264 63.4918 168.239 61.79 168.051 60.4069C167.017 52.8268 161.735 46.2676 154.562 43.6587C152.872 43.0442 150.581 42.7388 148.333 42.7261C146.086 42.7133 143.818 42.9927 142.176 43.5905C133.35 46.8037 127.952 55.0785 128.538 64.488C128.596 65.4108 128.675 66.3604 128.756 67.1483C128.835 67.922 128.92 68.5756 128.995 68.8828M130.249 24.5083L128.995 68.8828M128.995 68.8828L129.081 69.2392L93.4299 69.1395L93.4284 69.1395L76.9177 69.0415L77.0626 68.1593L76.5692 68.0782L77.0626 68.1592C77.6926 64.3235 77.7225 62.1623 77.156 59.3833C74.9404 48.5183 65.2642 41.2441 54.95 42.808C44.4057 44.4061 36.954 54.0237 37.7899 64.9004L38.2884 64.862L37.7899 64.9004C37.9134 66.5056 38.1164 68.3071 38.2477 68.8969C38.2759 69.0236 38.296 69.12 38.3091 69.1943C38.1433 69.1901 37.9116 69.1671 37.576 69.1296L37.5758 69.1296C37.4509 69.1158 37.1208 69.0196 36.5753 68.8151C36.0524 68.6191 35.3824 68.3438 34.6102 68.0081C33.0666 67.3371 31.1305 66.4319 29.1764 65.455L28.9529 65.9022L29.1764 65.455L22.046 61.8907L21.9472 61.8413L21.8367 61.8381L14.7668 61.6363L7.92352 61.4414L7.16318 60.521L7.16316 60.521C6.60591 59.8466 6.39214 59.2623 6.41629 58.7341C6.44054 58.2039 6.70907 57.6282 7.33034 56.9819L8.27969 55.9945H16.7058C20.9406 55.9945 23.1357 55.9917 24.337 55.8787C24.9353 55.8225 25.357 55.7344 25.6765 55.5638C26.0215 55.3797 26.1964 55.1252 26.344 54.9061M128.995 68.8828L14.837 4.05384C14.8831 4.24461 15.0144 4.52197 15.2119 4.81549C15.4065 5.10472 15.6384 5.36932 15.8519 5.54399C15.954 5.62751 16.0284 5.68093 16.1295 5.72829C16.2347 5.77756 16.3904 5.82992 16.6556 5.87894C17.1974 5.97908 18.1159 6.05197 19.8282 6.10162C23.2397 6.20054 29.6756 6.20538 42.2424 6.20538C43.1823 6.20538 44.0901 6.20529 44.967 6.2052C57.3142 6.20395 63.5277 6.20332 66.6434 6.46934C67.4811 6.54086 68.1184 6.63327 68.6008 6.75694C69.0781 6.87929 69.4533 7.04413 69.7197 7.29487C70.0048 7.56325 70.1135 7.87998 70.1528 8.18754C70.1793 8.39567 70.176 8.63687 70.173 8.85516C70.1721 8.92187 70.1712 8.98643 70.1712 9.04726C70.1712 9.09592 70.1715 9.14609 70.1719 9.19724C70.1735 9.42949 70.1753 9.68193 70.1446 9.90541C70.1035 10.2041 69.9997 10.5115 69.7387 10.7768C69.4902 11.0295 69.1428 11.1987 68.7066 11.324C68.2679 11.4501 67.6959 11.5438 66.9547 11.6163C64.1535 11.8903 58.578 11.8899 47.522 11.8892C46.9408 11.8892 46.3445 11.8891 45.7326 11.8891C38.9641 11.8891 33.3334 11.9259 29.3446 11.9912C27.3497 12.0238 25.7685 12.0635 24.6622 12.1092C24.1082 12.132 23.6784 12.1562 23.3771 12.1812C23.2256 12.1938 23.1135 12.206 23.0373 12.2173C23.0182 12.2202 23.0031 12.2227 22.9914 12.2248M26.344 54.9061C26.3439 54.9061 26.3439 54.9062 26.3439 54.9062L25.9292 54.6269L26.344 54.9061ZM26.344 54.9061C26.7896 54.2444 27.0488 53.5964 26.96 52.9367C26.8707 52.2729 26.4474 51.7286 25.8412 51.2328M25.8412 51.2328C25.5795 51.0188 25.3155 50.8281 24.8799 50.6887C24.4682 50.557 23.9234 50.4774 23.1024 50.4244C21.4588 50.3181 18.5465 50.3107 13.0108 50.3107C12.7467 50.3107 12.4883 50.3108 12.2355 50.3108C9.45777 50.311 7.35095 50.3112 5.74176 50.2807C3.9784 50.2473 2.84718 50.1772 2.10028 50.0391C1.35714 49.9016 1.09148 49.7132 0.948565 49.5221C0.780532 49.2973 0.707272 48.9912 0.563144 48.3889C0.555978 48.359 0.548637 48.3283 0.541101 48.2969L0.541077 48.2968C0.434342 47.852 0.538828 47.1608 0.816301 46.5022C0.951056 46.1824 1.11657 45.8953 1.29199 45.674C1.4567 45.4663 1.60827 45.3438 1.72659 45.2869M25.8412 51.2328C25.8412 51.2329 25.8412 51.2329 25.8413 51.2329L25.5246 51.6199L25.8412 51.2328ZM1.72659 45.2869C1.73977 45.2853 1.75733 45.2833 1.77992 45.2811C1.85342 45.274 1.95971 45.2665 2.10026 45.2587C2.38018 45.2434 2.77736 45.2283 3.28099 45.2139C4.28722 45.185 5.70549 45.159 7.4327 45.137C10.8865 45.0931 15.5682 45.0658 20.6437 45.0658C28.692 45.0658 33.3434 45.0464 36.0734 44.9604C37.436 44.9175 38.3384 44.8576 38.9518 44.7718C39.5549 44.6875 39.9487 44.5704 40.2344 44.3622M1.72659 45.2869C1.7181 45.288 1.71142 45.289 1.70638 45.2897C1.70496 45.29 1.7037 45.2902 1.70261 45.2904M1.72659 45.2869C1.7378 45.2816 1.74872 45.2768 1.75932 45.2725L1.57403 44.8081M40.2344 44.3622C41.5069 43.4352 41.5767 41.4701 40.5304 40.2677M40.2344 44.3622L39.94 43.958M40.2344 44.3622C40.2345 44.3622 40.2345 44.3621 40.2345 44.3621L39.94 43.958M40.5304 40.2677C40.3221 40.0282 40.0736 39.8478 39.6363 39.7233C39.2343 39.6089 38.6621 39.5387 37.7945 39.4907C36.0499 39.3943 32.9481 39.382 27.2393 39.382H15.1851M40.5304 40.2677C40.5304 40.2677 40.5304 40.2677 40.5304 40.2677L40.1532 40.5959M40.5304 40.2677L40.1532 40.5959M15.1851 39.382L14.3636 38.3665L13.9749 38.681M15.1851 39.382L15.3352 39.5675L14.9465 39.882M15.1851 39.382H14.9465V39.882M13.9749 38.681L14.3636 38.3665C13.8263 37.7024 13.6188 37.3488 13.5591 37.0217C13.5006 36.7013 13.5699 36.3263 13.8459 35.5718L13.846 35.5716C13.9734 35.2229 14.1509 34.9566 14.4096 34.7406C14.6738 34.52 15.0494 34.3296 15.6052 34.1774C16.7336 33.8684 18.4834 33.7467 21.2389 33.7467C23.5938 33.7467 24.8767 33.743 25.6332 33.6112C26.0304 33.542 26.3395 33.4297 26.5972 33.227C26.8434 33.0333 27.0025 32.7852 27.1456 32.5581L27.1456 32.5581C27.4068 32.1435 27.6071 31.7695 27.6279 31.3359C27.6484 30.9097 27.491 30.5026 27.2751 30.0334L27.2751 30.0333L26.7714 28.9393L26.6417 28.6575L26.3317 28.6486L18.8301 28.4324L18.8301 28.4323C16.7685 28.3731 14.886 28.3105 13.5141 28.2575C12.8278 28.2309 12.2709 28.2069 11.8838 28.1869C11.7037 28.1776 11.563 28.1693 11.464 28.1622M13.9749 38.681L14.9465 39.882M13.9749 38.681C12.9053 37.359 12.8235 36.9113 13.3763 35.4C13.9884 33.7248 15.735 33.2467 21.2389 33.2467C26.0039 33.2467 26.1352 33.2236 26.7226 32.2916L14.9465 39.882M11.464 28.1622C10.5009 27.1865 10.0904 26.2113 10.1111 25.3914C10.1319 24.5659 10.5929 23.7851 11.6149 23.2153M11.464 28.1622C11.5028 28.2016 11.5425 28.2409 11.5831 28.2801M11.464 28.1622C11.4563 28.1617 11.4488 28.1611 11.4416 28.1606C11.3908 28.1568 11.3581 28.1538 11.3402 28.1517C11.3301 28.1505 11.3328 28.1506 11.3423 28.1524L11.3424 28.1524C11.3463 28.1531 11.3628 28.1563 11.385 28.163C11.396 28.1663 11.4174 28.1732 11.4435 28.1851C11.4622 28.1935 11.5225 28.2215 11.5831 28.2801M11.6149 23.2153C11.6205 23.2134 11.6385 23.2074 11.6744 23.1988C11.7332 23.1848 11.8178 23.1691 11.9332 23.1529C12.1635 23.1204 12.4882 23.0895 12.9197 23.0608C13.7813 23.0036 15.0373 22.9573 16.7518 22.9212C20.1791 22.849 25.4131 22.8179 32.9331 22.8179C42.3106 22.8179 47.5185 22.8026 50.4589 22.7139C51.9252 22.6697 52.8509 22.6068 53.4551 22.5137C54.0543 22.4214 54.4231 22.2886 54.6914 22.036M11.6149 23.2153C11.6136 23.2157 11.613 23.2159 11.613 23.2159C11.613 23.2158 11.6177 23.2137 11.6258 23.2092L11.3836 22.7718M11.6149 23.2153C11.6186 23.2133 11.6222 23.2112 11.6259 23.2092L11.3836 22.7718M54.6914 22.036C55.7258 21.0624 55.7587 19.5047 54.9116 18.2994M54.6914 22.036C54.6914 22.036 54.6914 22.036 54.6914 22.036L54.3487 21.6719M54.6914 22.036L54.3487 21.6719M54.9116 18.2994C54.8323 18.1864 54.7298 18.0584 54.573 17.943C54.418 17.8289 54.2354 17.7456 54.0138 17.6804C53.5875 17.555 52.9437 17.4773 51.911 17.4204C49.8288 17.3056 45.9761 17.2684 38.6506 17.2126C30.3421 17.1492 26.203 17.1118 24.0676 16.8346C22.9905 16.6948 22.5375 16.5044 22.3131 16.3106C22.1072 16.1327 22.0281 15.9017 21.8968 15.3577L21.8968 15.3575C21.7851 14.8953 21.8684 14.2036 22.1151 13.5387C22.3559 12.8897 22.6976 12.412 22.9914 12.2248M54.9116 18.2994C54.9117 18.2994 54.9117 18.2995 54.9117 18.2995L54.5026 18.5869M54.9116 18.2994L54.5026 18.5869M22.9914 12.2248C23.0045 12.2165 23.0175 12.2087 23.0305 12.2015L23.0305 12.2015C22.9796 12.2298 22.944 12.2352 22.966 12.23C22.9712 12.2288 22.9795 12.227 22.9914 12.2248ZM54.5026 18.5869C55.2336 19.6271 55.1698 20.8991 54.3487 21.6719M54.5026 18.5869C53.9933 17.8617 53.3129 17.8242 38.6468 17.7126C22.0743 17.5861 21.9152 17.5658 21.4108 15.4749C21.1229 14.2833 21.8679 12.2763 22.7873 11.7646L54.3487 21.6719M54.3487 21.6719C53.7276 22.2566 51.6954 22.3179 32.9331 22.3179C17.8929 22.3179 11.9784 22.4424 11.3836 22.7718M54.3487 21.6719L11.3836 22.7718M11.5831 28.2801L11.5832 28.2802L11.5831 28.2801ZM14.9465 39.882H27.2393C38.672 39.882 39.5756 39.932 40.1532 40.5959M14.9465 39.882L40.1532 40.5959M40.1532 40.5959C41.0396 41.6146 40.9372 43.2317 39.94 43.958M40.1532 40.5959L39.94 43.958M39.94 43.958C39.2127 44.4881 36.7464 44.5658 20.6437 44.5658C10.4896 44.5658 1.90803 44.675 1.57403 44.8081M39.94 43.958L1.57403 44.8081M1.57403 44.8081L1.75912 45.2726C1.73345 45.2828 1.71233 45.2882 1.70261 45.2904M1.70261 45.2904C1.69828 45.2911 1.69651 45.2915 1.69687 45.2915C1.6972 45.2914 1.6992 45.2911 1.70261 45.2904ZM15.8445 1.20327C15.8444 1.20325 15.8458 1.20295 15.8489 1.20241C15.8461 1.20302 15.8446 1.20329 15.8445 1.20327Z" stroke="#FFFCF6"/>
</svg>
