<svg width="16" height="12" viewBox="0 0 16 12" fill="none" xmlns="http://www.w3.org/2000/svg">
<path d="M6.09222 9.71686L5.03156 10.7775C5.31286 11.0588 5.69439 11.2169 6.09222 11.2169C6.49004 11.2169 6.87157 11.0588 7.15288 10.7775L6.09222 9.71686ZM3.06059 4.56391C2.4748 3.97812 1.52505 3.97812 0.939267 4.56391C0.353481 5.1497 0.353481 6.09944 0.939267 6.68523L3.06059 4.56391ZM14.7775 3.15295C15.3632 2.56716 15.3632 1.61741 14.7775 1.03162C14.1917 0.445838 13.2419 0.445838 12.6561 1.03162L14.7775 3.15295ZM7.15288 8.6562L3.06059 4.56391L0.939267 6.68523L5.03156 10.7775L7.15288 8.6562ZM12.6561 1.03162L5.03156 8.6562L7.15288 10.7775L14.7775 3.15295L12.6561 1.03162Z" fill="#F74C3C"/>
</svg>
