<svg width="36" height="36" viewBox="0 0 36 36" fill="none" xmlns="http://www.w3.org/2000/svg">
<path d="M0.87868 30.8787C-0.292893 32.0503 -0.292893 33.9497 0.87868 35.1213C2.05025 36.2929 3.94975 36.2929 5.12132 35.1213L0.87868 30.8787ZM33 3H36C36 1.34315 34.6569 0 33 0V3ZM30 21.2143C30 22.8711 31.3431 24.2143 33 24.2143C34.6569 24.2143 36 22.8711 36 21.2143H30ZM14.7857 0C13.1289 0 11.7857 1.34315 11.7857 3C11.7857 4.65685 13.1289 6 14.7857 6V0ZM5.12132 35.1213L35.1213 5.12132L30.8787 0.87868L0.87868 30.8787L5.12132 35.1213ZM30 3V21.2143H36V3H30ZM14.7857 6H33V0H14.7857V6Z" fill="#F74C3C"/>
</svg>
